<svg width="1509" height="803" viewBox="0 0 1509 803" fill="none" xmlns="http://www.w3.org/2000/svg">
<path d="M1089.61 2.44562C1090.34 0.887539 1094.84 1.19333 1095.31 2.69317C1096.1 3.27563 1098.95 4.1202 1101.49 2.94071C1209.38 20.5893 1288.74 104.027 1328.68 192.022C1327.39 193.406 1327.15 194.76 1327.96 196.085C1329.11 195.59 1329.56 196.041 1329.15 197.104C1330.2 198.211 1331.24 199.347 1332.12 200.555C1333.01 201.764 1333.88 202.958 1334.42 204.239C1384.21 323.469 1385.65 470.89 1336.28 590.222C1335.79 591.416 1334.95 592.494 1334.1 593.6C1333.25 594.707 1332.26 595.741 1331.24 596.76C1332.06 597.197 1332.86 597.925 1332.58 598.653C1320.64 629.174 1300.06 660.613 1279.39 687.61C1278.92 688.207 1278.21 688.673 1277.48 689.153C1276.74 689.634 1275.85 690.027 1274.98 690.391C1274.85 692.939 1274.42 694.381 1271.22 694.876C1265.24 702.055 1259.1 709.263 1252.79 716.485L1248.54 717.665C1248.91 719.266 1247.87 720.854 1245.44 722.426C1244.49 725.31 1243.4 726.882 1239.89 726.358C1239.25 728.557 1237.34 730.523 1234.18 732.255C1232.59 735.008 1228.2 740.104 1224.57 738.808C1225.19 739.522 1224.97 739.827 1224.39 740.264C1221.26 742.623 1217.96 744.968 1214.51 746.846C1214.77 747.385 1214.92 747.836 1214.75 747.967C1212.02 750.05 1205.83 754.782 1202.87 755.787C1202.21 756.005 1201.51 756.093 1200.81 756.049C1200.35 757.855 1198.7 759.223 1195.85 760.141C1192.67 762.966 1190.91 763.446 1190.58 761.582C1190.68 762.179 1190.76 762.791 1190.81 763.403C1190.86 764.043 1178.8 769.97 1178.04 769.955L1175.67 768.907C1175.9 769.649 1176.17 770.538 1175.67 771.135C1174.45 772.62 1152.3 781.706 1149.21 782.26L1146.91 781.939L1145.76 784.211C1127.26 789.977 1109.02 793.938 1089.59 794.812L1080.47 795.671C1080.12 796.195 1079.76 796.603 1079.38 796.632C1065.89 797.477 1050.04 797.433 1036.62 796.53C1036.32 796.516 1036.05 796.137 1035.78 795.671C1033.09 795.875 1030.21 795.045 1027.58 794.637C1024.85 793.035 1027.03 791.302 1029.42 790.036C1107.33 770.086 1154.43 702.346 1183.62 640.547C1184.87 637.62 1186.63 636.528 1188.89 637.271L1192.1 631.985C1252.64 578.646 1279.04 503.698 1284.76 430.322C1292.31 333.546 1266.37 228.077 1184.19 158.997C1182.3 157.206 1180.42 155.327 1179.22 153.114C1170.31 136.761 1161.91 121.646 1152.02 105.658C1147.03 99.2362 1142.83 92.7563 1139.38 86.2182C1136.44 85.8832 1133.96 81.5002 1134.39 79.0539L1131.23 75.2825L1126.14 72.3556C1100.89 43.8586 1067.33 18.871 1028.28 8.69251C1022.26 7.45478 1020.01 5.73653 1021.55 3.53774C1024.95 3.59599 1028.33 1.54282 1031.88 1.29527C1048.72 0.0721028 1065.4 0.115781 1082.24 1.26614C1084.99 1.45544 1086.93 3.42124 1089.56 2.46018L1089.61 2.44562Z" fill="url(#paint0_linear_290_379)"/>
<path d="M871.96 13.2416C875.073 11.9165 879.508 17.1878 877.868 19.6195C878.052 20.6971 878.939 22.2843 880.529 24.3521C879.91 26.1577 880.462 28.0216 882.186 29.9728L882.47 128.234C884.06 132.238 883.927 139.024 878.085 134.801C874.688 136.112 870.252 132.399 872.177 129.515L869.734 129.181C843.306 101.048 820.309 128.147 808.627 153.294C794.401 183.961 787.371 215.72 782.417 248.381L780.5 253.5C780.701 255.466 780.408 256.282 779.588 258C782.768 258.874 781.214 267.346 778 267.899C778.201 269.865 778.803 272.112 778 273.845L777.346 277.839C774.668 302.39 773.078 326.999 772.592 351.681C772.442 354.506 776.004 358.335 775 361C775.592 382.5 772.548 399.114 773 421L772.442 425.581L775.471 481.162L773.463 482.327C774.45 489.229 775.12 496.175 775.454 503.179L778.45 509.281C783.07 545.335 787.907 581.622 799.355 616.133C805.698 635.267 820.828 676.403 844.611 682.927C857.047 686.334 867.725 678.762 874.336 670.317L876.931 670.462L876.964 667.608C882.403 660.677 886.638 653.192 889.701 645.14L892.58 643.756C892.312 639.446 893.467 635.063 896.078 630.636C897.082 625.773 899.14 621.637 902.254 618.23C901.869 611.983 903.157 605.663 906.136 599.271C906.471 595.252 907.86 592.019 910.287 589.602C908.279 586.093 909.183 579.525 913.283 577.793C914.555 578.229 913.953 583.209 913.785 582.933C913.283 582.103 916.363 564.993 917.267 564.483C921.919 561.877 922.539 570.323 920.798 573.264C918.505 572.143 918.505 572.39 920.882 573.57L921.518 672.035C923.811 674.277 925.066 676.039 922.204 678.602C921.986 687.354 921.468 696.018 920.647 704.609L922.221 706.589C913.953 732.465 903.944 758.924 886.822 781.538C884.412 785.484 881.265 787.566 877.399 787.77L872.077 791.279C869.583 792.925 867.641 794.818 864.763 794.978C859.959 794.818 858.168 795.662 859.373 797.497C845.816 802.069 831.155 793.099 822.067 783.911C801.547 763.19 787.706 726.262 779.387 699.6C767.27 660.721 760.659 621.958 753.964 581.331L740.692 657.357C732.691 695.013 712.758 776.266 673.074 796.813C664.89 801.05 653.023 801.006 644.822 796.958C637.056 793.114 631.282 788.061 626.679 782.222L626.428 780.576C623.801 778.392 622.077 775.931 621.24 773.208C619.365 772.495 617.959 770.849 617.039 768.272C616.62 763.904 615.667 759.652 614.177 755.502C613.842 721.792 613.474 688.402 613.072 655.333C613.742 652.319 614.729 650.819 618.093 652.581L621.039 653.425L629.993 666.938C655.467 700.197 679.351 682.956 694.347 653.163C707.67 626.705 714.515 599.242 719.821 570.803L722.733 567.075L723.737 562.43L722.984 559.358C725.176 540.937 727.386 522.531 729.628 504.14L730.161 501.047L731.161 491.047C728.416 490.159 729.394 489.652 732.139 488.778C732.39 484.555 732.742 480.303 733.177 476.037C731.905 469.382 731.269 466.062 731.269 466.062C733.696 406.345 732.424 346.657 726.9 287.028L727.704 281.64C727.67 279.543 727.369 277.432 726.817 275.335L723.921 270.107C717.896 229.539 709.862 189.611 691.535 151.766C684.154 136.52 669.308 114.823 647.5 119.876L645.073 118.609C641.977 119.497 640.22 119.133 639.801 117.502L641.692 109.435C641.692 77.0357 641.358 44.5925 640.705 12.1203C635.332 8.23241 649.258 4.95608 649.709 5.46573C649.877 5.65503 644.454 6.93645 644.99 5.42205C653.827 2.36413 663.969 4.50468 672.12 9.70314C692.372 22.6483 706.364 50.6939 714.18 71.0655C723.151 91.4079 728.624 111.911 734.114 133.316C741.662 162.789 746.064 191.897 751.32 221.85C758.935 167.113 771.22 94.3056 797.012 45.4808C804.326 31.6183 815.874 13.6347 831.356 6.01905C840.695 1.43217 853.382 1.60692 862.001 6.4559C866.085 8.74206 868.98 10.7953 871.943 13.2416H871.96Z" fill="url(#paint1_linear_290_379)"/>
<path d="M940.848 6.21301C943.659 7.56724 946.722 7.78565 950.019 6.86828C1002.79 28.9727 1030.61 82.8213 1050.01 128.748C1048.03 129.491 1048.68 131.515 1049.35 133.059C1049.94 132.418 1050.29 132.738 1050.39 134.005C1051.4 135.185 1052.35 136.393 1053.19 137.66C1054.02 138.927 1054.79 140.165 1055.29 141.49C1068.12 175.622 1076.79 210.905 1083.25 246.391C1090.43 285.926 1096.23 327.659 1096.18 367.674C1096.18 369.232 1095.88 370.79 1095.55 372.348C1095.21 373.906 1094.73 375.479 1094.19 377.023C1094.84 396.317 1094.83 416.251 1094.19 435.545L1095.55 440.132C1096.59 478.356 1091.35 516.77 1084.85 554.586C1078.68 590.509 1068.72 623.579 1057.59 658.279C1057.25 659.327 1056.62 660.317 1055.95 661.322C1055.28 662.327 1054.49 663.288 1053.65 664.22C1053.76 666.36 1053.3 667.875 1052.32 668.749C1053.3 670.904 1053.44 673.088 1052.35 675.199C1034.01 717.573 1011.91 756.394 970.372 785.124C963.878 789.609 957.919 791.983 950.086 793.046C946.806 794.109 943.141 795.041 939.676 795.652C938.237 796.308 936.764 796.875 935.274 797.356C922.571 796.57 920.83 801.783 893.649 793.177C888.411 791.517 884.042 788.24 878.753 787.76C896.394 776.14 916.378 725.204 922.002 704.599C921.768 704.089 921.617 703.58 921.684 703.099C922.37 698.206 923.726 689.863 925.868 685.523C926.387 684.49 927.475 683.805 928.512 683.194L934.973 681.737C940.613 679.844 946.237 678.214 951.844 676.83C951.944 675.418 954.455 674.733 956.162 674.369C957.016 672.229 959.208 670.35 962.74 668.749C965.217 666.113 967.761 664.715 970.405 664.584C971.275 661.701 973.451 659.036 976.932 656.604L983.008 649.687L986.155 648.945L987.326 644.271C1031.03 582.457 1041.94 506.737 1046.04 435.487L1048.25 431.162C1049.42 413.776 1049.42 395.254 1048.25 377.853L1046.78 374.868C1041.12 299.788 1031.19 220.18 984.447 155.221L983.041 150.183C976.882 147.271 969.903 140.616 967.56 134.879L963.878 134.311L955.459 127.918C951.71 126.448 949.116 124.54 947.676 122.225C940.948 120.783 934.22 119.007 927.492 116.881C927.006 117.9 926.219 118.526 925.081 118.745L922.839 118.439C914.035 89.3303 904.83 58.984 887.072 32.2054C883.691 28.2155 881.046 24.0072 879.155 19.5805C877.03 17.6001 875.607 15.1538 873.247 13.2026C877.297 11.295 881.264 9.31463 885.582 7.8876C886.453 7.24689 887.557 6.64987 888.896 6.11109C904.11 1.94649 920.378 1.30579 936.446 4.08704C937.818 4.32002 940.747 5.06265 940.797 6.21301H940.848Z" fill="url(#paint2_linear_290_379)"/>
<path d="M1184.24 158.987C1185.31 160.08 1186.35 161.201 1187.23 162.38C1188.12 163.56 1188.97 164.739 1189.56 166.006C1203.37 196.338 1212.74 229.349 1219.85 261.34C1227.64 296.288 1233.91 334.265 1233.9 369.853C1233.9 371.193 1233.59 372.532 1233.26 373.887C1232.92 375.241 1232.44 376.595 1231.9 377.92C1232.56 393.938 1232.54 410.509 1231.9 426.541C1232.44 427.371 1232.92 428.201 1233.28 429.089C1233.63 429.978 1233.93 430.808 1233.95 431.667C1234.18 473.91 1225.76 521.06 1215.13 562.357C1208.61 587.752 1200.52 613.992 1188.92 637.261C1186.68 639.14 1185.14 641.673 1183.9 644.44C1172.7 669.369 1146.39 713.098 1126.39 732.071L1122.38 735.886C1099.51 757.569 1082.84 773.441 1049.07 785.92C1044.15 787.74 1039.68 790.084 1033.96 790.652C1030.99 790.944 1028.26 792.342 1027.63 794.628C1020.25 793.463 1013.22 795.865 1005.79 796.899C994.272 798.501 982.355 797.875 970.874 796.885C974.372 797.191 950.087 792.342 950.103 793.07C950.321 792.516 950.622 791.424 951.894 791.249C957.903 790.419 962.455 787.682 967.443 784.74C991.46 770.528 1010.72 747.783 1024.1 725.213L1026.98 720.335C1036.98 703.443 1047.01 686.639 1052.32 668.758C1052.94 667.87 1053.57 667.069 1054.61 667.826C1053.97 666.792 1054.14 665.612 1055.13 664.287C1090.58 643.246 1114.58 609.944 1131.03 575.71C1171.01 492.461 1174.41 385.856 1155.21 297.409C1148.22 265.156 1136.4 238.799 1122.48 208.686C1121.41 206.371 1121.1 203.881 1120.87 201.405C1122.73 199.134 1124.1 200.794 1125.46 202.73C1129.66 209.691 1133.51 216.782 1136.97 224.034C1136.4 220.088 1136.6 216.127 1137.57 212.152L1137.51 112.507C1135.28 104.717 1135.25 97.1736 1137.42 89.8783C1137.19 87.9562 1137.86 86.7185 1139.41 86.1797C1141.06 86.6893 1141.93 87.8397 1143.11 89.4706C1159.4 111.604 1173.27 134.786 1184.22 158.973L1184.24 158.987Z" fill="url(#paint3_linear_290_379)"/>
<path d="M1021.6 3.53529C1020.03 4.9332 1037.45 9.37447 1038.11 9.4764C1041.44 9.92781 1043.7 11.9227 1046.44 12.8401C1053.82 15.3301 1064.79 20.6451 1071.51 24.5913C1094.93 38.3228 1114.86 55.6947 1131.28 75.28L1134.45 79.0514C1136.94 80.3183 1138.83 84.0315 1139.43 86.2157C1140.65 90.657 1137.04 95.273 1137.73 99.8744L1139.58 112.441L1139.65 212.217C1139.65 214.794 1138.88 216.542 1138.58 218.507C1138.09 221.551 1140.92 225.832 1136.64 228.162C1133.88 223.487 1124.07 200.509 1120.85 201.441L1117.84 200.276C1100.97 175.405 1080.99 149.471 1052.35 134.196L1051.61 132.041C1049.82 132.827 1050.09 130.046 1050.19 130.162C1050.59 130.585 1050.54 132.929 1049.32 133.089C1047.6 132.128 1048.42 130.09 1047.71 128.328C1032.03 89.2445 1002.09 35.6872 960.598 13.772C956.531 11.6169 952.648 8.51533 947.878 8.51533C946.272 8.51533 945.619 10.0297 944.079 9.11236C942.221 8.02024 940.899 8.1513 940.799 6.24374C949.937 5.85057 955.644 3.6081 964.297 3.24406L972.733 2.48686C979.126 -0.30896 996.097 1.00157 1003.93 1.24912C1009.37 4.62739 1015.83 3.44792 1021.57 3.53529H1021.6Z" fill="url(#paint4_linear_290_379)"/>
<path d="M1234.78 777.79L1229.49 779.873C1230.83 780.63 1231.85 780.062 1232.51 780.688C1232.14 781.445 1231.32 782.115 1229.98 782.392L1214.11 785.77C1212.74 786.411 1211.28 787.008 1209.73 787.576C1207.2 788.391 1204.14 787.881 1201.66 788.522L1194.76 789.221C1193.68 786.658 1200.29 782.785 1202.35 785.362V784.154C1205.53 783.265 1209.02 782.552 1212.82 782.042C1211.95 780.324 1212.81 779.159 1214.38 778.023C1214.05 768.66 1214.38 759.384 1215.35 750.196C1211.7 748.143 1214.15 746.527 1217.41 745.522C1221.31 743.09 1223.7 740.862 1224.61 738.853L1239.92 726.403C1241.21 725.252 1242.28 725.136 1243.12 726.024C1242.68 729.3 1240.54 732.096 1236.72 734.441L1236.87 776.756L1234.8 777.819L1234.78 777.79Z" fill="#81A92D"/>
<path d="M1152.92 794.986C1132.08 796.778 1110.48 792.817 1089.64 794.797C1089.66 794.04 1091.68 793.603 1092.74 793.763C1098.71 794.666 1103.35 792.904 1108.6 791.506C1115.75 789.613 1123.38 789.555 1130.16 786.657C1135.65 784.313 1141.61 783.745 1146.96 781.939C1148.19 780.789 1150.01 780.352 1150.61 781.939L1149.93 788.667C1152.69 789.628 1153.99 790.982 1153.88 792.7C1150.93 792.802 1150.75 793.312 1152.92 794.986Z" fill="#81A92D"/>
<path d="M1164.32 794.031C1160.94 795.225 1156.65 795.05 1152.92 794.977L1118.66 794.409C1125.73 792.924 1132.47 794.322 1139.5 793.71L1152.59 792.574C1150.81 790.084 1148.45 791.613 1146.4 790.405C1148.64 788.497 1148.15 786.546 1147.94 784.289C1148.39 783.474 1149.37 782.818 1148.89 782.527C1147.99 781.974 1147.53 781.071 1146.95 781.93C1147.93 780.241 1150.63 779.527 1153.01 779.018C1157.14 778.144 1160.05 776.149 1163.48 774.62C1167.95 772.64 1172.22 771.635 1175.68 768.883C1182.81 772.611 1169.63 773.368 1176.29 777.649C1173.24 784.901 1179.62 787.085 1175.2 788.599C1173.26 789.269 1177.02 789.123 1177.74 789.837L1163.73 791.788C1159.58 792.371 1156.42 792.851 1151.75 793.201C1155.99 794.963 1160.15 792.968 1164.32 794.031Z" fill="#81A92D"/>
<path d="M866.117 794.988C865.532 795.076 864.879 795.833 864.142 795.745C863.121 796.401 861.983 796.983 860.728 797.507C859.054 797.114 857.263 798.323 855.205 796.415C858.904 794.799 862.703 794.129 866.117 795.003V794.988Z" fill="#9C9D9C"/>
<path d="M1264.46 766.38L1262.28 765.317C1261.75 761.764 1260.34 758.342 1258.06 755.051L1258.3 716.754C1258.06 714.599 1257.48 712.473 1256.54 710.391C1261.65 704.828 1266.53 699.193 1271.22 693.485C1270.82 691.257 1274.08 690.281 1274.99 689C1274.11 690.966 1276.59 692.233 1277.4 693.936C1279.47 698.363 1277.03 703.314 1278.2 707.799C1279.19 711.614 1279.54 714.701 1279.5 718.676L1279.22 755.575C1279.22 756.667 1278.13 757.658 1279.25 757.993C1279.99 758.196 1280.93 757.993 1281.91 759.187C1278.77 761.473 1275.04 761.764 1271.81 763.424C1269.09 764.807 1267.22 766.103 1264.44 766.365L1264.46 766.38Z" fill="#81A92D"/>
<path d="M1264.46 767.769C1261.88 768.017 1259.92 770.477 1257.36 771.278L1250.43 773.419C1248.04 772.749 1246.63 769.036 1246.5 766.924C1245.58 753.295 1245.51 739.578 1245.9 725.948L1244.37 724.376C1246.87 721.667 1248.26 719.425 1248.56 717.663C1256.02 711.328 1262.27 703.931 1268.76 696.461C1269.51 695.602 1270.5 695.223 1271.24 694.859C1271.4 695.806 1272.09 695.995 1270.9 697.408C1266.95 702.082 1261.38 706.669 1258.18 711.794C1260.37 714.255 1260.44 717.022 1260.41 720.022L1260.06 754.241C1259.97 761.711 1263.55 755.741 1264.47 767.754L1264.46 767.769Z" fill="#81A92D"/>
<path d="M1224.59 738.797C1228.81 741.098 1220.67 742.335 1218.45 746.383C1217.61 747.272 1215.45 746.456 1214.88 747.738L1218.06 749.572C1219.2 750.228 1216.59 751.043 1216.57 752.004L1216.42 779.307C1216.42 779.744 1213.61 780.108 1214.2 780.632C1214.5 780.894 1214.4 781.593 1214.9 781.36C1215.15 781.244 1215.99 781.579 1216.27 781.185C1216.87 780.355 1218.63 778.666 1219.27 779.729C1221.78 783.865 1204.52 785.161 1202.33 785.336C1202 785.103 1200.97 784.564 1200.99 783.734L1201.46 759.532C1201.49 758.076 1202.73 756.3 1200.79 756.052C1200.72 754.086 1203.1 753.766 1204.74 752.63L1224.56 738.826L1224.59 738.797Z" fill="#81A92D"/>
<path d="M1134.46 79.0371C1132.02 77.7993 1132.64 76.8674 1131.3 75.2656C1132.8 76.1976 1134.38 77.3188 1134.46 79.0371Z" fill="#DCDDDD"/>
<path d="M879.207 19.5781C895.391 34.7221 910.806 72.5239 917.283 93.4342L925.116 118.728C927.627 119.776 928.999 121.96 929.25 125.295C927.861 126.169 927.526 127.625 928.246 129.649C931.543 137.774 933.685 146.89 934.154 155.597C937.953 161.276 940.229 170.712 938.472 177.105C939.393 179.318 939.727 181.765 939.493 184.429C942.087 189.948 943.694 195.7 944.263 201.641C946.322 215.242 948.18 228.857 949.887 242.501C954.607 280.506 959.259 321.716 958.406 359.852C958.322 363.827 957.452 367.745 956.414 371.618C957.067 398.28 957.067 425.962 956.414 452.638C957.452 456.002 958.322 459.424 958.439 462.919C960.063 510.317 953.301 559.578 946.489 606.554C945.736 609.99 944.246 613.237 942.589 616.412C941.92 618.64 942.255 620.562 943.577 622.178L939.275 644.603C937.15 650.937 935.543 657.592 934.472 664.567L933.267 665.018L933 667.5L932.146 669.591C933.217 674.221 932.848 679.594 928.53 683.177C927.041 690.472 923.961 697.447 922.02 704.582C919.509 703.126 922.388 700.388 921.919 698.408C920.831 693.777 920.882 689.758 921.032 685.157C921.133 681.88 919.777 678.546 923.559 675.881C922.99 674.338 920.965 673.639 920.882 672.226L920.513 629.459C920.513 627.857 919.509 567.776 920.43 572.669C919.995 570.383 923.124 567.587 919.342 565.461L915.224 583.255C914.086 581.115 915.091 579.382 914.655 577.751C919.509 551.089 923.409 524.543 925.601 497.022C932.597 409.274 930.07 298.868 909.701 213.203C904.178 203.942 900.747 192.263 900.312 181.808L897.567 180.192C895.592 172.678 892.83 165.412 889.265 158.408L889.851 155.612C889.014 155.801 888.328 155.903 888.228 155.743C884.964 150.457 879.926 141.298 877.6 135.779C877.298 135.066 878.37 134.308 879.391 134.76C879.508 133.741 880.612 134.687 881.75 134.92C883.977 133.056 881.717 130.741 881.7 128.28L881.432 29.8877C881.432 28.5335 878.52 27.6743 879.441 26.0289C881.734 21.9371 875.826 20.1023 879.173 19.5927L879.207 19.5781Z" fill="url(#paint5_linear_290_379)"/>
<path d="M872.328 132.006L873.215 133.812C826.468 172.735 811.506 231.418 799.421 284.873L798.668 288L798.168 293C801.599 294.078 799.683 299.121 796.168 299.5L796.426 303.268C798.518 303.4 797.045 304.823 796.744 306.439C793.731 323.942 791.438 347.822 790.668 365.5V361.5C792.007 381.504 791.691 402.244 790.168 422.5C793.097 422.937 793.063 425.253 790.168 425.5C789.984 429.17 790.482 431.933 791.168 435.5C792.273 437.903 791.505 441.177 791.773 443.784C793.246 466.456 795.689 489.026 799.103 511.509L798.484 515.441C799.288 516.81 799.589 518.324 799.421 519.97C805.765 534.75 811.446 550.759 812.668 566.5L814.168 570C815.758 569.738 814.953 571.27 815.322 572.61C827.088 607.674 843.999 644.906 876 669.5L877 670.5L877.114 672.924C872.227 677.758 867.926 683.903 859.909 686.437C853.95 688.33 845.632 688.461 839.975 685.607C809.028 670.012 794.25 610.804 787.555 581.827C781.664 556.286 779.555 530.949 775.622 505.641C775.304 498.564 774.651 491.618 773.63 484.789L771.722 453.729L770.5 427.3C770.031 405.531 770.065 383.877 770.634 362.341C770.684 333.524 772.224 304.59 776.76 276.049C777.546 274.331 777.848 272.481 777.647 270.487L778.802 260.701C779.622 258.997 779.923 257.163 779.739 255.182C785.798 219.39 790.266 191.141 806.167 156.528C811.204 145.549 817.447 135.312 826.401 126.604C830.502 122.629 834.945 119.983 840 118.003C845.322 115.906 850.144 116.522 855.5 118.502C862.513 121.08 870.406 125.132 873 131L872.328 132.006Z" fill="url(#paint6_linear_290_379)"/>
<path d="M908.218 213.366C907.532 212.958 907.549 211.88 906.193 211.691C849.153 280.975 833.236 368.038 845.957 450.923L847.011 456.398C850.141 472.401 854.258 488.2 859.882 504.116C860.25 505.164 859.765 505.936 859.815 506.577C861.02 508.513 860.936 510.77 859.58 513.319L860.183 521.604C857.706 526.497 857.689 530.924 860.15 534.855C858.526 538.394 857.438 542.092 856.886 545.951L864.451 561.051C866.978 566.585 869.924 571.914 873.305 577.04L872.752 578.176L875.447 578.933C877.439 583.229 880.083 587.204 883.33 590.815L883.096 593.218C883.799 594.951 885.054 596.363 886.393 597.746C888.569 597.208 889.59 599.028 888.653 600.615L891.197 601.067C894.695 605.333 898.31 609.541 902.042 613.662L902.126 618.337C899.816 627.248 896.435 635.505 892.452 643.863C892.151 644.591 891.431 645.552 890.761 645.377C888 644.635 877.154 632.927 874.911 630.16C837.538 584.102 817.939 529.526 810.558 473.959L811.629 471.804L810.876 467.231L808.667 466.503C799.763 394.395 802.156 318.908 828.584 249.449L831.312 247.76C831.764 247.541 832.232 247.352 832.701 247.323C834.425 247.221 834.977 257.239 834.91 259.365C833.99 265.044 833.354 270.738 833.554 276.49C833.688 280.218 834.86 286.363 836.852 289.595C837.237 290.207 841.17 279.242 841.555 277.087L843.764 276.417C844.3 274.495 845.036 272.66 846.007 270.942L844.902 268.248C848.149 259.861 851.781 251.604 855.798 243.508L858.275 242.197L860.451 238.513C860.3 237.742 860.183 236.97 860.216 236.213C860.25 235.455 860.3 234.756 860.635 234.159C870.208 216.773 880.903 200.26 894.845 185.509C895.699 183.369 897.021 182.189 898.845 182C902.628 192.295 905.707 202.707 908.235 213.395L908.218 213.366Z" fill="url(#paint7_linear_290_379)"/>
<path d="M878.735 135.286C876.509 131.616 894.786 164.365 889.179 156.138L889.53 158.774C863.437 184.154 845.244 215.345 834.516 247.381L832.139 248.109C830.164 254.457 826.784 260.326 824.942 267.17L817.394 295.172L810.381 336.046C809.444 341.492 807.084 368.489 807.134 373.964L807.636 428.846L809.946 456.746L811.737 467.566L812.49 472.138C819.771 522.608 842.483 593.305 880.358 632.562L889.915 642.479C890.936 643.542 892.058 644.197 893.296 644.226C888.894 653.458 885.43 663.214 877.63 670.932C866.417 663.928 857.831 654.303 849.914 643.848C834.148 623.01 823.804 600.017 815.302 576.122C814.381 573.559 814.448 571.04 812.524 569.38L811.519 564.735C807.017 549.285 801.025 534.214 797.812 518.531C797.692 517.946 797.598 515.4 796.812 514.031C791.456 487.879 791.017 460.838 789.812 434.307C789.125 430.74 788.874 427.128 789.058 423.459L789.51 420.765C788.975 400.597 788.724 379.585 789.828 359.504L790.448 346.88C791.033 334.837 792.841 323.232 793.912 311.247C794.197 308.015 795.77 304.913 794.983 302.001L796.004 297.429C796.607 295.798 797.243 292.9 796.925 291.196L798.046 285.721C799.67 275.586 801.845 265.422 804.507 255.084L808.691 238.862C814.181 217.573 822.583 197.595 833.445 177.82C839.437 166.899 846.466 157.245 854.55 147.445C858.232 142.974 862.668 139.072 867.12 135.155C869.195 133.32 871.923 132.33 872.81 130C873.664 131.908 877.028 133.888 878.718 135.286H878.735Z" fill="url(#paint8_linear_290_379)"/>
<path d="M911.676 589.573C910.571 599.417 906.086 608.722 903.642 618.187C901.851 611.517 893.901 607.906 890.186 600.465C889.684 597.436 888.713 594.408 887.324 591.408L889.014 585.394C887.876 579.22 888.027 573.177 889.449 567.236C885.784 562.867 885.483 560.377 888.546 559.766C888.679 560.071 889.533 560.173 889.901 560.683C896.546 570.891 903.826 580.428 911.693 589.559L911.676 589.573Z" fill="#5D7F15"/>
<path d="M1401.07 118.431C1402.06 118.781 1413.76 129.746 1413.83 132.949C1415.84 131.187 1411.98 133.167 1415.03 132.949C1416.53 134.658 1416.03 132.949 1417.58 135.337C1418.05 136.298 1418.74 137.05 1419.03 138.156C1419.18 138.724 1419.94 139.545 1420.56 140.172C1425.59 145.254 1428.29 151.297 1432.61 156.553C1439.1 164.446 1443.94 172.425 1449.43 181.133C1450.25 182.356 1453.5 186 1454 186.5C1454.5 187 1456.56 192.938 1454.97 194.327C1454.97 195.783 1449.43 181.133 1449.43 181.133C1453.29 186.259 1452.63 186.419 1455.53 189.156C1458.16 191.646 1457.74 193.154 1458.21 194.327C1458.68 195.5 1458.03 195.656 1461.08 201.636C1517.86 308.532 1523.27 444.813 1479.5 555.802C1468.73 583.134 1455.6 609.053 1438.21 633.444L1434.33 638.89C1420.19 658.723 1405.44 678.046 1386.43 694.457L1379.05 700.82C1357.64 719.27 1335.25 737.341 1308.69 751.043L1297.07 757.028C1293.1 759.066 1289.07 760.93 1285 762.721L1274.46 767.366L1261.91 772.478L1248.03 777.53C1243.16 779.307 1237.67 780.064 1233.05 781.331C1225.19 783.981 1230.34 774.866 1235.33 778.448C1235.76 776.948 1237.34 776.089 1240.03 775.885C1244.43 772.842 1248.08 772.245 1250.99 774.079L1251.33 772.07L1257.74 770.06C1260.85 767.381 1263.26 766.842 1265.02 768.444L1265.61 766.536L1273.1 763.158C1277.79 762.343 1279.23 760.93 1277.4 758.906C1278.51 738.243 1278.07 717.173 1276.07 696.699C1273.71 694.69 1273.54 692.811 1275.56 691.064C1285.62 676.721 1296.89 663.193 1305.76 647.612C1314.49 632.264 1323.8 617.79 1329.98 601.452C1330.6 599.836 1331.3 598.583 1331.82 597.433C1337.14 590.793 1342.58 584.168 1348.17 577.571L1361.55 560.829C1362.24 561.28 1351.38 578.649 1350.61 579.45C1354.76 574.222 1358.19 568.776 1360.92 563.112C1363.22 553.865 1368.86 543.949 1376.2 536.974C1377.49 537.105 1377.48 537.512 1376.99 538.371C1379.38 533.814 1381.26 529.154 1382.61 524.363L1382.76 518.51C1415.89 437.882 1414.1 347.047 1377.76 267.454L1377.14 261.629C1375.65 258.106 1376.97 256.882 1380.35 259.576L1393.12 288.991C1394.18 290.155 1395.15 289.209 1396.02 286.151C1396.51 237.763 1396.05 189.535 1394.66 141.468C1390.11 140.507 1391.15 135.803 1393.79 136.356C1397.76 137.186 1392.35 138.701 1393.79 135.41C1393.94 133.852 1387.55 122.144 1397.03 122.144C1395.81 119.596 1397.74 128.828 1401.02 130.226C1403.5 129.76 1404.57 131.435 1404.24 135.264C1407.33 130.896 1405.79 126.527 1399.62 122.144L1400.22 120.033C1398.56 120.062 1396.12 116.15 1397.03 115.159C1397.33 114.373 1399.62 116.713 1400.02 117.485C1392.53 118.656 1400.47 116.99 1400.02 117.485L1401.07 118.431Z" fill="url(#paint9_linear_290_379)"/>
<path d="M1350.15 576.927C1353.93 572.442 1357.2 567.288 1360.34 562.453C1361.06 565.904 1358.2 568.7 1355.99 571.627L1350.54 578.893C1350.12 580.218 1349.4 578.922 1349.68 578.398C1350.03 577.714 1349.98 577.262 1350.13 576.927H1350.15Z" fill="#82B813"/>
<path d="M1375.62 536.315C1377.78 532.354 1380.43 527.723 1382.03 523.719C1382.5 526.646 1381.92 529.281 1379.77 531.975C1377.92 534.305 1378.64 537.45 1376.01 539.154C1374.84 538.062 1375.93 537.028 1375.62 536.315Z" fill="#82B813"/>
<path d="M947.711 122.232C955.594 124.562 961.603 129.935 967.595 134.9C965.703 137.361 962.389 138.293 959.159 138.366C959.159 138.803 959.159 139.225 958.975 139.589C958.473 140.696 942.941 149.68 940.498 149.302C942.037 151.646 937.217 153.291 935.543 151.165L934.154 151.005C932.497 143.477 930.573 136.065 928.38 128.77C927.844 127.809 927.359 125.828 928.146 125.071C928.849 124.401 945.954 118.664 947.678 122.246L947.711 122.232Z" fill="#759A26"/>
<path d="M953.251 628.385C963.661 635.52 974.389 643.383 986.189 648.946C981.586 654.61 976.733 660.478 970.423 664.599C969.77 665.255 968.866 665.837 967.845 665.852C966.774 665.852 954.355 660.362 956.146 657.945C956.782 653.489 958.138 638.549 955.895 634.996C951.426 632.811 949.652 630.219 950.573 627.234L953.251 628.399V628.385Z" fill="#759A26"/>
<path d="M967.332 135.255C972.972 139.93 978.362 144.953 982.814 150.559C985.81 146.788 968.319 158.758 971.433 156.006C969.591 157.622 957.507 165.238 955.131 166.592C952.486 168.048 951.147 167.859 951.131 166.024C956.654 161.859 959.382 155.044 957.29 148.696L958.612 143.89C955.884 141.677 957.608 138.75 961.005 139.536C961.139 139.566 958.512 140.148 958.896 138.721L962.411 136.377C964.102 135.255 965.675 134.6 967.332 135.27V135.255Z" fill="#759A26"/>
<path d="M956.146 657.922C955.995 659.567 955.141 660.062 953.535 660.033C954.321 664.693 953.769 668.959 951.861 672.847C954.472 672.119 955.911 672.644 956.196 674.376C954.924 674.697 953.869 677.274 951.878 676.837C946.89 680.288 937.986 676.328 933.936 673.619C931.944 675.352 931.258 672.338 932.346 670.532L933.969 668.042L937.835 646.942C938.103 646.637 938.522 646.447 939.007 646.331C941.015 645.879 954.187 653.903 956.229 655.694L956.179 657.922H956.146Z" fill="#759A26"/>
<path d="M956.146 657.914C956.146 657.914 969.234 665.137 970.423 664.583C970.54 665.937 957.066 675.548 956.179 674.369C954.857 673.786 952.598 675.111 951.075 674.587C948.029 673.568 951.024 670.801 951.443 669.257C952.33 665.981 950.673 662.472 951.727 659.356C952.179 658.001 955.008 658.162 956.146 657.929V657.914Z" fill="#759A26"/>
<path d="M932.329 670.529C932.865 671.068 931.493 674.373 933.702 672.058C936.212 673.456 948.782 678.305 951.861 676.849C951.794 678.334 950.171 678.931 948.347 679.295C943.794 680.198 929.467 687.042 928.53 683.227C929.467 678.669 930.706 674.053 932.145 669.641C933.083 669.772 933.133 670.063 932.313 670.543L932.329 670.529Z" fill="#759A26"/>
<path d="M947.71 122.22C946.054 122.046 944.112 121.784 942.137 122.483L929.216 126.997C927.76 124.652 928.145 127.972 928.413 128.744C929.266 129.123 929.199 129.428 928.262 129.661C927.476 126.21 926.203 122.25 925.116 118.74C925.166 117.444 924.764 116.294 925.4 114.328L946.455 120.633C947.326 120.895 947.543 121.784 947.694 122.22H947.71Z" fill="#759A26"/>
<path d="M1051.65 132.012C1050.78 132.259 1050.09 133.206 1050.39 134.007C1049.71 134.079 1049.74 133.264 1049.35 133.06C1049.45 131.997 1049.12 131.007 1049.54 129.391C1051.03 129.959 1051.28 131.022 1051.63 132.012H1051.65Z" fill="#232323"/>
<path d="M1054.59 667.815C1054.54 668.602 1052.9 668.777 1052.3 668.747L1053.64 664.219C1053.67 665.398 1052.9 667.364 1054.59 667.815Z" fill="#AFB0AF"/>
<path d="M1231.92 426.541V377.92C1232.47 377.76 1232.67 378.284 1232.67 378.939V425.521C1232.67 426.162 1232.47 426.701 1231.92 426.541Z" fill="white"/>
<path d="M1250.43 773.415C1248.27 774.084 1245.46 773.924 1243.43 775.278C1240.57 777.186 1237.91 777.71 1234.78 777.797L1234.63 733.094C1238.16 731.317 1239.94 729.133 1241.79 726.556C1241.02 726.279 1240.47 726.366 1239.9 726.381C1242.9 723.949 1245.51 720.279 1248.56 717.688L1249.83 719.289C1250.98 720.745 1245.01 723.104 1246.21 724.065C1246.8 724.546 1248.47 724.779 1249.61 724.386C1251.62 725.667 1247.72 725.988 1247.72 726.687C1247.89 740.112 1247.57 753.203 1248.57 766.745C1248.74 768.973 1250.88 771.143 1250.45 773.429L1250.43 773.415Z" fill="#81A92D"/>
<path d="M1245.26 729.102C1245.38 731.519 1242.75 731.519 1242.87 729.102C1242.93 727.747 1245.18 727.747 1245.26 729.102Z" fill="#81A92D"/>
<path d="M888.528 559.784C886.904 562.478 891.457 564.415 891.473 567.415C891.473 567.589 889.264 573.399 890.888 582.238C891.507 585.616 890.754 588.674 889.298 591.47C889.683 592.257 892.729 603.044 889.298 601.5C888.796 600.481 886.718 599.752 886.5 598.5C885.111 597.175 884.119 595.733 883.5 594C878.663 589.879 876.895 584.286 874 579L873.5 581L869.012 567.779C871.105 566.279 871.372 564.735 869.833 563.148C869.046 553.901 869.012 544.655 869.732 535.394C870 533.093 870.837 531.549 873.565 532.831L886.452 555.503C887.105 556.654 889.231 558.649 888.544 559.799L888.528 559.784Z" fill="#5D7F15"/>
<path d="M873.548 532.804C871.506 533.852 871.741 535.629 871.757 537.638C871.874 545.997 870.201 554.282 871.791 562.655C871.992 563.689 874.368 565.334 873.665 566.383C873.23 567.038 871.289 567.431 870.653 568.203C871.088 571.843 879.958 578.454 874.251 578.046C871.808 575.877 870.619 572.863 868.862 569.877L865.213 563.718C862.217 558.665 860.376 553.073 857.129 547.962C855.489 545.385 856.694 544.016 857.364 541.803C858.1 539.342 857.23 536.794 859.857 534.639C853.196 525.945 862 529.236 859.087 513.801C858.619 511.282 858.734 504.317 858.5 502.002C859.421 501.289 862.669 507.525 863.021 508.326L873.565 532.818L873.548 532.804Z" fill="#5D7F15"/>
<path d="M848.51 456.256C846.468 454.902 847.74 452.631 847.455 450.781C849.179 452.092 848.242 454.436 848.51 456.256Z" fill="#222320"/>
<path d="M900.329 181.82C899.442 186.087 895.274 189.014 892.312 192.698L883.424 203.808L875.977 214.307L871.441 222.287C868.361 227.689 864.897 233.062 861.968 238.348L859.792 242.032C858.62 247.129 855.624 251.774 853.147 256.652C850.67 261.53 849.449 266.219 847.524 270.777C846.57 272.495 845.817 274.33 845.281 276.252C844.963 280.009 837.666 297.57 837.565 297.978C836.645 301.895 836.846 305.622 834.419 309.481C833.314 303.482 835.59 297.832 836.645 291.483C837.097 288.716 830.787 284.144 833.716 263.569C834.134 260.627 834.921 258.53 833.866 255.4C832.996 252.822 835.138 249.531 832.845 247.58L836.427 236.106C837.532 232.567 853.85 200.532 856.143 197.284C863.892 186.305 870.872 175.224 880.345 165.351C883.692 161.871 887.224 159.017 889.885 155.609C895.425 163.749 897.082 172.967 900.346 181.82H900.329Z" fill="url(#paint10_linear_290_379)"/>
<path d="M953.25 628.385C951.627 628.181 950.02 628.472 952.38 629.477C953.217 631.588 956.631 632.724 957.669 634.078C959.744 636.801 958.924 658.017 958.656 658.105C958.071 658.309 956.799 657.77 956.146 657.916C956.012 657.814 940.129 647.358 938.706 647.839C938.321 650.329 934.873 674.152 932.329 670.526L932.162 669.623L933.283 665.051L942.606 616.43C942.857 617.303 942.07 619.808 943.058 620.725C947.309 622.837 949.819 626.011 953.267 628.37L953.25 628.385Z" fill="#759A26"/>
<path d="M941.417 177.084C941.166 177.827 940.765 178.613 939.861 178.846L938.488 177.128C936.798 170.037 934.907 162.872 934.17 155.621C933.417 152.738 933.886 151.238 935.559 151.136L940.514 149.272C947.108 146.229 950.271 153.844 944.112 157.616C949.786 165.858 947.577 171.478 941.417 177.084Z" fill="#759A26"/>
<path d="M935.559 151.126C935.074 152.48 934.019 154.14 934.17 155.611C931.475 147.223 930.22 138.341 928.262 129.662L928.412 128.745C929.283 128.381 929.634 128.686 929.868 129.545L935.559 151.14V151.126Z" fill="#759A26"/>
<path d="M939.86 178.851C939.66 180.715 939.526 182.579 939.509 184.457C939.157 182.317 939.024 179.404 938.488 177.133C939.308 177.337 939.927 178.094 939.86 178.851Z" fill="#4D4E4C"/>
<path d="M958.897 138.719C959.935 139.054 961.257 138.529 962.094 139.272C960.554 140.219 959.416 140.35 959.148 141.136C958.864 141.981 960.989 142.985 960.805 143.728C960.286 145.781 958.562 147.951 959.768 150.281C961.274 153.207 959.399 155.435 958.947 158.042C958.345 161.58 957.592 164.274 952.42 166.124C953.407 167.128 954.244 166.327 955.115 166.59C952.571 168.031 951.299 171.278 947.7 172.196C946.06 174.802 943.616 176.229 941.139 177.467C937.625 177.394 944.336 172.749 944.738 172.065C940.721 166.983 950.177 173.623 941.524 157.853C942.478 155.916 945.642 154.649 945.307 152.479C944.721 150.863 941.608 150.281 940.236 149.654C941.876 146.611 945.926 145.839 949.24 143.859C952.554 141.879 955.014 139.068 958.897 138.719Z" fill="#759A26"/>
<path d="M1202.35 785.331C1200 785.52 1198.06 788.389 1195.2 787.836C1197.69 789.932 1199.7 787.908 1201.66 788.491C1195.77 790.005 1189.38 790.981 1183.13 791.272C1177.24 792.495 1171.32 793.398 1165.36 794.01C1165.02 794.01 1164.64 794.112 1164.32 794.039L1153.56 794.388C1150.83 794.694 1150.76 793.646 1153.34 791.272L1173.09 788.68C1174.66 787.268 1174.78 785.331 1173.46 782.841C1173.91 780.191 1173.56 777.672 1172.35 775.284C1174.08 773.216 1175.18 771.09 1175.68 768.891C1173.99 770.231 1192.19 760.271 1190.56 761.654C1193.64 759.033 1196.99 757.038 1200.81 756.048C1202.46 754.111 1203.35 754.956 1203.92 757.198C1203.72 766.678 1203.18 776.055 1202.35 785.331Z" fill="#81A92D"/>
<path d="M1183.13 791.273C1187.2 793.37 1165.02 793.996 1165.36 794.011C1165.71 791.521 1170.14 793.88 1171.52 793.152C1175.95 790.808 1179.02 791.463 1183.13 791.273Z" fill="#81A92D"/>
<path d="M1196.67 765.268C1197.36 764.671 1198.23 765.05 1198.51 765.516C1199.17 766.608 1196.77 767.612 1196.96 767.671C1196.12 767.379 1196.14 765.748 1196.69 765.268H1196.67Z" fill="#81A92D"/>
<path d="M1223.2 11.6008C1224.52 12.0377 1225.63 12.6201 1226.51 13.3336C1232.04 14.2219 1237.11 16.4789 1242.63 18.0953C1254.68 21.6192 1274.32 29.0747 1285.21 34.346L1295.67 39.4134C1298.35 40.7093 1301.09 42.6897 1303.81 43.8983C1308.12 45.8204 1311.49 47.6989 1315.61 50.0578C1339.59 63.8039 1361.05 79.8362 1380.85 97.776C1382.89 99.6253 1384.43 101.538 1385.82 103.387C1387.21 105.236 1387.56 104.115 1388.33 107.755C1385.13 108.309 1387.97 106.299 1389.17 108.483C1391.68 112.226 1383.68 106.139 1385 103.387C1385.9 101.392 1396.16 113.692 1397.01 114.667C1397.32 117.245 1398.19 118.817 1399.61 119.4C1399.61 119.4 1406.87 126.142 1407.61 129.345C1408.13 131.573 1403.63 138.505 1403.83 138.432C1399.49 140.136 1403.04 133.321 1400.41 129.578C1398.79 129.797 1397.9 128.909 1397.77 126.885C1396.71 126.535 1389.37 127.948 1394.03 129.011C1395.26 131.559 1394.97 133.481 1393.16 134.762C1393.73 135.738 1395.24 135.374 1396.55 136.786C1395.04 138.039 1393.3 136.786 1392.01 138.199C1395.34 138.694 1396.88 140.208 1396.68 142.931C1396.28 148.29 1396.91 153.416 1396.98 158.672L1397.42 195.251V285.824C1397.43 286.217 1391.19 300.05 1392.08 293.716C1392.29 292.231 1392.8 290.731 1392.43 290.28C1392.23 290.047 1391.31 290.047 1390.91 289.668L1377.55 258.987C1376.13 259.322 1376.65 260.283 1376.53 260.967C1372.11 256.905 1368.64 252.085 1366.15 246.478C1355.56 230.097 1343.91 214.283 1331.2 199.066L1330.13 196.197C1329.31 195.979 1328.58 195.935 1327.92 196.066C1326.43 195.499 1327.27 193.897 1326.69 192.557C1317.63 172.258 1306.63 153.561 1293.83 134.777C1270.8 100.994 1242.03 70.9682 1206.33 46.9708C1204.59 45.8059 1186.16 34.3023 1186.45 34.5061C1178.83 28.8708 1132.12 10.1592 1123.18 9.28554C1119.28 8.90694 1115.93 7.29062 1112.34 6.27131C1105.96 4.48024 1092.23 4.81514 1095.3 2.66003L1095.4 1.68441C1098.08 1.9174 1100 1.58248 1101.19 0.679661C1117.69 0.592292 1153.41 -1.57737 1169.86 2.32512C1180.12 4.7569 1191.23 4.08707 1201.38 7.17412C1208.69 9.40203 1216.07 10.2175 1223.18 11.5717L1223.2 11.6008Z" fill="url(#paint11_linear_290_379)"/>
<path d="M1101.22 0.6875C1101.67 1.29908 1101.32 2.42032 1100.05 2.47856L1095.33 2.68242C1093.61 2.75523 1091.23 1.83786 1089.62 2.43488C1089.1 1.8233 1089.74 0.760312 1090.76 0.760312L1101.22 0.702054V0.6875Z" fill="#686968"/>
<path d="M1226.53 13.3316C1225.79 13.2151 1224.92 13.55 1224.07 13.1714C1223.52 12.9239 1222.65 12.3705 1223.2 11.5987C1223.9 11.7298 1224.82 11.2493 1225.78 11.5987C1226.43 11.8463 1226.98 12.5453 1226.51 13.317L1226.53 13.3316Z" fill="#464747"/>
<path d="M410.32 7.78955C413.701 8.44482 417.166 8.70694 420.697 8.57589C431.074 9.34765 441.736 9.97379 452.297 12.2163C456.447 13.09 460.113 15.2742 464.264 14.1821L464.582 15.2596C441.183 25.1615 419.777 37.2039 400.579 54.1535C377.8 74.263 360.126 98.7846 344.343 122.869L341.883 122.971C337.18 124.748 331.924 125.709 326.117 125.869L324.376 124.253C323.707 123.801 322.635 124.034 321.163 124.966C321.832 127.529 318.434 128.097 317.129 125.767C316.091 126.466 314.635 127.034 312.794 127.471L309.463 129.961C70.3759 188.091 32.7345 510.876 222.264 641.173L221.778 643.459L220.808 645.57C216.908 644.711 213.343 642.658 210.079 639.425C209.761 677.693 209.845 715.859 210.347 753.894C208.489 755.743 209.745 757.68 214.096 759.718C228.59 766.067 243.001 772.256 257.311 778.284C257.964 781.211 256.106 781.561 251.754 779.318C247.972 779.231 229.394 771.237 225.276 769.213L216.657 764.99C212.54 762.966 208.724 761.306 204.857 759.223L193.744 753.224C151.818 730.61 117.691 699.506 89.0376 664.34C25.7887 586.713 -1.29174 491.582 0.0472121 396.801C1.23554 313.436 25.3033 230.523 76.7694 160.06C103.348 123.67 136.32 91.766 175.986 66.2833C181.024 63.0506 185.459 60.1383 190.514 57.2114L197.895 52.9595L208.824 47.2513L220.121 41.8199C223.201 40.3346 226.364 38.7183 229.544 37.4077L242.315 32.1364L257.729 26.5011L274.232 21.259L292.107 16.6867C308.627 12.4638 350.687 6.55183 344.193 8.3429L350.469 6.61007C351.774 6.24603 406.471 4.45496 410.354 7.74587L410.32 7.78955Z" fill="url(#paint12_linear_290_379)"/>
<path d="M472.381 11.3582C482.725 10.3826 478.473 15.1151 470.456 16.1926C466.038 17.3284 462.64 19.1777 460.247 21.7406C460.849 23.1385 461 24.5801 461 26.0508C460.782 59.2948 460.699 93.7182 462.105 126.773C466.172 125.419 469.887 127.108 465.167 129.321C464.95 129.758 464.247 130.108 463.059 130.355L463.695 132.365C429.334 148.309 403.843 178.117 386.353 208.449C355.858 261.292 348.327 311.02 342.268 370.795C342.017 373.242 340.996 375.557 339.942 377.799C338.837 393.118 338.787 409.471 339.942 424.804C341.029 427.207 342.067 429.668 342.352 432.259C346.703 473.614 351.557 511.387 366.068 550.718C383.675 598.421 413.818 648.76 465.435 673.486L466.205 675.83L473.352 676.952L491.076 682.907C491.126 684.072 492.214 684.786 494.34 685.033C495.009 683.766 496.633 684.334 496.265 685.732L501.57 686.504C502.156 683.781 509.286 684.261 509.771 686.926C516.868 687.247 524.048 687.319 531.312 687.159C532.015 685.193 533.555 684.567 534.559 686.751L541.957 685.878L543.346 684.014C546.258 683.766 549.271 683.781 552.35 684.058L553.572 681.917L571.464 675.903C572.25 676.733 573.456 676.719 575.096 675.845L574.928 674.52C576.485 673.399 577.924 672.044 579.247 670.443C580 670.399 580.602 670.399 580.652 670.559C582.075 674.185 583.347 679.573 583.063 683.213L584.77 684.203C586.577 691.091 588.218 697.964 589.674 704.822L590.661 704.91C592.837 711.739 594.862 718.612 596.737 725.529C600.486 727.699 601.122 731.383 601.155 735.096C604.653 742.071 607.683 749.104 610.227 756.181C611.599 755.948 612.319 756.632 612.386 758.249L617.407 767.816C619.014 768.515 620.202 770.247 618.495 771.179C614.093 772.009 610.98 775.286 607.063 777.383L596.804 782.887C594.243 784.255 575.213 792.323 573.121 792.832C567.079 794.288 561.689 796.56 555.647 797.681C531.881 802.108 506.508 803.244 483.729 796.909L469.285 792.891C454.439 791.056 439.192 782.712 428.949 773.917C427.292 776.29 421.3 772.024 422.723 769.65C422.12 770.131 421.099 770.772 420.647 770.466C390.721 750.618 364.294 720.491 346.804 690.771C346.402 690.086 346.268 689.271 346.134 688.441C346 687.611 346.034 686.708 346.101 685.82C343.891 684.101 341.766 682.252 340.293 679.995C321.966 652.008 307.472 612.619 298.317 581.268C266.885 473.425 265.228 355.695 290.885 246.789C299.639 209.672 314.618 159.376 336.795 127.181C338 125.433 339.975 124.196 341.85 123.031L346.134 116.58C371.139 78.9092 399.575 44.4274 444.397 22.3958C446.589 21.3183 463.276 14.5326 464.23 14.2414C467.092 13.3677 469.452 12.0862 472.364 11.431L472.381 11.3582Z" fill="url(#paint13_linear_290_379)"/>
<path d="M543.932 7.73926L550.141 8.81682C554.928 10.3603 561.455 9.37016 565.891 12.2097C569.154 14.292 571.966 14.4084 575.598 15.6607C580.301 17.2771 585.222 19.3157 589.64 21.5145L599.331 26.3344L609.357 31.9405C610.729 32.7123 611.566 34.5325 613.357 33.9792L614.813 35.479C605.574 50.4774 597.641 66.7281 592.603 83.6194L589.339 87.0997C588.887 91.672 587.716 96.2734 585.791 100.919C586.511 104.442 585.59 106.452 583.029 106.947C581.874 115.728 579.364 125.688 576.552 134.629C576.485 134.832 575.883 134.905 575.113 134.934C573.473 134.832 572.77 133.828 573.004 131.935C569.322 130.944 566.828 129.401 565.522 127.304C564.401 126.94 563.481 127.071 562.761 127.712C562.175 127.683 552.217 124.945 551.681 124.727C551.363 124.596 551.279 124.057 551.263 123.402C549.17 123.649 548.082 123.227 547.982 122.135C544.852 121.814 541.538 121.552 538.007 121.334L536.768 119.455C532.333 118.887 527.864 118.742 523.362 119.019C522.073 120.708 514.776 121.086 513.906 118.553L511.345 119.033C506.876 119.383 502.374 120.183 497.838 121.436C494.541 122.761 491.612 122.965 489.068 122.047C487.361 122.572 486.256 123.504 485.754 124.843L475.929 126.751C471.896 129.634 468.314 130.493 465.168 129.328C465.302 128.702 466.222 128.44 466.473 127.712L458.339 129.401C461.402 127.552 459.243 125.95 459.243 123.853L458.908 27.7759C458.908 24.8927 459.142 22.8687 457.184 20.6117C462.573 16.8548 470.055 13.6658 477.235 12.8067C475.829 10.5496 473.653 12.3116 472.365 11.336L490.474 7.24417C506.826 3.54554 524.651 5.20555 541.823 6.03556C543.262 6.10837 543.731 7.21505 543.898 7.69558L543.932 7.73926Z" fill="url(#paint14_linear_290_379)"/>
<path d="M221.763 643.48C223.587 641.63 226.081 642.344 229.244 645.606C253.965 660.779 281.447 672.53 311.138 679.068L313.866 681.412C315.121 681.82 316.243 682.388 317.247 683.131C317.481 682.461 317.95 681.471 318.519 681.5C320.511 681.616 337.783 684.194 338.637 684.703C339.34 685.111 339.557 685.956 339.725 686.713C342.687 688.984 339.808 690.295 336.561 690.455C329.8 688.868 323.356 687.892 317.23 687.528L316.695 710.215C318.084 736.761 318.385 763.321 317.615 789.867L316.025 792.808C320.544 792.866 324.611 793.609 328.243 795.051C329.833 797.38 328.561 798.458 324.444 798.298C320.343 797.599 316.293 797.351 311.874 796.376L291.439 791.847C284.978 790.42 255.504 782.673 251.755 779.368C253.078 779.426 254.684 780.984 256.207 779.004C252.676 778.319 249.312 777.431 246.282 775.407C243.872 773.791 240.86 773.485 238.215 772.349L225.01 766.714C221.461 765.199 218.834 763.248 214.917 762.098C211.72 761.151 209.327 758.181 206.314 757.001C206.9 754.788 208.808 753.71 208.741 751.992L208.055 732.727L207.603 644.717L208.206 636.781C214.583 637.99 217.411 645.606 221.779 643.48H221.763Z" fill="url(#paint15_linear_290_379)"/>
<path d="M339.707 686.702C339.305 683.717 344.025 684.678 346.1 685.799C361.95 711.792 380.528 737.275 405.952 756.773L422.722 769.63C425.852 771.902 422.404 774.45 418.973 773.984C417.952 778.076 417.801 783.071 418.638 787.192C418.923 788.619 421.166 796.118 421.584 796.438C422.454 797.108 431.81 795.215 433.668 794.72C434.622 795.739 436.162 796.001 438.304 795.492C439.275 791.545 446.807 795.404 441.702 797.807C439.626 797.603 437.785 797.851 436.145 798.52C424.73 800.341 413.082 800.501 401.064 801.491C398.269 801.724 395.926 803.049 392.729 802.962C384.378 802.714 376.227 802.7 367.892 802.991C364.678 803.107 362.385 801.695 359.574 801.418C347.573 800.239 335.857 800.239 324.443 798.287C333.765 794.531 315.957 795.419 314.417 794.458C312.693 792.332 315.84 790.512 315.823 788.429L315.673 723.732C315.673 718.723 314.501 714.209 314.635 709.229L315.221 685.275C324.058 684.343 339.221 692.148 339.74 686.717L339.707 686.702Z" fill="url(#paint16_linear_290_379)"/>
<path d="M646.43 118.571L646.061 120.61C631.45 128.371 621.743 143.646 616.554 157.509L614.278 158.179L615.282 159.737C607.332 176.818 601.742 194.816 598.177 212.916L595.867 213.848C598.595 216.469 597.223 226.254 592.771 226.662C592.302 226.414 591.934 226.152 591.901 225.846C591.231 220.983 593.139 219.206 591.867 226.152C591.164 230.025 589.909 234.991 588.469 238.355C583.951 240.262 585.256 235.253 586.143 232.821C586.143 232.821 585.825 208.183 585.189 158.892L585.708 119.955C584.787 113.853 584.754 107.694 585.607 101.476C587.716 96.5398 588.972 91.7345 589.357 87.0748C593.775 73.1831 598.729 59.1894 606.445 45.9239L613.391 33.9688C618.429 25.3047 625.207 17.4269 634.094 10.7432C635.952 9.34527 638.848 8.89386 640.505 7.37946C642.463 5.58839 644.572 5.98156 646.379 5.35541C648.02 5.90875 649.693 4.43803 651.936 5.51559C649.961 5.69033 642.865 9.43264 642.865 9.43264C642.178 10.2044 644.053 10.7577 644.053 11.6751L645.007 75.6877C645.124 83.2451 647.317 113.489 642.781 117.115C643.635 118.003 645.141 118.324 646.446 118.557L646.43 118.571Z" fill="url(#paint17_linear_290_379)"/>
<path d="M616.385 645.254C619.029 644.395 619.197 645.298 617.707 647.264C621.105 646.871 622.009 650.758 619.448 652.579C618.661 653.292 617.456 653.656 616.218 654.02C615.649 656.365 617.908 659.583 616.603 661.709C615.464 663.558 616.352 664.126 616.368 665.742L616.971 716.009C617.105 726.726 617.724 737.152 617.222 747.884C617.021 752.369 616.921 755.82 619.264 759.912C620.435 761.95 617.322 766.377 619.498 768.328C621.255 769.901 621.507 771.983 622.578 773.221C623.632 775.041 623.85 775.551 621.875 774.226C621.004 773.25 618.929 772.435 618.511 771.168C618.176 770.178 617.59 768.809 617.423 767.804L611.799 756.417C611.28 718.834 610.862 680.857 610.561 642.458C613.439 640.959 615.013 643.798 615.632 645.997L616.402 645.269L616.385 645.254Z" fill="#81A92D"/>
<path d="M469.285 792.86L452.782 795.583C452.113 796.967 450.406 797.025 449.669 795.656C448.916 796.282 447.812 796.879 446.389 797.447C443.075 798.496 439.426 797.971 436.129 798.496C436.581 796.865 439.359 797.578 441.368 797.447C442.021 796.661 441.87 795.787 441.451 795.743L438.305 795.481L433.217 795.831C433.719 790.589 433.217 785.419 431.677 780.352C426.371 776.988 425.468 774.833 428.949 773.887C425.987 771.848 445.301 782.769 444.832 782.522C448.699 784.618 452.916 785.638 456.716 787.924C460.732 790.341 466.306 789.904 469.302 792.86H469.285Z" fill="#82B813"/>
<path d="M628.018 782.202C625.925 779.552 622.427 777.586 621.858 774.208C622.863 774.747 622.545 773.596 622.561 773.203L627.465 778.853C628.085 779.552 628.787 780.018 628.854 780.79C628.888 781.256 629.29 782.566 628.018 782.217V782.202Z" fill="#799F29"/>
<path d="M317.112 125.772C317.329 126.617 317.179 127.345 316.442 127.578C315.07 128.015 313.831 127.287 312.777 127.476C312.275 126.326 313.764 125.874 314.534 125.801C315.538 125.714 316.358 125.903 317.112 125.758V125.772Z" fill="#2E2E2E"/>
<path d="M727.404 275.231C727.956 277.343 728.257 279.44 728.291 281.537C731.186 307.966 733.379 334.089 734.5 361.159C736.107 399.776 734.282 437.782 733.764 475.933C733.295 480.229 732.944 484.466 732.726 488.674C732.726 489.475 732.559 490.407 732.726 491.194L731.822 501.197C730.182 521.656 728.692 542.232 724.324 562.341L723.32 566.986C717.228 595.003 713.813 617.369 700.892 645.313C695.235 657.545 689.327 669.543 678.23 678.863C676.44 680.377 674.347 682.139 672.071 683.333C664.657 687.221 654.029 687.993 646.464 684.003C632.823 676.81 625.911 663.311 618.664 652.492C618.078 650.905 617.91 648.749 616.923 647.177L617.542 644.701C668.188 591.26 687.436 521.904 695.737 453.96L697.428 450.844C698.834 443.738 699.537 436.355 698.7 429.161C696.624 428.958 696.725 428.055 698.7 427.356C698.817 421.706 699.068 416.012 699.453 410.304C698.532 410.1 698.583 409.809 699.486 409.401C700.407 404.931 700.474 400.417 699.721 395.845C696.658 395.204 696.379 393.969 699.291 393.008C698.956 388.173 698.867 383.526 698.532 378.662L696.407 374.963C691.503 299.724 671.753 217.903 613.291 160.195L613.475 158.098C615.768 146.901 632.957 122.015 645.627 118.491C655.535 115.739 665.945 117.457 673.728 124.141C683.385 132.441 689.963 142.634 695.352 153.657C713.78 191.357 721.228 235.304 727.37 275.217L727.404 275.231Z" fill="url(#paint18_linear_290_379)"/>
<path d="M581.129 665.788C582.05 665.803 583.121 666.051 583.338 666.764C584.845 671.759 584.962 677.816 585.062 683C585.062 683.772 584.025 683.699 582.97 682.956L579.154 670.201L576.945 669.72C574.836 656.979 572.426 644.208 569.715 631.438L568.61 630.943L568.71 621.623C551.455 541.36 548.442 392.264 552.76 308.346C554.835 268.156 558.886 228.899 564.627 189.612L565.614 184.952V182.389C565.078 182.098 565.045 181.777 565.581 181.428C565.882 180.642 565.581 177.839 566.618 181.428C567.271 178.093 567.89 174.191 568.443 169.72C567.639 169.386 567.656 169.08 568.526 168.818L569.715 164.318C568.811 164.056 568.828 163.765 569.715 163.415L570.752 158.916C569.849 158.654 569.865 158.362 570.752 158.013L572.828 149.014C571.907 148.868 571.907 148.563 572.727 148.111L574.552 143C576.309 146.655 576.56 150.805 575.271 155.465C573.347 162.192 573.229 168.701 574.903 175.006C572.962 180.569 572.225 186.131 572.66 191.694C574.853 196.805 575.087 202.222 573.347 207.959C573.28 250.45 573.531 292.605 574.083 334.455C574.702 423.193 575.455 511.436 576.376 599.198C577.765 602.446 578.133 605.606 577.497 608.693C575.137 613.032 574.853 617.677 576.677 622.628L575.79 630.346L580.175 654.154C578.853 657.911 579.171 661.784 581.096 665.774L581.129 665.788Z" fill="#81A92D"/>
<path d="M575.078 675.845C571.681 678.83 557.605 682.966 552.35 684.058C546.96 684.99 545.287 684.655 547.58 679.951L547.295 653.144C549.621 648.906 550.291 644.29 549.303 639.281L550.391 637.796C555.312 632.874 561.304 628.811 566.961 624.516L568.367 624.574C571.112 636.398 573.321 648.265 575.011 660.162C572.518 664.909 572.551 670.137 575.078 675.845Z" fill="#5D7F15"/>
<path d="M601.005 602.03C601.809 601.928 603.047 601.884 603.248 602.365C604.838 606.122 610.529 623.348 610.663 626.566L608.972 628.051C610.495 632.012 609.943 633.468 607.332 632.405C605.524 629.493 604.202 626.333 603.332 622.926C604.637 626.26 604.47 628.823 602.846 630.6C605.039 633.497 605.541 636.963 604.336 640.982C605.307 670.731 605.893 700.524 606.093 730.346C605.959 731.642 605.29 732.938 604.102 734.205C605.424 737.467 606.395 740.787 606.997 744.165C611.114 746.145 612.42 751.941 612.186 756.076C612.135 756.921 611.248 756.877 610.211 756.149C605.156 746.262 599.733 735.967 596.721 725.512C595.733 722.41 594.863 719.003 594.126 715.29C594.88 715.057 595.315 715.392 595.415 716.265C595.599 712.931 595.332 709.538 594.578 706.087C594.16 670.586 594.093 634.764 594.394 598.637C593.909 596.657 593.926 593.337 596.988 593.919C598.947 594.298 600.269 603.894 600.503 605.903C599.834 604.039 599.984 602.743 600.972 602.015L601.005 602.03Z" fill="#81A92D"/>
<path d="M586.394 540.89C585.741 546.598 586.193 552.553 587.716 558.742C588.034 599.267 588.235 640.36 588.319 682.02C589.055 688.078 589.858 694.135 590.712 700.164C591.499 700.542 591.415 700.834 590.528 701.052C591.281 702.275 591.398 704.823 589.674 704.809C586.545 697.921 585.206 690.393 583.063 683.2C586.16 683.622 581.825 672.176 581.222 666.017C579.615 662.464 578.427 656.77 579.967 653.552C578.628 608.834 577.908 564.013 577.774 519.12C579.85 514.606 579.649 509.655 577.172 504.267C577.975 501.326 579.532 499.68 582.427 501.908C584.001 515.014 585.323 528.017 586.394 540.89Z" fill="#81A92D"/>
<path d="M550.375 637.817C552.317 638.997 550.844 641.268 551.245 642.521C552.099 645.244 552.434 649.146 549.404 652.102C549.153 652.35 549.404 680.672 549.572 680.191L548.266 683.686C549.839 684.094 551.095 684.021 552.317 684.065C548.902 684.778 545.689 685.856 541.923 685.899L534.525 686.773C533.772 687.297 532.115 686.744 531.278 687.181L521.286 687.647C517.972 687.166 518.575 685.827 521.018 684.269C524.583 684.312 527.763 683.774 530.542 682.652C529.337 672.212 529.956 661.771 530.927 651.505C534.408 649.67 535.63 648.549 534.559 648.127C533.655 648.695 549.12 637.249 550.358 637.817H550.375Z" fill="#5D7F15"/>
<path d="M531.296 687.186C527.731 689.021 507.378 689.618 509.755 686.953C508.148 685.54 508.868 684.084 511.881 682.584C512.098 675.726 512.115 668.911 511.981 662.14C516.199 659.548 520.299 656.912 524.283 654.233C526.525 651.117 531.446 650.083 534.593 648.117L535.999 648.19C536.584 648.219 536.3 648.831 536.049 649.006C535.647 649.282 535.296 649.894 534.877 649.981C531.597 650.607 533.706 652.937 533.371 654.364C530.425 666.771 532.584 671.823 532.685 684.507C527.965 685.934 524.149 685.526 520.082 686.225C524.216 687.608 527.982 685.526 531.312 687.171L531.296 687.186Z" fill="#5D7F15"/>
<path d="M613.508 638.936C616.52 638.382 619.483 644.061 616.386 645.255C616.386 646.333 618.11 647.629 615.985 648.969C614.478 647.207 615.315 644.44 611.466 643.159C612.336 645.751 613.424 647.178 613.206 649.245C611.817 662.161 612.838 675.543 612.989 689.144L613.625 745.235C613.625 746.414 614.88 753.331 613.022 757.365C615.014 760.437 616.889 764.34 617.424 767.776C614.244 764.34 612.286 760.146 610.244 756.142C613.759 755.792 606.16 746.706 607.03 744.157C605.641 741.405 605.608 738.304 606.93 734.867C605.725 719.869 605.792 704.739 607.148 689.464C606.311 673.942 606.445 658.783 607.583 643.974C605.976 641.586 605.189 634.698 609.759 635.019C612.671 635.222 613.056 642.125 612.805 641.047C612.637 640.29 612.587 639.154 613.508 638.921V638.936Z" fill="#81A92D"/>
<path d="M422.722 769.635L428.948 773.902C426.655 775.998 434.404 779.013 434.555 779.726C434.638 780.076 433.099 780.935 433.35 781.226C434.689 782.697 437.3 793.676 434.203 795.22C436.58 795.336 437.3 795.424 438.287 795.511C431.709 796.996 425.467 799.02 417.818 797.972C420.345 794.026 417.851 791.885 416.981 789.162C416.111 786.439 416.244 782.551 416.027 779.61C415.759 776.028 418.186 772.809 415.508 769.344C419.04 769.853 417.65 772.576 420.144 772.358C421.751 772.227 422.203 771.018 422.705 769.635H422.722Z" fill="#82B813"/>
<path d="M524.282 654.242C525.538 659.746 511.546 657.184 513.688 666.94C514.926 672.575 514.14 679.04 513.839 684.428C511.813 684.967 509.872 685.593 509.755 686.947L501.554 686.525L496.248 685.753L494.323 685.054C489.403 684.166 488.616 682.987 491.947 681.53C496.616 682.652 498.123 681.137 496.499 676.987C494.758 674.06 494.491 671.629 495.729 669.721C498.441 668.294 500.298 666.765 501.336 665.12C501.102 665.207 519.312 656.499 518.96 656.79C520.584 655.451 522.559 654.519 524.299 654.257L524.282 654.242Z" fill="#5D7F15"/>
<path d="M501.336 665.108C502.223 665.458 503.16 665.021 504.633 665.414L496.231 671.69C498.909 675.36 499.428 679.626 498.457 683.98C495.796 683.951 493.989 682.32 491.026 683.733C492.298 684.126 493.52 684.111 494.323 685.043C486.139 684.941 473.268 678.956 466.188 675.855C472.147 676.699 478.206 674.107 483.762 671.545C487.344 669.899 491.779 669.753 494.993 667.627C497.236 666.142 499.261 665.836 501.336 665.094V665.108Z" fill="#5D7F15"/>
<path d="M489.067 122.054C488.666 125.403 488.532 128.708 488.682 131.955L491.36 132.552C494.39 138.304 493.921 140.285 489.988 138.494C488.13 138.028 485.586 137.198 483.477 136.135C478.958 133.878 473.535 133.688 468.832 131.737C466.774 130.892 465.1 129.829 463.075 130.368C463.677 129.757 464.23 129.422 465.184 129.334C467.577 129.101 469.853 127.805 472.046 126.495C477.268 123.393 483.895 124.063 489.084 122.039L489.067 122.054Z" fill="#5D7F15"/>
<path d="M595.448 716.274C593.122 710.464 599.666 730.296 596.737 725.52C594.728 723.452 590.076 708.061 589.674 704.814C590.494 703.823 590.812 702.309 590.527 701.057C592 697.679 594.494 704.77 594.862 706.474C595.766 709.765 595.967 713.026 595.448 716.274Z" fill="#81A92D"/>
<path d="M339.924 424.837C339.338 425.215 339.137 424.443 338.87 423.788V378.88C339.137 378.225 339.322 377.439 339.924 377.832C339.522 393.442 339.405 409.241 339.924 424.837Z" fill="#81A92D"/>
<path d="M541.957 685.897C539.815 685.926 537.12 687.659 534.56 686.771C536.585 685.169 539.397 685.883 541.957 685.897Z" fill="#5D7F15"/>
<path d="M501.553 686.53C499.779 686.442 497.435 687.185 496.247 685.758C498.004 685.933 500.23 685.35 501.553 686.53Z" fill="#949493"/>
<path d="M580.987 123.334C580.518 129.683 580.15 136.002 580.033 142.293C580.016 143.283 579.447 144.055 578.811 144.827C581.171 147.695 580.518 150.972 578.928 153.913C580.686 157.16 580.853 160.67 579.431 164.441C579.447 203.306 579.815 241.777 580.518 279.827L581.456 271.847C585.623 265.731 585.071 276.55 584.418 279.841L585.088 284.952C576.334 358.226 579.364 431.835 585.473 505.152L584.602 510.263C586.008 521.301 587.096 532.338 587.866 543.376L586.393 542.677C585.355 542.677 585.355 542.066 586.393 540.872L581.138 502.502C575.665 502.473 584.016 511.632 580.82 517.063C578.811 520.471 579.832 522.48 579.866 525.844L580.736 598.797L581.405 651.423C581.405 652.515 582.979 653.927 582.075 654.466L579.732 655.879L580.334 663.392C582.092 662.766 580.468 661.223 581.874 660.524C583.263 662.766 581.071 664.368 581.221 666.013C578.928 664.383 579.497 661.558 579.113 658.893C578.56 655.019 573.238 631.095 573.824 628.911C574.794 625.299 575.33 622.605 573.773 618.732C572.987 616.562 573.74 611.553 575.062 609.529C577.69 605.481 574.493 602.656 574.443 599.263L573.539 544.09C573.171 521.563 572.97 499.619 573.171 476.975C573.238 469.433 573.522 462.618 573.388 455.017L572.585 404.546C572.217 381.466 572.033 358.881 572.133 335.714C572.15 329.482 573.188 323.934 572.317 317.789C571.096 309.11 571.966 300.373 571.832 291.534L571.43 264.945C571.146 245.957 570.342 227.187 571.414 208.111C571.681 203.233 574.142 198.908 571.313 193.724C568.485 188.54 573.02 175.348 573.004 175.29L571.263 168.897L575.163 143.793L572.853 148.365C569.79 144.841 571.012 137.546 575.112 134.939L583.029 106.952C583.247 106.224 583.883 104.986 584.887 105.176C585.556 105.307 585.372 110.869 585.238 112.165C584.954 115.136 584.016 120.422 582.962 123.188C582.878 123.407 582.041 123.407 580.987 123.334Z" fill="#81A92D"/>
<path d="M547.982 122.149C554.007 123.62 560.902 123.649 565.522 127.318C565.873 128.687 564.618 128.396 563.296 127.974C562.978 127.872 568.183 128.643 569.321 130.42C569.79 131.148 570.141 141.836 568.601 143.19C571.899 145.229 572.468 148.476 570.325 152.932C569.371 159.732 567.246 174.483 564.585 180.322C564.484 180.555 564.049 180.672 563.53 180.774C562.877 180.992 551.613 172.27 552.367 171.629C550.459 169.78 548.233 167.96 545.672 166.139L547.396 162.732C546.977 150.442 546.743 138.152 546.71 125.877C540.701 124.406 542.709 119.513 547.982 122.149Z" fill="#5D7F15"/>
<path d="M588.468 238.398C588.903 238.558 589.255 238.747 589.372 239.009C589.907 240.218 585.924 264.026 584.551 264.55C580.016 266.283 580.15 258.755 582.259 256.6L581.037 251.78C581.003 212.158 580.769 172.492 580.3 132.783C581.037 129.536 581.254 126.39 580.987 123.318C579.38 127.978 586.778 100.223 583.028 106.936L589.338 87.0888C590.041 86.8849 590.928 87.9042 590.61 88.8507L586.46 101.432C587.916 104.33 588.368 107.053 585.254 109.397C589.004 110.97 586.008 114.028 586.744 115.615C588.301 118.935 587.631 120.973 587.598 124.133C587.43 142.816 586.844 161.12 587.748 179.875C588.217 189.354 588.384 198.135 587.932 207.454C587.614 213.905 587.229 220.254 587.514 226.705C587.648 229.923 589.137 232.529 587.347 235.849C586.911 236.65 587.564 238.485 588.468 238.383V238.398Z" fill="#81A92D"/>
<path d="M536.769 119.473C537.003 119.473 548.987 120.157 547.966 122.152C547.162 122.254 546.192 121.861 544.484 122.779C546.192 124.613 548.284 124.249 551.397 123.958C551.045 126.128 549.422 125.545 548.92 126.055C547.146 127.831 548.836 137.821 548.886 139.466L549.372 154.464C549.506 158.411 551.162 162.954 547.229 166.114C549.121 167.06 550.811 168.502 552.819 170.424C554.761 171.05 554.276 172.069 552.334 171.632C548.284 170.715 545.623 167.293 540.786 164.41L540.434 162.939C536.317 160.915 532.601 158.454 529.287 155.557C528.082 144.65 527.413 133.671 527.279 122.604C523.898 122.647 522.207 121.526 522.241 119.211L536.752 119.473H536.769Z" fill="#5D7F15"/>
<path d="M536.768 119.463C532.399 119.623 528.132 119.332 523.094 119.783C524.935 121.297 526.977 119.899 529.571 120.598C528.935 125.549 529.521 130.005 530.056 134.869C530.776 141.378 529.387 148.12 531.027 154.294C532.667 160.468 547.496 162.74 540.818 164.385L524.968 154.905C522.726 153.566 519.462 153.464 519.127 151.017C518.458 150.056 516.834 149.095 514.24 148.12C510.641 146.634 508.415 144.683 507.562 142.251C508.533 135.844 508.348 129.787 507.026 124.049C503.963 121.88 503.11 120.293 504.465 119.273L513.888 118.531C516.148 118.196 537.069 117.861 536.768 119.433V119.463Z" fill="#5D7F15"/>
<path d="M513.906 118.563C511.495 120.384 508.131 119.393 504.399 119.903C508.566 121.505 510.391 124.592 510.223 128.523L509.604 142.619C510.056 145.371 521.454 150.977 521.169 149.696C521.287 150.22 521.203 150.817 520.634 151.036C520.266 151.181 519.697 150.904 519.127 151.036C515.211 150.744 512.416 147.963 508.784 146.463C506.575 145.546 489.034 138.265 489.972 138.498C491.729 138.717 492.85 138.032 490.926 137.115C489.854 136.503 489.051 135.979 489.453 135.411C489.804 134.916 490.574 134.829 491.16 134.202C489.235 133.707 487.645 134.013 486.859 132.775C484.766 129.514 488.231 128.29 486.139 123.485C487.562 123.034 488.382 122.655 489.051 122.058C496.599 119.117 505.403 118.214 513.889 118.563H513.906Z" fill="#5D7F15"/>
<path d="M565.523 127.305C567.715 129.008 572.201 128.586 574.527 130.756C575.716 131.862 574.862 133.843 575.096 134.92C573.858 139.274 573.121 143.89 572.837 148.346C572.837 148.652 572.954 148.943 572.937 149.249L570.862 158.248V159.151L569.824 163.65V164.553C569.59 166.14 569.205 167.64 568.636 169.053C568.586 169.3 568.72 169.766 568.552 169.955C568.636 172.81 568.033 174.906 566.728 176.261L565.69 181.663C565.757 181.969 565.757 182.318 565.757 182.624C564.686 182.464 564.15 181.313 563.548 180.76L569.958 149.788C570.243 148.433 570.059 146.803 569.305 145.943C568.552 145.084 566.945 144.997 565.422 144.269C568.402 140.876 568.084 137.44 567.13 133.697C566.778 132.27 568.084 130.683 566.778 129.911C565.473 129.139 564.418 128.761 562.46 128.237C563.23 127.174 564.552 127.742 565.506 127.305H565.523Z" fill="#5D7F15"/>
<path d="M317.246 683.138C316.527 683.022 315.64 683.4 314.719 683.007C314.183 682.774 313.296 682.206 313.865 681.42C314.602 681.551 315.506 681.056 316.426 681.435C317.012 681.682 317.832 682.381 317.246 683.138Z" fill="#434343"/>
<path d="M614.427 158C617.474 159.704 619.465 162.427 622.076 165.091C645.776 189.351 661.341 218.62 673.341 248.602C687.919 284.991 699.217 341.155 699.468 378.578C699.769 383.442 700.104 388.276 700.472 393.111C700.472 393.839 700.305 395.135 700.656 395.761C701.409 400.304 701.342 404.818 700.422 409.318C700.422 409.623 700.372 409.915 700.388 410.22C699.987 415.885 699.736 421.564 699.635 427.272C699.669 427.84 699.652 428.524 699.635 429.078C700.539 436.184 699.719 443.61 698.363 450.76C693.225 505.599 680.338 557.015 650.629 606.379C641.525 621.508 630.244 634.599 617.858 647.093C617.524 646.554 616.57 645.666 616.536 645.084C616.436 643.38 613.959 640.453 613.657 638.764C612.737 637.686 611.666 636.696 610.444 635.793C609.457 633.449 609.005 630.813 609.122 627.886L601.155 601.865C600.636 601.836 600.201 601.792 600.117 601.603C599.096 599.389 596.201 592.036 598.996 591.191C600.502 591.235 600.72 590.128 601.724 588.891C624.419 560.67 640.889 529.581 651.115 495.944C668.136 439.911 669.007 380.937 654.529 324.336C644.353 284.569 625.507 247.51 598.293 214.79C597.674 214.033 597.774 213.217 597.021 213.261C596.653 213.29 596.301 213.611 596 213.698L599.916 195.947C600.134 194.928 611.816 158.189 614.411 158.015L614.427 158Z" fill="url(#paint19_linear_290_379)"/>
<path d="M588.468 238.388C588.719 232.534 590.995 227.03 592.033 221.22C592.903 223.302 592.87 225.093 592.786 226.68L590.543 237.485L584.417 279.844C583.848 277.005 585.221 274.049 583.681 270.743L581.02 293.343C580.551 297.289 579.915 300.871 579.915 305.138C579.229 303.463 577.656 300.74 578.241 298.92C579.915 293.678 578.677 289.324 578.559 284.242L577.773 250.168C577.622 243.295 577.388 237.15 577.706 230.277C578.426 214.915 578.275 199.829 577.806 184.379C577.538 175.802 575.932 167.779 578.476 159.173C579.011 157.367 576.149 154.834 577.12 153.028C578.877 149.781 579.145 146.956 575.346 144.233C576.802 143.141 577.89 143.563 578.041 143.01C578.375 141.888 575.128 140.505 581.02 123.352C583.162 124.313 582.342 126.468 582.375 128.652L583.011 203.629C583.078 211.784 583.832 219.472 583.179 227.539C582.995 229.84 583.095 231.704 583.095 234.034L583.145 252.192C583.145 254.1 585.12 255.891 584.016 257.842C582.911 259.793 582.007 262.152 583.932 263.696L587.614 244.78C588.099 242.305 588.401 240.514 588.501 238.417L588.468 238.388Z" fill="#81A92D"/>
<path d="M698.212 450.928C698.564 447.113 699.033 443.385 699.166 439.133L699.154 439.5C698.955 443 698.78 445.098 698.212 450.928Z" fill="#20211E"/>
<path d="M566.728 181.672C565.5 180.5 566.414 177.145 567 175.5C568 172 568 172 568.552 169.964C569.473 168.683 567.313 184.599 566.728 181.672Z" fill="#81A92D"/>
<path d="M570.862 158.273C570.862 155.273 571.062 151.836 572.937 149.273C572.786 152.273 572.736 155.71 570.862 158.273Z" fill="#81A92D"/>
<path d="M569.823 163.664C569.823 162.164 569.07 160.023 570.861 159.164C570.861 160.664 571.614 162.804 569.823 163.664Z" fill="#81A92D"/>
<path d="M568.635 169.07C568.936 167.57 569 166.5 569.823 164.57C569.823 166.07 570.693 168.444 568.635 169.07Z" fill="#81A92D"/>
<path d="M608.972 628.067C609.876 631.023 612.989 636.032 613.507 638.944C613.106 639.876 614.11 641.07 612.604 641.813C612.001 639.483 611.415 637.386 609.792 636.498C606.026 638.93 610.227 642.527 609.558 644.623C608.252 648.715 608.821 652.021 608.888 656.258C609.173 673.018 609.625 689.473 608.604 706.102C608.051 715.232 607.281 724.129 608.788 733.099C609.256 735.866 608.871 737.424 607.348 740.089C606.729 741.181 608.721 743.38 606.997 744.181C604.336 743.103 604.788 739.929 603.382 737.672C601.976 735.415 600.972 733.332 604.034 731.439L603.465 690.682L602.779 648.235C602.712 643.793 601.34 639.876 603.298 635.377C599.8 628.751 600.52 631.605 602.562 627.601C602.963 626.8 601.072 626.116 601.122 625.227C601.256 621.907 600.804 619.053 601.373 615.398C603.415 616.913 604.001 618.733 604.704 620.742L608.62 631.868C609.943 630.266 608.704 629.101 608.955 628.067H608.972Z" fill="#81A92D"/>
<path d="M594.878 575.921C596.1 581.032 597.823 586.201 598.861 591.356L601.003 602.029C600.501 603.369 601.807 605.015 600.334 606.675C598.56 602.583 599.363 598.345 595.731 594.821C597.204 597.923 596.183 600.297 596.083 603.122C595.614 617.173 596.217 630.745 596.3 644.826L596.702 706.377C596.702 708.416 595.095 710.193 598.895 711.241C593.087 715.697 598.761 714.634 595.447 716.265C594.409 713.644 594.074 710.921 593.405 708.11C592.953 706.261 590.593 704.761 591.48 702.125C591.38 701.587 591.212 700.669 590.526 701.048C590.493 700.829 590.627 700.364 590.71 700.16C589.555 659.387 588.752 618.353 588.317 577.056C588.752 567.053 592.183 567.897 593.79 575.789C595.095 582.167 592.936 581.76 593.79 576.328C593.823 576.154 594.292 576.023 594.895 575.906L594.878 575.921Z" fill="#81A92D"/>
<path d="M586.393 542.679C587.431 543.392 588.201 543.392 588.703 542.679C592.101 553.439 592.235 564.885 594.879 575.908C594.293 577.466 595.381 579.257 594.21 581.441C592.251 577.874 593.389 573.957 590.795 570.375C589.724 581.194 590.879 591.052 590.996 601.667L591.9 681.916L591.967 692.793C591.967 695.429 592.218 698.167 590.728 700.147C587.08 693.594 586.008 686.27 586.293 678.61C587.013 659.156 586.226 640.314 586.059 620.801L585.59 562.54C585.573 559.599 585.941 557.313 585.172 554.328C584.653 552.304 586.594 549.712 582.611 548.241C587.783 543.581 582.477 543.086 586.41 540.844C586.494 541.426 586.293 542.081 586.41 542.649L586.393 542.679Z" fill="#81A92D"/>
<path d="M579.246 670.451C579.598 671.689 579.564 673.538 578.46 674.776C577.84 675.475 575.916 675.126 575.079 675.854L571.882 676.057C572.819 672.301 571.079 669.519 570.744 666.112C570.61 664.816 572.284 663.534 571.899 662.311C571.598 661.292 569.505 660.753 569.941 659.05C570.476 658.685 571.815 659.647 572.384 659.617C573.572 659.559 574.008 658.467 573.773 657.317L568.702 631.819C567.48 631.747 566.978 632.941 565.639 632.46C567.715 630.174 569.338 626.592 566.945 624.524C567.848 623.84 568.25 622.733 568.786 621.859L579.23 670.437L579.246 670.451Z" fill="#5D7F15"/>
<path d="M573.188 660.815C573.824 660.218 574.778 660.626 574.996 661.063C575.147 661.369 575.013 661.849 574.996 662.81C574.996 663.247 574.477 663.451 573.925 662.883C573.339 662.286 572.268 661.674 573.172 660.815H573.188Z" fill="#5D7F15"/>
<path d="M588.703 542.68C588.971 548.592 590.494 554.271 590.293 560.78L586.393 542.68C589.188 544.675 585.305 523.458 585.021 522.002C584.201 517.765 584.97 513.979 584.585 510.266C585.774 520.968 588.217 531.773 588.703 542.68Z" fill="#81A92D"/>
<path d="M590.544 237.484C591.096 233.698 590.929 230.102 592.786 226.68C592.586 230.291 592.268 234.223 590.544 237.484Z" fill="#81A92D"/>
<defs>
<linearGradient id="paint0_linear_290_379" x1="1369.09" y1="399.253" x2="1036" y2="400.923" gradientUnits="userSpaceOnUse">
<stop stop-color="#82B813"/>
<stop offset="0.17" stop-color="#82B813"/>
<stop offset="1" stop-color="#81A92D"/>
</linearGradient>
<linearGradient id="paint1_linear_290_379" x1="921.933" y1="402.302" x2="614.789" y2="403.888" gradientUnits="userSpaceOnUse">
<stop stop-color="#81A92D"/>
<stop offset="0.375112" stop-color="#4F6917"/>
<stop offset="0.52" stop-color="#3B500F"/>
<stop offset="0.58" stop-color="#3B500F"/>
<stop offset="1" stop-color="#81A92D"/>
</linearGradient>
<linearGradient id="paint2_linear_290_379" x1="1093" y1="401.308" x2="881.307" y2="402.334" gradientUnits="userSpaceOnUse">
<stop stop-color="#82B813"/>
<stop offset="0.16" stop-color="#81A92D"/>
<stop offset="1" stop-color="#81A92D"/>
</linearGradient>
<linearGradient id="paint3_linear_290_379" x1="1230.87" y1="442.865" x2="959.012" y2="444.892" gradientUnits="userSpaceOnUse">
<stop stop-color="#82B813"/>
<stop offset="0.16" stop-color="#82B813"/>
<stop offset="1" stop-color="#81A92D"/>
</linearGradient>
<linearGradient id="paint4_linear_290_379" x1="1141.9" y1="114.873" x2="956.158" y2="116.054" gradientUnits="userSpaceOnUse">
<stop stop-color="#82B813"/>
<stop offset="1" stop-color="#81A92D"/>
</linearGradient>
<linearGradient id="paint5_linear_290_379" x1="954.236" y1="363.261" x2="883.675" y2="363.905" gradientUnits="userSpaceOnUse">
<stop stop-color="#82B813"/>
<stop offset="0.25" stop-color="#82B813"/>
<stop offset="1" stop-color="#82B813"/>
</linearGradient>
<linearGradient id="paint6_linear_290_379" x1="872.767" y1="401.738" x2="775.224" y2="402.335" gradientUnits="userSpaceOnUse">
<stop stop-color="#5D7F15"/>
<stop offset="1" stop-color="#3B500F"/>
</linearGradient>
<linearGradient id="paint7_linear_290_379" x1="908.52" y1="415.23" x2="806.842" y2="416.65" gradientUnits="userSpaceOnUse">
<stop stop-color="#82B813" stop-opacity="0.509804"/>
<stop offset="1" stop-color="#759A26"/>
</linearGradient>
<linearGradient id="paint8_linear_290_379" x1="889.179" y1="402.066" x2="792.675" y2="402.567" gradientUnits="userSpaceOnUse">
<stop stop-color="#759A26"/>
<stop offset="1" stop-color="#5D7F15"/>
</linearGradient>
<linearGradient id="paint9_linear_290_379" x1="1507.66" y1="449.706" x2="1242.01" y2="451.757" gradientUnits="userSpaceOnUse">
<stop stop-color="#82B813"/>
<stop offset="0.27" stop-color="#82B813"/>
<stop offset="1" stop-color="#81A92D"/>
</linearGradient>
<linearGradient id="paint10_linear_290_379" x1="835.328" y1="233.496" x2="897.588" y2="234.117" gradientUnits="userSpaceOnUse">
<stop stop-color="#759A26"/>
<stop offset="1" stop-color="#759A26"/>
</linearGradient>
<linearGradient id="paint11_linear_290_379" x1="1404" y1="148.149" x2="1109.3" y2="149.509" gradientUnits="userSpaceOnUse">
<stop stop-color="#82B813"/>
<stop offset="1" stop-color="#81A92D"/>
</linearGradient>
<linearGradient id="paint12_linear_290_379" x1="454.857" y1="394.237" x2="1.40151" y2="397.278" gradientUnits="userSpaceOnUse">
<stop stop-color="#81A92D"/>
<stop offset="0.28" stop-color="#92BA3E"/>
<stop offset="0.3" stop-color="#82B813"/>
<stop offset="0.514423" stop-color="#82B813"/>
<stop offset="0.79" stop-color="#8EC026"/>
<stop offset="1" stop-color="#8EC026"/>
</linearGradient>
<linearGradient id="paint13_linear_290_379" x1="612.317" y1="407.383" x2="278.183" y2="409.423" gradientUnits="userSpaceOnUse">
<stop stop-color="#82B813"/>
<stop offset="0.85" stop-color="#82B813"/>
<stop offset="1" stop-color="#82B813"/>
</linearGradient>
<linearGradient id="paint14_linear_290_379" x1="609.38" y1="70.5045" x2="457.878" y2="70.9935" gradientUnits="userSpaceOnUse">
<stop stop-color="#82B813"/>
<stop offset="1" stop-color="#82B813"/>
</linearGradient>
<linearGradient id="paint15_linear_290_379" x1="314.49" y1="719.871" x2="207.608" y2="720.431" gradientUnits="userSpaceOnUse">
<stop stop-color="#82B813"/>
<stop offset="1" stop-color="#82B813"/>
</linearGradient>
<linearGradient id="paint16_linear_290_379" x1="419.026" y1="746.327" x2="314.219" y2="746.602" gradientUnits="userSpaceOnUse">
<stop stop-color="#82B813"/>
<stop offset="1" stop-color="#82B813"/>
</linearGradient>
<linearGradient id="paint17_linear_290_379" x1="645.078" y1="122.691" x2="586.968" y2="123.085" gradientUnits="userSpaceOnUse">
<stop stop-color="#81A92D"/>
<stop offset="1" stop-color="#81A92D"/>
</linearGradient>
<linearGradient id="paint18_linear_290_379" x1="733.733" y1="402.905" x2="619.589" y2="403.811" gradientUnits="userSpaceOnUse">
<stop stop-color="#5D7F15"/>
<stop offset="1" stop-color="#759A26"/>
</linearGradient>
<linearGradient id="paint19_linear_290_379" x1="698.378" y1="403.716" x2="600.846" y2="404.444" gradientUnits="userSpaceOnUse">
<stop stop-color="#5D7F15"/>
<stop offset="1" stop-color="#5D7F15"/>
</linearGradient>
</defs>
</svg>
