<svg width="1440" height="1063" viewBox="0 0 1440 1063" fill="none" xmlns="http://www.w3.org/2000/svg">
<path d="M1438.52 19.8236C1436.84 21.426 1435.19 23.0085 1433.51 24.6301C1435.46 22.9653 1437.42 21.3197 1439.37 19.6549C1441.14 18.0512 1442.92 16.4667 1444.69 14.863L1438.52 19.8236ZM103.291 996.464L102.638 996.727L102.322 996.907L103.157 996.525L103.291 996.464ZM1410.57 45.0685C1408.94 46.7479 1407.31 48.4274 1405.67 50.1068C1407.63 48.325 1409.62 46.5234 1411.62 44.741L1416.63 39.9345C1414.58 41.6399 1412.57 43.3445 1410.57 45.0685ZM1422.97 32.3831C1420.52 34.873 1418.08 37.3821 1415.63 39.8721C1418.66 37.2758 1421.71 34.6988 1424.71 32.1225C1427.27 29.6698 1429.8 27.2371 1432.37 24.8036C1429.24 27.3235 1426.12 29.8433 1422.97 32.3831ZM113.819 991.261L110.212 992.582C109.385 993.042 108.588 993.482 107.761 993.943L111.335 992.506L113.819 991.261ZM119.867 989.026L119.659 989.107L119.465 989.208L119.642 989.147L119.867 989.026ZM1384.39 70.286C1382.77 72.0624 1381.19 73.8189 1379.58 75.5953C1381.5 73.7558 1383.37 71.9169 1385.29 70.0774C1386.96 68.378 1388.58 66.6793 1390.24 64.9799C1388.28 66.7617 1386.33 68.5434 1384.39 70.286ZM1395.83 57.6737C1393.53 60.2002 1391.27 62.7067 1388.97 65.2332C1391.86 62.6197 1394.74 59.9868 1397.63 57.3733C1400.05 54.9033 1402.45 52.4141 1404.87 49.9441C1401.86 52.5012 1398.83 55.0974 1395.83 57.6737ZM1407.42 44.9618C1404.75 47.9028 1402.09 50.8046 1399.45 53.7256C1402.97 50.6936 1406.48 47.7007 1410.02 44.6879C1412.83 41.8227 1415.63 38.9382 1418.44 36.0729C1414.76 39.01 1411.07 41.9862 1407.42 44.9618ZM123.153 986.621L117.785 988.436L114.208 990.398C115.997 989.748 117.772 989.078 119.548 988.409C120.76 987.806 121.971 987.203 123.153 986.621ZM130.999 983.95C129.864 984.337 128.728 984.724 127.579 985.093C126.757 985.494 125.978 985.896 125.169 986.317C126.249 985.911 127.372 985.504 128.452 985.098C129.299 984.735 130.134 984.352 130.999 983.95ZM1359.99 95.5148C1358.48 97.3284 1356.97 99.1228 1355.47 100.936C1357.28 99.0596 1359.11 97.1629 1360.92 95.2862C1362.51 93.5297 1364.06 91.7931 1365.64 90.0366L1359.99 95.5148ZM1370.53 82.9164C1368.39 85.4794 1366.25 88.0424 1364.11 90.6054C1366.84 87.9553 1369.6 85.2854 1372.33 82.6161C1374.59 80.1096 1376.85 77.6031 1379.12 75.0966C1376.26 77.6902 1373.4 80.2837 1370.53 82.9164ZM1381.21 70.2185C1378.73 73.1761 1376.24 76.1337 1373.78 79.0713C1377.12 76.0227 1380.46 72.9741 1383.81 69.9447C1386.46 67.0236 1389.08 64.1418 1391.73 61.2207C1388.19 64.2335 1384.68 67.2263 1381.21 70.2185ZM1391.93 57.5007C1389.22 60.7147 1386.5 63.9094 1383.82 67.1035C1387.62 63.8336 1391.41 60.6029 1395.21 57.333C1398.09 54.1747 1400.99 50.9774 1403.87 47.8191C1399.89 51.0332 1395.94 54.2667 1391.93 57.5007ZM131.761 982.264C129.659 982.9 127.569 983.555 125.48 984.21C124.051 985.011 122.639 985.772 121.197 986.554C123.292 985.84 125.399 985.146 127.463 984.452C128.887 983.71 130.324 982.987 131.761 982.264ZM140.761 979.498C139.025 980.03 137.26 980.583 135.482 981.117C134.27 981.719 133.071 982.341 131.859 982.944C133.643 982.352 135.413 981.741 137.154 981.149C138.391 980.585 139.554 980.042 140.761 979.498ZM148.746 977.039C147.659 977.367 146.541 977.715 145.423 978.063C144.588 978.446 143.796 978.828 142.961 979.21C144.067 978.843 145.16 978.456 146.265 978.089C147.1 977.706 147.929 977.382 148.746 977.039ZM1337.4 120.657C1335.98 122.528 1334.51 124.399 1333.09 126.27L1338.34 120.428C1339.84 118.615 1341.32 116.84 1342.83 115.027L1337.4 120.657ZM1347.05 108.092C1345.06 110.691 1343.05 113.311 1341.05 115.891C1343.63 113.205 1346.22 110.537 1348.8 107.851C1350.94 105.288 1353.08 102.725 1355.21 100.143C1352.5 102.773 1349.78 105.442 1347.05 108.092ZM1356.77 95.4479C1354.47 98.4221 1352.18 101.416 1349.9 104.37C1353.03 101.324 1356.19 98.2592 1359.32 95.2332C1361.81 92.2756 1364.26 89.3187 1366.75 86.3611C1363.42 89.3705 1360.08 92.4192 1356.77 95.4479ZM1366.63 82.7433C1364.14 85.954 1361.65 89.184 1359.16 92.3946C1362.74 89.1281 1366.33 85.8615 1369.94 82.5558C1372.62 79.3617 1375.3 76.1677 1378 72.9929C1374.18 76.2435 1370.41 79.4934 1366.63 82.7433ZM1376.52 70.0189C1373.88 73.4069 1371.26 76.7558 1368.65 80.1239C1372.62 76.7151 1376.63 73.2865 1380.59 69.8585C1383.39 66.5263 1386.23 63.1741 1389.07 59.8219C1384.88 63.234 1380.68 66.6267 1376.52 70.0189ZM140.234 977.968C137.814 978.648 135.423 979.308 133.003 979.988C131.47 980.829 129.919 981.709 128.386 982.55C130.739 981.833 133.048 981.116 135.401 980.398C137.014 979.614 138.646 978.791 140.234 977.968ZM149.74 975.311C147.656 975.907 145.589 976.465 143.505 977.061C142.038 977.804 140.601 978.527 139.134 979.27C141.193 978.635 143.295 977.999 145.342 977.344C146.816 976.679 148.278 975.995 149.74 975.311ZM158.763 972.777C157.119 973.25 155.419 973.705 153.732 974.178C152.495 974.742 151.271 975.326 150.034 975.89C151.739 975.377 153.431 974.845 155.093 974.332C156.325 973.827 157.544 973.302 158.763 972.777ZM167.04 970.43C165.909 970.759 164.821 971.087 163.721 971.396L161.862 972.204C163.157 971.794 164.409 971.386 165.704 970.976C166.137 970.775 166.595 970.612 167.04 970.43ZM1316.62 145.713C1315.3 147.601 1313.96 149.529 1312.64 151.418L1317.51 145.543L1321.79 139.95L1316.62 145.713ZM1325.37 133.162C1323.54 135.798 1321.67 138.454 1319.83 141.07L1327.07 132.98C1329.06 130.38 1331.04 127.781 1333.03 125.181L1325.37 133.162ZM1334.18 120.59C1332.08 123.6 1330 126.59 1327.88 129.581C1330.82 126.519 1333.76 123.457 1336.71 120.395C1338.97 117.422 1341.27 114.448 1343.53 111.474L1334.18 120.59ZM1343.08 107.939C1340.81 111.166 1338.54 114.393 1336.27 117.619C1339.64 114.337 1343.01 111.074 1346.37 107.791C1348.82 104.581 1351.32 101.37 1353.78 98.1603C1350.23 101.426 1346.64 104.693 1343.08 107.939ZM1352.05 95.2682C1349.64 98.6722 1347.24 102.037 1344.86 105.421C1348.6 101.996 1352.38 98.5517 1356.13 95.127C1358.74 91.7589 1361.35 88.3909 1363.96 85.0227C1360 88.4507 1356.02 91.8595 1352.05 95.2682ZM1361.12 82.5564C1358.63 86.0394 1356.12 89.5617 1353.66 93.0248C1357.77 89.4971 1361.87 85.9502 1365.99 82.4225C1368.66 78.9561 1371.38 75.489 1374.09 72.0026C1369.75 75.5144 1365.45 79.0254 1361.12 82.5564ZM148.587 973.752C145.908 974.436 143.26 975.1 140.581 975.784C138.927 976.704 137.272 977.625 135.618 978.546C138.228 977.824 140.826 977.084 143.437 976.362C145.159 975.479 146.895 974.615 148.587 973.752ZM158.629 971.183C156.244 971.785 153.828 972.406 151.443 973.007C149.885 973.81 148.326 974.613 146.738 975.435C149.055 974.796 151.359 974.137 153.676 973.498C155.333 972.714 157.003 971.948 158.629 971.183ZM168.231 968.738C166.225 969.256 164.176 969.774 162.127 970.292C160.635 970.997 159.13 971.682 157.668 972.366C159.692 971.809 161.703 971.233 163.683 970.677C165.171 970.031 166.701 969.385 168.231 968.738ZM177.398 966.358C175.729 966.793 174.102 967.227 172.433 967.661C171.287 968.165 170.128 968.65 168.97 969.135C170.718 968.622 172.435 968.128 174.183 967.614C175.263 967.209 176.331 966.783 177.398 966.358ZM186.087 964.044C185.091 964.312 184.094 964.581 183.128 964.829L181.365 965.518C182.452 965.19 183.553 964.881 184.61 964.573C185.128 964.37 185.599 964.226 186.087 964.044ZM1297.58 170.702L1293.93 176.519L1295.59 174.353L1298.47 170.592L1302.46 164.828L1297.58 170.702ZM1305.48 158.184C1303.8 160.857 1302.11 163.51 1300.44 166.183L1302.23 164.014L1307.17 158.041C1309 155.405 1310.83 152.769 1312.66 150.133L1307.35 156.073L1305.48 158.184ZM1313.36 145.647C1311.44 148.673 1309.52 151.7 1307.64 154.726L1315.88 145.51C1317.96 142.52 1320.07 139.51 1322.14 136.52L1313.36 145.647ZM1321.35 133.068C1319.28 136.331 1317.23 139.554 1315.19 142.797L1324.66 132.939C1326.89 129.733 1329.16 126.506 1331.43 123.279L1321.35 133.068ZM1329.4 120.45C1327.23 123.831 1325.08 127.231 1322.91 130.612L1333.49 120.328C1335.87 116.944 1338.23 113.58 1340.61 110.196C1336.89 113.601 1333.15 117.026 1329.4 120.45ZM1337.54 107.772C1335.28 111.271 1333.03 114.79 1330.79 118.269C1334.68 114.725 1338.53 111.201 1342.42 107.658C1344.87 104.175 1347.36 100.692 1349.84 97.1902C1345.72 100.718 1341.62 104.265 1337.54 107.772ZM1345.78 95.0541C1343.45 98.6514 1341.11 102.229 1338.81 105.807C1343 102.2 1347.21 98.5541 1351.4 94.9474C1353.93 91.386 1356.49 87.8046 1359.02 84.2431C1354.61 87.8532 1350.2 91.4633 1345.78 95.0541ZM156.694 969.559C153.861 970.207 151.04 970.873 148.207 971.52C146.462 972.501 144.734 973.442 142.989 974.423C145.784 973.718 148.61 972.993 151.392 972.269C153.158 971.385 154.911 970.482 156.694 969.559ZM167.328 967.098C164.654 967.723 161.981 968.349 159.294 968.955C157.602 969.818 155.922 970.7 154.23 971.563C156.836 970.9 159.484 970.236 162.077 969.554C163.85 968.748 165.58 967.943 167.328 967.098ZM177.552 964.741C175.185 965.303 172.762 965.846 170.351 966.409C168.755 967.154 167.171 967.918 165.588 968.682C167.9 968.101 170.212 967.52 172.438 966.941C174.12 966.195 175.858 965.467 177.552 964.741ZM187.446 962.407C185.384 962.907 183.322 963.406 181.248 963.885C179.791 964.511 178.334 965.137 176.877 965.763C178.987 965.205 181.053 964.647 183.163 964.089C184.572 963.522 185.994 962.975 187.446 962.407ZM197.068 960.059C195.459 960.454 193.85 960.849 192.242 961.243C191.113 961.708 189.96 962.135 188.862 962.58C190.489 962.146 192.115 961.712 193.742 961.278C194.852 960.853 195.975 960.446 197.068 960.059ZM205.608 957.981L203.179 958.583C202.587 958.806 201.983 959.01 201.391 959.233C202.241 959.006 203.06 958.799 203.898 958.552L205.608 957.981ZM1280.35 195.528L1277.03 201.457L1281.22 195.398L1284.87 189.581L1280.35 195.528ZM1287.31 183.102C1285.8 185.772 1284.31 188.461 1282.8 191.131L1289.01 182.978C1290.65 180.326 1292.34 177.673 1294.02 175L1287.31 183.102ZM1294.33 170.636C1292.62 173.66 1290.89 176.722 1289.19 179.745L1296.81 170.52C1298.7 167.513 1300.63 164.487 1302.51 161.461L1294.33 170.636ZM1301.42 158.091C1299.57 161.351 1297.74 164.59 1295.88 167.849L1304.73 157.962C1306.77 154.72 1308.79 151.516 1310.83 148.274L1308.46 150.743L1301.42 158.091ZM1308.55 145.527C1306.61 148.923 1304.67 152.32 1302.77 155.716L1307.86 150.422L1312.65 145.424C1314.78 142.044 1316.92 138.683 1319.07 135.283L1308.55 145.527ZM1315.75 132.941C1313.75 136.436 1311.74 139.931 1309.75 143.445L1320.64 132.846C1322.86 129.348 1325.1 125.868 1327.32 122.37C1323.46 125.894 1319.61 129.418 1315.75 132.941ZM1323.06 120.257C1320.99 123.85 1318.92 127.443 1316.83 131.017C1320.8 127.395 1324.73 123.792 1328.7 120.169C1330.99 116.592 1333.29 113.015 1335.59 109.437C1331.41 113.063 1327.25 116.65 1323.06 120.257ZM1330.46 107.571C1328.31 111.243 1326.19 114.896 1324.07 118.548C1328.34 114.862 1332.61 111.177 1336.85 107.511C1339.19 103.874 1341.54 100.238 1343.92 96.5814C1339.45 100.231 1334.96 103.901 1330.46 107.571ZM164.814 965.386C161.796 966.016 158.778 966.647 155.73 967.298C153.954 968.298 152.222 969.298 150.446 970.299C153.395 969.63 156.332 968.942 159.269 968.255C161.113 967.292 162.97 966.348 164.814 965.386ZM175.746 963.114C172.918 963.703 170.06 964.312 167.232 964.901C165.449 965.823 163.665 966.746 161.882 967.669C164.715 967.022 167.505 966.375 170.326 965.709C172.134 964.825 173.955 963.96 175.746 963.114ZM186.477 960.866C183.851 961.432 181.17 961.979 178.501 962.546C176.783 963.371 175.023 964.196 173.305 965.02C175.949 964.415 178.592 963.81 181.192 963.205C183.009 962.399 184.721 961.632 186.477 960.866ZM197.169 958.559C194.66 959.104 192.193 959.648 189.654 960.213C188.032 960.919 186.454 961.625 184.832 962.331C187.304 961.729 189.775 961.126 192.247 960.523C193.893 959.856 195.553 959.207 197.169 958.559ZM207.634 956.237C205.461 956.699 203.27 957.2 201.11 957.681C199.731 958.228 198.365 958.794 197 959.36C199.061 958.861 201.153 958.342 203.215 957.843C204.679 957.295 206.169 956.785 207.634 956.237ZM217.236 954.122C215.645 954.478 214.054 954.833 212.493 955.169C211.413 955.575 210.376 955.98 209.313 956.347C210.806 955.974 212.28 955.639 213.773 955.266C214.909 954.879 216.1 954.51 217.236 954.122ZM225.51 952.301C224.867 952.447 224.225 952.593 223.582 952.74C223.051 952.923 222.52 953.106 221.958 953.31C222.662 953.124 223.335 952.957 224.007 952.791C224.496 952.609 224.996 952.445 225.51 952.301ZM1264.83 220.249L1261.88 226.211L1265.68 220.158L1269 214.23C1267.62 216.236 1266.24 218.242 1264.83 220.249ZM1270.95 207.875C1269.63 210.562 1268.31 213.248 1266.99 215.935L1272.66 207.771L1277.16 199.742C1275.05 202.48 1273 205.177 1270.95 207.875ZM1277.06 195.482C1275.54 198.522 1274.06 201.561 1272.57 204.581C1274.9 201.528 1277.23 198.457 1279.56 195.385C1281.27 192.361 1282.96 189.319 1284.67 186.296C1282.13 189.371 1279.57 192.427 1277.06 195.482ZM1283.22 183.029C1281.62 186.285 1279.98 189.54 1278.38 192.795C1281.1 189.523 1283.81 186.25 1286.52 182.959C1288.34 179.719 1290.17 176.48 1291.98 173.222L1283.22 183.029ZM1289.47 170.517C1287.76 173.93 1286.04 177.342 1284.36 180.735L1293.55 170.454C1295.46 167.077 1297.36 163.681 1299.3 160.284L1289.47 170.517ZM1295.78 157.965C1294 161.476 1292.25 164.967 1290.49 168.497L1300.68 157.889C1302.66 154.414 1304.62 150.92 1306.63 147.425L1304.61 149.382L1295.78 157.965ZM1302.16 145.392C1300.35 148.981 1298.52 152.551 1296.71 156.141L1304 149.042L1307.81 145.324C1309.85 141.751 1311.89 138.177 1313.93 134.604L1302.16 145.392ZM1308.63 132.74C1306.76 136.389 1304.87 140.057 1303.04 143.686L1315.06 132.68C1317.15 129.047 1319.27 125.395 1321.37 121.723C1317.11 125.409 1312.87 129.075 1308.63 132.74ZM1315.19 120.048C1313.25 123.775 1311.34 127.483 1309.43 131.19C1313.76 127.465 1318.05 123.74 1322.38 120.014C1324.52 116.323 1326.69 112.611 1328.85 108.9C1324.3 112.609 1319.74 116.319 1315.19 120.048ZM172.89 961.213C169.675 961.808 166.473 962.422 163.228 963.036C161.391 964.077 159.585 965.097 157.749 966.138C160.883 965.486 164.047 964.814 167.181 964.162C169.099 963.179 171.016 962.195 172.89 961.213ZM184.213 959.072C181.2 959.644 178.144 960.217 175.132 960.789C173.288 961.752 171.474 962.694 169.63 963.657C172.605 963.027 175.562 962.436 178.524 961.787C180.406 960.882 182.3 959.997 184.213 959.072ZM195.272 956.993C192.461 957.543 189.595 958.074 186.772 958.604C184.951 959.469 183.1 960.354 181.278 961.219C184.106 960.63 186.904 960.061 189.676 959.454C191.536 958.647 193.382 957.82 195.272 956.993ZM206.354 954.817C203.629 955.365 200.935 955.893 198.198 956.422C196.443 957.189 194.687 957.956 192.902 958.742C195.644 958.155 198.36 957.529 201.102 956.941C202.865 956.252 204.603 955.525 206.354 954.817ZM217.307 952.642C214.815 953.148 212.354 953.634 209.862 954.14C208.246 954.787 206.642 955.454 205.026 956.102C207.522 955.538 210.001 955.013 212.498 954.449C214.14 953.84 215.695 953.232 217.307 952.642ZM227.824 950.533C225.712 950.955 223.6 951.377 221.488 951.799C220.054 952.327 218.662 952.855 217.241 953.402C219.371 952.941 221.531 952.46 223.648 951.98C225.034 951.511 226.408 951.022 227.824 950.533ZM237.54 948.592C235.967 948.908 234.394 949.225 232.777 949.542C231.642 949.929 230.549 950.316 229.413 950.703C231.194 950.306 232.889 949.91 234.657 949.493C235.671 949.185 236.599 948.879 237.54 948.592ZM246.723 946.698C245.804 946.888 244.929 947.076 244.054 947.265L243.26 947.511C244.342 947.241 245.407 947.011 246.503 946.76L246.723 946.698ZM1256.28 232.505L1252.85 240.576C1254.55 237.884 1256.26 235.191 1257.93 232.499L1259.91 228.44L1261.9 224.401C1260.04 227.115 1258.16 229.81 1256.28 232.505ZM1261.52 220.184C1260.23 223.24 1258.92 226.276 1257.64 229.293C1259.77 226.244 1261.89 223.194 1264.02 220.145C1265.5 217.106 1267.02 214.066 1268.5 211.027C1266.2 214.079 1263.86 217.131 1261.52 220.184ZM1266.82 207.803C1265.43 211.055 1264.05 214.307 1262.67 217.559C1265.17 214.289 1267.64 211.04 1270.14 207.771C1271.75 204.535 1273.35 201.28 1274.95 198.025C1272.23 201.297 1269.52 204.57 1266.82 207.803ZM1272.14 195.402C1270.68 198.792 1269.25 202.18 1267.78 205.57C1270.63 202.159 1273.44 198.768 1276.27 195.338C1277.95 191.946 1279.63 188.553 1281.32 185.161C1278.26 188.575 1275.2 191.988 1272.14 195.402ZM1277.55 182.923C1276.02 186.43 1274.5 189.937 1272.98 193.443C1276.15 189.93 1279.31 186.398 1282.43 182.886C1284.18 179.395 1285.91 175.885 1287.66 172.394C1284.31 175.89 1280.93 179.407 1277.55 182.923ZM1283.04 170.383C1281.45 173.989 1279.9 177.574 1278.33 181.14C1281.79 177.544 1285.25 173.949 1288.74 170.334C1290.52 166.764 1292.34 163.175 1294.12 159.606L1283.04 170.383ZM1288.56 157.824C1286.93 161.488 1285.33 165.133 1283.72 168.777L1295.01 157.782C1296.84 154.154 1298.67 150.525 1300.53 146.877L1292.96 153.805L1288.56 157.824ZM1294.18 145.205C1292.53 148.908 1290.87 152.612 1289.24 156.276L1292.38 153.386L1301.4 145.151C1303.28 141.464 1305.19 137.756 1307.07 134.068L1294.18 145.205ZM1299.96 132.505C1298.24 136.249 1296.55 140.011 1294.85 143.774C1299.19 140.009 1303.55 136.263 1307.87 132.519C1309.8 128.772 1311.73 125.025 1313.7 121.278C1309.11 125.007 1304.53 128.756 1299.96 132.505ZM180.808 957.062C177.481 957.619 174.125 958.197 170.798 958.754C168.932 959.815 167.065 960.875 165.198 961.935C168.517 961.3 171.805 960.685 175.094 960.069C176.998 959.067 178.903 958.064 180.808 957.062ZM192.618 955.069C189.378 955.625 186.137 956.181 182.884 956.718C181.01 957.701 179.166 958.664 177.292 959.646C180.464 959.052 183.623 958.439 186.752 957.845C188.72 956.939 190.676 956.014 192.618 955.069ZM204.067 953.12C201.059 953.634 198.009 954.148 194.958 954.663C193.076 955.568 191.194 956.473 189.312 957.377C192.282 956.806 195.277 956.273 198.203 955.702C200.154 954.835 202.117 953.987 204.067 953.12ZM215.551 951.093C212.629 951.606 209.733 952.157 206.799 952.65C204.952 953.476 203.05 954.284 201.203 955.111C204.13 954.54 207.001 953.95 209.928 953.38C211.782 952.631 213.667 951.862 215.551 951.093ZM226.893 949.049L218.779 950.518C216.998 951.246 215.217 951.974 213.424 952.683C216.118 952.155 218.799 951.607 221.493 951.079C223.299 950.389 225.118 949.719 226.893 949.049ZM237.887 947.069C235.486 947.515 233.073 947.941 230.66 948.368C229.018 948.977 227.346 949.607 225.674 950.236C228.092 949.751 230.48 949.285 232.856 948.801C234.553 948.21 236.22 947.64 237.887 947.069ZM248.225 945.215C246.26 945.596 244.269 945.938 242.248 946.301C240.788 946.79 239.311 947.319 237.821 947.829C239.933 947.407 241.99 946.966 244.059 946.545C245.488 946.075 246.857 945.645 248.225 945.215ZM258.487 943.246C256.901 943.543 255.371 943.859 253.815 944.136L250.944 945.056C252.578 944.7 254.225 944.363 255.829 944.027C256.709 943.78 257.62 943.513 258.487 943.246ZM267.715 941.488L265.75 941.869L264.882 942.135C265.641 941.968 266.412 941.82 267.171 941.652L267.715 941.488ZM1251.08 244.768L1248.53 250.801L1251.93 244.735L1254.9 238.735C1253.62 240.759 1252.34 242.783 1251.08 244.768ZM1247.73 244.761L1244.47 253.88C1246.39 250.854 1248.33 247.788 1250.24 244.742L1250.54 244.017L1254.1 235.672C1251.96 238.702 1249.86 241.712 1247.73 244.761ZM1252.13 232.472C1250.96 235.721 1249.79 238.969 1248.62 242.218C1250.91 238.952 1253.18 235.725 1255.45 232.44C1256.84 229.189 1258.2 225.976 1259.59 222.724C1257.12 225.973 1254.63 229.203 1252.13 232.472ZM1256.58 220.124C1255.34 223.53 1254.13 226.915 1252.92 230.3C1255.52 226.913 1258.13 223.486 1260.73 220.099C1262.17 216.729 1263.62 213.321 1265.06 209.952C1262.23 213.323 1259.39 216.734 1256.58 220.124ZM1261.08 207.736C1259.82 211.239 1258.55 214.723 1257.27 218.206C1260.18 214.698 1263.1 211.208 1266.01 207.699C1267.5 204.212 1268.99 200.725 1270.51 197.218C1267.36 200.75 1264.22 204.243 1261.08 207.736ZM1265.61 195.309C1264.27 198.891 1263 202.453 1261.69 206.015C1264.91 202.442 1268.11 198.851 1271.35 195.259C1272.88 191.694 1274.43 188.108 1275.99 184.523C1272.54 188.138 1269.07 191.714 1265.61 195.309ZM1270.29 182.783C1268.91 186.443 1267.56 190.083 1266.22 193.724C1269.73 190.069 1273.25 186.434 1276.76 182.779C1278.33 179.155 1279.93 175.511 1281.52 171.847C1277.79 175.485 1274.02 179.144 1270.29 182.783ZM1274.99 170.236C1273.6 173.935 1272.17 177.655 1270.81 181.334C1274.63 177.617 1278.42 173.938 1282.24 170.221C1283.86 166.537 1285.48 162.853 1287.13 159.15L1274.99 170.236ZM1279.83 157.629C1278.39 161.387 1276.97 165.107 1275.56 168.845L1287.82 157.621C1289.46 153.899 1291.13 150.156 1292.81 146.432L1279.83 157.629ZM1284.73 144.982C1283.26 148.76 1281.79 152.539 1280.35 156.297L1293.45 144.963C1295.14 141.181 1296.87 137.399 1298.6 133.616C1293.97 137.405 1289.33 141.194 1284.73 144.982ZM188.725 952.911C185.244 953.432 181.733 953.973 178.253 954.494C176.386 955.554 174.532 956.634 172.635 957.714C176.034 957.136 179.477 956.557 182.877 955.979C184.825 954.976 186.79 953.933 188.725 952.911ZM200.821 951.088C197.47 951.607 194.105 952.107 190.711 952.627C188.806 953.63 186.871 954.652 184.954 955.635C188.28 955.078 191.637 954.5 194.92 953.943C196.906 952.998 198.866 952.014 200.821 951.088ZM212.746 949.269C209.553 949.766 206.262 950.245 203.027 950.743C201.115 951.668 199.215 952.612 197.303 953.537C200.47 953.001 203.723 952.464 206.834 951.91C208.784 951.043 210.765 950.156 212.746 949.269ZM224.779 947.35C221.556 947.867 218.419 948.383 215.197 948.9C213.32 949.746 211.456 950.612 209.566 951.439C212.677 950.885 215.703 950.332 218.814 949.778C220.79 948.949 222.79 948.159 224.779 947.35ZM236.523 945.455C233.576 945.929 230.63 946.403 227.652 946.897C225.811 947.665 223.926 948.434 222.042 949.202C224.92 948.691 227.829 948.159 230.708 947.647C232.648 946.897 234.601 946.166 236.523 945.455ZM247.906 943.605C245.278 944.035 242.607 944.466 239.936 944.896C238.13 945.586 236.268 946.257 234.462 946.947C237.108 946.478 239.754 946.009 242.344 945.521C244.188 944.889 246.075 944.256 247.906 943.605ZM258.854 941.82C256.588 942.206 254.223 942.573 251.9 942.94C250.203 943.531 248.463 944.122 246.766 944.713C249.166 944.267 251.536 943.841 253.924 943.376C255.543 942.864 257.205 942.352 258.854 941.82ZM269.911 939.936C267.877 940.279 265.843 940.622 263.822 940.984C262.454 941.414 261.055 941.864 259.656 942.314C261.695 941.912 263.746 941.53 265.828 941.128C267.166 940.718 268.56 940.327 269.911 939.936ZM280.244 938.141C278.835 938.377 277.439 938.632 276.03 938.868C275.046 939.156 274.062 939.444 273.078 939.731C274.504 939.456 275.944 939.2 277.37 938.925C278.324 938.657 279.278 938.39 280.244 938.141ZM289.095 936.603L287.919 936.796C287.582 936.879 287.258 936.981 286.952 937.045C287.344 936.98 287.754 936.876 288.146 936.812L289.095 936.603ZM1238.99 269.163L1236.81 275.23C1237.83 273.21 1238.8 271.19 1239.82 269.17C1240.68 267.172 1241.54 265.173 1242.39 263.156C1241.28 265.177 1240.12 267.18 1238.99 269.163ZM1242.28 260.005L1240.45 265.093C1241.97 262.384 1243.49 259.675 1245.03 256.985L1248.44 248.954C1246.74 251.646 1245.06 254.319 1243.34 256.992L1242.28 260.005ZM1239.15 256.96C1238.19 260.205 1237.28 263.449 1236.33 266.694C1238.38 263.471 1240.45 260.209 1242.5 256.966L1245.97 247.241C1243.72 250.486 1241.42 253.733 1239.15 256.96ZM1242.71 244.723C1241.72 248.105 1240.75 251.467 1239.76 254.849C1242.14 251.464 1244.52 248.08 1246.86 244.697C1248.07 241.312 1249.29 237.946 1250.5 234.56C1247.91 237.948 1245.31 241.335 1242.71 244.723ZM1246.32 232.426C1245.31 235.906 1244.26 239.406 1243.24 242.885C1245.91 239.399 1248.61 235.913 1251.31 232.407C1252.55 228.944 1253.81 225.441 1255.07 221.938C1252.15 225.428 1249.24 228.937 1246.32 232.426ZM1250.01 220.051C1248.93 223.629 1247.88 227.187 1246.84 230.764C1249.84 227.196 1252.8 223.627 1255.78 220.039C1257.06 216.497 1258.36 212.916 1259.67 209.354C1256.41 212.927 1253.23 216.479 1250.01 220.051ZM1253.72 207.637C1252.63 211.273 1251.53 214.89 1250.44 218.527C1253.71 214.895 1256.97 211.264 1260.23 207.633C1261.55 204.012 1262.89 200.372 1264.21 196.752C1260.73 200.386 1257.24 204.001 1253.72 207.637ZM1257.53 195.182C1256.4 198.877 1255.29 202.553 1254.17 206.209C1257.71 202.535 1261.28 198.84 1264.82 195.166C1266.18 191.486 1267.55 187.807 1268.93 184.088C1265.14 187.786 1261.32 191.484 1257.53 195.182ZM1261.45 182.628C1260.27 186.382 1259.1 190.098 1257.95 193.833C1261.79 190.095 1265.64 186.357 1269.48 182.62C1270.86 178.901 1272.28 175.162 1273.69 171.424L1261.45 182.628ZM1265.45 170.053C1264.23 173.828 1263.03 177.621 1261.85 181.376L1274.22 170.053C1275.65 166.275 1277.09 162.517 1278.52 158.739L1268.91 167.061L1265.45 170.053ZM1269.56 157.399C1268.3 161.232 1267.05 165.027 1265.85 168.821L1268.37 166.641L1279.05 157.427C1280.51 153.629 1281.97 149.831 1283.46 146.013L1269.56 157.399ZM196.673 948.74C193.038 949.224 189.372 949.729 185.707 950.233C183.81 951.314 181.926 952.413 179.998 953.513C183.565 952.991 187.149 952.429 190.703 951.888C192.699 950.825 194.707 949.782 196.673 948.74ZM209.042 947.069C205.567 947.532 202.061 948.014 198.542 948.477C196.607 949.5 194.629 950.523 192.694 951.545C196.132 951.025 199.612 950.504 203.007 949.984C205.036 949.038 207.039 948.054 209.042 947.069ZM221.265 945.439C217.961 945.899 214.516 946.342 211.127 946.803C209.154 947.768 207.181 948.732 205.238 949.677C208.59 949.158 211.966 948.678 215.232 948.16C217.243 947.253 219.254 946.346 221.265 945.439ZM233.614 943.671C230.237 944.152 226.959 944.65 223.582 945.131C221.645 946.017 219.694 946.884 217.744 947.751C221.083 947.213 224.366 946.656 227.675 946.138C229.694 945.308 231.626 944.481 233.614 943.671ZM245.835 941.905C242.66 942.363 239.485 942.821 236.28 943.299C234.366 944.088 232.463 944.896 230.518 945.704C233.667 945.208 236.834 944.672 239.984 944.176C241.954 943.406 243.882 942.636 245.835 941.905ZM257.766 940.163C254.794 940.599 251.822 941.034 248.837 941.45C246.97 942.18 245.134 942.889 243.254 943.6C246.158 943.126 249.075 942.672 251.966 942.18C253.914 941.508 255.862 940.835 257.766 940.163ZM269.423 938.465C266.726 938.857 263.956 939.27 261.186 939.682C259.385 940.314 257.64 940.963 255.869 941.575C258.571 941.124 261.229 940.674 263.931 940.224C265.727 939.651 267.596 939.057 269.423 938.465ZM281.162 936.629C278.595 937.019 276.07 937.408 273.558 937.817C271.982 938.328 270.493 938.837 268.917 939.348C271.33 938.922 273.713 938.515 276.138 938.108C277.783 937.634 279.5 937.141 281.162 936.629ZM292.29 934.918C290.243 935.242 288.154 935.566 286.095 935.871C284.787 936.261 283.535 936.67 282.227 937.06C284.175 936.718 286.123 936.376 288.04 936.055C289.434 935.663 290.883 935.291 292.29 934.918ZM302.461 933.34C301.082 933.556 299.704 933.772 298.355 933.968C297.432 934.216 296.522 934.483 295.611 934.75C296.861 934.536 298.153 934.322 299.36 934.108C300.399 933.839 301.452 933.589 302.461 933.34ZM1225.09 305.418L1225.06 305.497L1225.13 305.34L1225.09 305.418ZM1228.61 293.377L1226.84 299.417C1227.7 297.419 1228.57 295.44 1229.43 293.442C1230.18 291.406 1230.89 289.371 1231.64 287.336C1230.62 289.356 1229.61 291.396 1228.61 293.377ZM1232.12 281.316L1229.79 289.35C1231.12 286.682 1232.45 284.015 1233.82 281.328L1236.71 273.227C1235.14 275.937 1233.62 278.646 1232.12 281.316ZM1233.49 276.468L1232.97 278.247C1234.68 275.224 1236.41 272.181 1238.12 269.157L1241.37 260.078C1239.45 263.104 1237.52 266.131 1235.6 269.158L1233.49 276.468ZM1227.85 281.304L1225.71 290.95C1227.57 287.75 1229.39 284.569 1231.23 281.349L1232.59 276.618L1234.03 271.653C1231.96 274.857 1229.9 278.081 1227.85 281.304ZM1230.55 269.139C1229.8 272.497 1229.05 275.856 1228.3 279.215C1230.45 275.873 1232.59 272.512 1234.73 269.152C1235.69 265.79 1236.69 262.408 1237.65 259.046C1235.3 262.41 1232.94 265.774 1230.55 269.139ZM1233.3 256.914C1232.49 260.391 1231.74 263.866 1230.96 267.322C1233.43 263.859 1235.84 260.397 1238.3 256.934C1239.32 253.454 1240.31 249.994 1241.32 246.515C1238.65 249.981 1235.98 253.467 1233.3 256.914ZM1236.07 244.67C1235.28 248.224 1234.47 251.759 1233.67 255.293C1236.39 251.768 1239.13 248.203 1241.86 244.677C1242.88 241.139 1243.93 237.581 1244.98 234.023C1242.01 237.572 1239.04 241.121 1236.07 244.67ZM1238.92 232.327C1238.07 235.94 1237.24 239.573 1236.4 243.186C1239.42 239.578 1242.44 235.97 1245.49 232.342C1246.54 228.726 1247.64 225.109 1248.7 221.492C1245.44 225.123 1242.19 228.715 1238.92 232.327ZM1241.82 219.945C1240.94 223.636 1240.08 227.289 1239.23 230.96C1242.56 227.289 1245.85 223.638 1249.16 219.947C1250.27 216.272 1251.34 212.616 1252.48 208.921C1248.91 212.615 1245.37 216.29 1241.82 219.945ZM1244.81 207.502C1243.92 211.233 1243.01 214.945 1242.15 218.655C1245.74 214.941 1249.31 211.247 1252.9 207.513C1254.02 203.798 1255.15 200.084 1256.3 196.349C1252.49 200.067 1248.64 203.804 1244.81 207.502ZM1247.88 195.04C1246.93 198.81 1246.03 202.541 1245.12 206.311C1248.99 202.553 1252.84 198.816 1256.71 195.058C1257.85 191.304 1259.07 187.53 1260.24 183.756C1256.14 187.497 1252 191.259 1247.88 195.04ZM1251.09 182.458C1250.11 186.267 1249.14 190.077 1248.15 193.868L1260.59 182.505C1261.79 178.711 1262.99 174.917 1264.22 171.103L1251.09 182.458ZM1254.43 169.815C1253.4 173.665 1252.39 177.495 1251.39 181.324L1264.66 169.851C1265.89 166.037 1267.11 162.204 1268.4 158.351L1254.43 169.815ZM1217.2 329.262L1217.2 329.321L1217.22 329.223L1217.2 329.262ZM1219.86 317.37L1218.51 323.443C1219.25 321.466 1219.95 319.49 1220.68 317.493C1221.27 315.48 1221.86 313.466 1222.45 311.453C1221.61 313.412 1220.74 315.391 1219.86 317.37ZM1222.52 305.4C1221.93 308.075 1221.34 310.75 1220.72 313.445C1221.89 310.8 1223.02 308.155 1224.18 305.491C1224.96 302.832 1225.75 300.135 1226.51 297.457C1225.21 300.104 1223.86 302.752 1222.52 305.4ZM1225.18 293.372L1223.19 302.393C1224.71 299.411 1226.23 296.43 1227.73 293.429C1228.61 290.399 1229.49 287.369 1230.37 284.34C1228.63 287.383 1226.91 290.387 1225.18 293.372ZM204.431 944.611C200.642 945.059 196.938 945.505 193.149 945.953C191.265 947.053 189.324 948.134 187.44 949.233C191.148 948.728 194.869 948.242 198.577 947.737C200.513 946.715 202.465 945.653 204.431 944.611ZM217.276 943.069C213.616 943.515 209.912 943.961 206.239 944.388C204.304 945.411 202.382 946.452 200.447 947.475C204.039 946.991 207.631 946.507 211.18 946.024C213.196 945.058 215.242 944.073 217.276 943.069ZM229.832 941.551C226.344 941.994 222.788 942.399 219.244 942.824C217.24 943.809 215.224 944.774 213.251 945.739C216.727 945.276 220.246 944.813 223.623 944.332C225.689 943.444 227.761 942.497 229.832 941.551ZM242.468 939.953C238.979 940.397 235.564 940.819 232.089 941.282C230.078 942.189 228.037 943.116 226.026 944.023C229.476 943.521 232.883 943.021 236.346 942.539C238.382 941.671 240.431 940.822 242.468 939.953ZM254.931 938.359C251.645 938.78 248.316 939.201 244.987 939.622C243.011 940.451 241.006 941.299 239.017 942.109C242.308 941.629 245.642 941.15 248.933 940.67C250.916 939.92 252.93 939.149 254.931 938.359ZM267.161 936.807C264.047 937.225 260.878 937.624 257.738 938.004C255.798 938.754 253.858 939.504 251.918 940.254C255.05 939.797 258.194 939.359 261.282 938.902C263.261 938.21 265.183 937.499 267.161 936.807ZM279.445 935.137C276.417 935.554 273.419 935.951 270.391 936.368C268.487 937.039 266.594 937.73 264.659 938.422C267.675 937.986 270.634 937.531 273.637 937.076C275.597 936.423 277.514 935.771 279.445 935.137ZM291.379 933.532C288.67 933.904 285.905 934.259 283.153 934.632C281.37 935.224 279.586 935.816 277.76 936.409C280.56 935.976 283.36 935.544 286.161 935.111C287.951 934.597 289.644 934.064 291.379 933.532ZM302.909 931.971C300.518 932.3 298.128 932.629 295.694 932.959C294.136 933.43 292.621 933.901 291.063 934.373C293.544 933.984 295.995 933.616 298.477 933.227C299.944 932.815 301.398 932.384 302.909 931.971ZM314.388 930.333C312.316 930.618 310.257 930.923 308.198 931.227C306.877 931.598 305.587 931.949 304.267 932.32C306.283 932.016 308.329 931.692 310.302 931.389C311.679 931.037 313.012 930.686 314.388 930.333ZM324.997 928.826C323.575 929.043 322.171 929.22 320.749 929.437C319.857 929.665 318.964 929.893 318.071 930.12C319.669 929.843 321.281 929.584 322.892 929.326C323.595 929.14 324.311 928.973 324.997 928.826ZM1220.08 293.353C1219.55 296.709 1219.04 300.044 1218.54 303.379C1220.46 300.08 1222.39 296.742 1224.3 293.424L1226.51 283.368C1224.36 286.709 1222.21 290.051 1220.08 293.353ZM1221.96 281.259C1221.41 284.731 1220.89 288.164 1220.36 291.598C1222.59 288.177 1224.78 284.757 1226.99 281.317C1227.76 277.861 1228.53 274.405 1229.31 270.948C1226.83 274.392 1224.39 277.816 1221.96 281.259ZM1223.87 269.087C1223.32 272.617 1222.74 276.168 1222.19 279.699C1224.7 276.177 1227.18 272.674 1229.69 269.152C1230.47 265.637 1231.26 262.083 1232.07 258.548C1229.33 262.055 1226.59 265.561 1223.87 269.087ZM1225.8 256.875C1225.21 260.484 1224.63 264.093 1224.06 267.663C1226.84 264.078 1229.62 260.513 1232.42 256.908C1233.24 253.315 1234.05 249.722 1234.88 246.09C1231.86 249.698 1228.83 253.286 1225.8 256.875ZM1227.82 244.603C1227.22 248.252 1226.62 251.9 1226.04 255.528C1229.09 251.901 1232.17 248.253 1235.22 244.625C1236.03 240.973 1236.93 237.301 1237.77 233.629C1234.44 237.281 1231.11 240.952 1227.82 244.603ZM1229.92 232.253C1229.27 235.96 1228.66 239.667 1228.04 243.355C1231.4 239.663 1234.74 235.953 1238.09 232.262C1238.96 228.551 1239.83 224.86 1240.7 221.149C1237.09 224.844 1233.52 228.539 1229.92 232.253ZM1232.1 219.823C1231.43 223.57 1230.76 227.316 1230.09 231.063C1233.72 227.329 1237.34 223.575 1240.94 219.861C1241.83 216.13 1242.72 212.38 1243.64 208.63C1239.83 212.347 1235.95 216.105 1232.1 219.823ZM1234.39 207.372C1233.67 211.178 1233.01 214.925 1232.32 218.711C1236.23 214.933 1240.1 211.176 1243.98 207.418C1244.89 203.648 1245.83 199.858 1246.78 196.069C1242.64 199.83 1238.51 203.592 1234.39 207.372ZM1236.76 194.842C1236.02 198.668 1235.3 202.474 1234.58 206.28C1238.73 202.479 1242.9 198.697 1247.05 194.897C1248.01 191.068 1248.98 187.258 1249.99 183.428L1236.76 194.842ZM1239.27 182.252C1238.46 186.118 1237.7 189.982 1236.95 193.808L1250.26 182.315C1251.25 178.466 1252.28 174.616 1253.3 170.747L1239.27 182.252ZM1210.9 352.945L1210.87 353.16L1210.95 352.75L1210.9 352.945ZM1212.75 341.202C1212.44 343.172 1212.13 345.162 1211.82 347.132C1212.42 345.196 1213.03 343.28 1213.58 341.345C1214.06 339.294 1214.51 337.263 1214.97 335.193C1214.24 337.189 1213.48 339.206 1212.75 341.202ZM1214.58 329.303C1214.16 331.975 1213.78 334.628 1213.35 337.281C1214.32 334.658 1215.32 332.016 1216.29 329.393C1216.89 326.737 1217.48 324.062 1218.07 321.387C1216.94 324.032 1215.77 326.677 1214.58 329.303ZM1216.4 317.385C1215.95 320.408 1215.49 323.412 1215.03 326.416C1216.35 323.457 1217.67 320.44 1219 317.442C1219.67 314.435 1220.33 311.466 1221.01 308.459C1219.45 311.441 1217.92 314.403 1216.4 317.385ZM1217.46 310.46L1216.75 315.005C1218.4 311.827 1220 308.65 1221.64 305.452L1223.76 295.845C1221.94 299.026 1220.07 302.208 1218.24 305.369L1217.46 310.46ZM212.176 940.462C208.349 940.853 204.448 941.263 200.578 941.654C198.633 942.794 196.705 943.894 194.76 945.033C198.593 944.585 202.369 944.117 206.201 943.669C208.197 942.606 210.193 941.544 212.176 940.462ZM225.307 939.091C221.535 939.5 217.721 939.909 213.894 940.299C211.928 941.342 209.945 942.424 207.98 943.466C211.726 943.019 215.515 942.571 219.249 942.104C221.283 941.099 223.304 940.076 225.307 939.091ZM238.473 937.641C234.745 938.049 230.973 938.458 227.245 938.866C225.241 939.851 223.251 940.855 221.247 941.839C224.907 941.393 228.537 940.967 232.142 940.503C234.226 939.575 236.371 938.608 238.473 937.641ZM251.334 936.255C247.777 936.66 244.152 937.028 240.553 937.434C238.481 938.381 236.44 939.307 234.368 940.254C237.942 939.81 241.461 939.346 245.022 938.882C247.102 938.013 249.224 937.144 251.334 936.255ZM264.143 934.791C260.66 935.176 257.202 935.599 253.676 935.985C251.64 936.853 249.548 937.703 247.511 938.571C250.926 938.149 254.372 937.706 257.744 937.284C259.891 936.453 262.039 935.621 264.143 934.791ZM276.836 933.349C273.495 933.751 270.171 934.114 266.817 934.496C264.743 935.307 262.626 936.118 260.551 936.929C263.868 936.488 267.153 936.067 270.439 935.647C272.582 934.874 274.724 934.101 276.836 933.349ZM289.259 931.891C286.15 932.251 282.998 932.611 279.816 932.991C277.777 933.723 275.739 934.455 273.7 935.188C276.857 934.769 280.044 934.33 283.201 933.911C285.235 933.238 287.268 932.564 289.259 931.891ZM301.699 930.394C298.677 930.752 295.709 931.129 292.656 931.507C290.739 932.16 288.809 932.793 286.909 933.406C289.864 933.01 292.788 932.634 295.687 932.219C297.715 931.604 299.714 931.009 301.699 930.394ZM313.869 928.882C311.178 929.216 308.443 929.55 305.709 929.884C303.827 930.458 301.902 931.033 299.989 931.627C302.772 931.234 305.468 930.842 308.221 930.468C310.098 929.952 312.005 929.417 313.869 928.882ZM325.5 927.475C323.183 927.784 320.84 928.054 318.468 928.344C316.824 928.817 315.167 929.27 313.51 929.724L320.772 928.677C322.368 928.264 323.934 927.869 325.5 927.475ZM337.068 925.973C335.1 926.217 333.144 926.481 331.189 926.745C329.856 927.096 328.51 927.429 327.177 927.78C329.089 927.517 331.032 927.234 332.932 926.951C334.277 926.619 335.679 926.306 337.068 925.973ZM347.752 924.581C346.508 924.736 345.263 924.892 343.988 925.067C343.052 925.296 342.104 925.505 341.168 925.734C342.516 925.538 343.852 925.323 345.243 925.126C346.106 924.918 346.907 924.75 347.752 924.581ZM1211.23 317.387L1210.41 327.383C1212.11 324.087 1213.8 320.772 1215.53 317.457L1216.56 310.688L1217.06 307.47C1215.11 310.789 1213.16 314.107 1211.23 317.387ZM1212.25 305.384C1211.96 308.833 1211.68 312.243 1211.38 315.692C1213.36 312.295 1215.37 308.877 1217.34 305.461C1217.87 302.028 1218.4 298.595 1218.92 295.162C1216.69 298.582 1214.47 302.003 1212.25 305.384ZM1213.3 293.342C1212.99 296.849 1212.69 300.357 1212.39 303.864C1214.66 300.385 1216.93 296.886 1219.19 293.387C1219.72 289.895 1220.27 286.364 1220.82 282.834C1218.31 286.356 1215.79 289.859 1213.3 293.342ZM1214.37 281.221C1214.03 284.807 1213.73 288.373 1213.42 291.939C1215.96 288.397 1218.51 284.815 1221.05 281.273C1221.62 277.703 1222.17 274.114 1222.73 270.525C1219.94 274.09 1217.16 277.656 1214.37 281.221ZM1215.51 269.061C1215.17 272.705 1214.82 276.349 1214.47 279.974C1217.3 276.35 1220.13 272.725 1222.94 269.121C1223.51 265.492 1224.08 261.864 1224.68 258.216C1221.65 261.804 1218.59 265.413 1215.51 269.061ZM1216.73 256.821C1216.37 260.505 1216 264.188 1215.63 267.852C1218.74 264.185 1221.85 260.517 1224.91 256.85C1225.5 253.182 1226.12 249.495 1226.73 245.788C1223.41 249.459 1220.05 253.15 1216.73 256.821ZM1217.99 244.522C1217.58 248.265 1217.23 251.968 1216.84 255.671C1220.23 251.96 1223.57 248.25 1226.95 244.539C1227.59 240.812 1228.23 237.086 1228.85 233.34C1225.22 237.074 1221.62 240.788 1217.99 244.522ZM1219.38 232.144C1218.94 235.907 1218.51 239.688 1218.1 243.431C1221.76 239.677 1225.39 235.943 1229.04 232.169C1229.69 228.403 1230.35 224.637 1231.03 220.852C1227.16 224.609 1223.25 228.386 1219.38 232.144ZM1220.85 219.706C1220.4 223.508 1219.91 227.329 1219.48 231.111C1223.39 227.334 1227.32 223.536 1231.23 219.759C1231.91 215.973 1232.59 212.168 1233.3 208.362C1229.17 212.124 1225.02 215.924 1220.85 219.706ZM1222.45 207.188C1221.93 211.029 1221.46 214.87 1221 218.672C1225.18 214.852 1229.36 211.031 1233.53 207.249C1234.23 203.424 1234.98 199.599 1235.71 195.754L1222.45 207.188ZM1224.14 194.669C1223.59 198.53 1223.08 202.391 1222.56 206.233L1235.87 194.739C1236.63 190.875 1237.4 187.01 1238.19 183.125L1224.14 194.669ZM1206.15 376.468L1206.14 376.585L1206.17 376.37L1206.15 376.468ZM1207.21 364.717C1207.02 366.744 1206.86 368.751 1206.67 370.778C1207.14 368.844 1207.61 366.91 1208.07 364.976C1208.39 362.947 1208.72 360.938 1209.07 358.889C1208.44 360.845 1207.84 362.761 1207.21 364.717ZM1208.24 352.987C1208.02 355.636 1207.79 358.267 1207.57 360.898C1208.38 358.297 1209.19 355.696 1210 353.095C1210.43 350.442 1210.83 347.809 1211.26 345.156C1210.24 347.76 1209.22 350.383 1208.24 352.987ZM1209.24 341.217C1208.98 344.199 1208.74 347.141 1208.47 350.103C1209.6 347.186 1210.69 344.289 1211.81 341.353C1212.27 338.349 1212.73 335.345 1213.22 332.321C1211.9 335.28 1210.57 338.278 1209.24 341.217ZM1210.22 329.351L1209.44 338.879C1210.86 335.743 1212.26 332.589 1213.67 329.434C1214.14 326.255 1214.65 323.055 1215.14 319.837C1213.49 323.015 1211.87 326.173 1210.22 329.351ZM220.025 936.273C216.013 936.647 212.032 937.001 207.964 937.356C206.019 938.495 204.104 939.615 202.146 940.735C206.06 940.343 210.016 939.951 213.904 939.521C215.943 938.458 217.969 937.376 220.025 936.273ZM233.429 935.054C229.503 935.426 225.608 935.778 221.712 936.131C219.686 937.213 217.66 938.295 215.664 939.357C219.565 938.947 223.41 938.517 227.267 938.107C229.301 937.103 231.365 936.078 233.429 935.054ZM246.735 933.816C242.938 934.186 239.073 934.518 235.233 934.889C233.199 935.894 231.148 936.938 229.114 937.942C232.929 937.533 236.743 937.123 240.545 936.695C242.647 935.728 244.676 934.782 246.735 933.816ZM260.088 932.519C256.291 932.889 252.538 933.259 248.741 933.629C246.712 934.575 244.683 935.521 242.642 936.448C246.34 936.06 250.069 935.652 253.711 935.245C255.864 934.355 257.961 933.447 260.088 932.519ZM273.343 931.204C269.675 931.572 265.995 931.921 262.327 932.289C260.23 933.198 258.163 934.086 256.066 934.994C259.709 934.587 263.253 934.163 266.883 933.737C269.03 932.905 271.178 932.074 273.343 931.204ZM286.365 929.931C282.869 930.297 279.305 930.625 275.754 930.972C273.68 931.782 271.618 932.612 269.544 933.423C273.014 933.019 276.454 932.634 279.882 932.231C282.037 931.478 284.223 930.704 286.365 929.931ZM299.367 928.562C295.945 928.907 292.547 929.291 289.125 929.636C287.056 930.388 284.987 931.14 282.887 931.912C286.198 931.53 289.509 931.148 292.735 930.767C294.933 930.013 297.156 929.297 299.367 928.562ZM312.081 927.217C308.916 927.558 305.739 927.879 302.532 928.221C300.437 928.935 298.317 929.61 296.223 930.323C299.405 929.943 302.575 929.544 305.757 929.164C307.846 928.508 309.991 927.872 312.081 927.217ZM324.592 925.894C321.63 926.212 318.68 926.55 315.705 926.849C313.75 927.444 311.721 928.059 309.736 928.674C312.673 928.317 315.609 927.96 318.503 927.603C320.544 927.007 322.611 926.45 324.592 925.894ZM337.052 924.494L328.915 925.399C327.02 925.953 325.057 926.47 323.15 927.006C325.872 926.652 328.52 926.319 331.212 925.986C333.144 925.489 335.12 924.991 337.052 924.494ZM348.992 923.161C346.692 923.43 344.38 923.68 342.068 923.93C340.399 924.364 338.643 924.8 336.944 925.255L344.024 924.327C345.676 923.932 347.34 923.556 348.992 923.161ZM360.575 921.813C358.68 922.037 356.828 922.261 354.934 922.485C353.618 922.797 352.26 923.11 350.975 923.402C352.784 923.18 354.623 922.937 356.419 922.695C357.759 922.421 359.173 922.127 360.575 921.813ZM371.452 920.516L368.183 920.897C367.308 921.086 366.39 921.275 365.515 921.464C366.673 921.31 367.819 921.136 368.978 920.982C369.792 920.833 370.65 920.684 371.452 920.516ZM1204.17 329.387C1204.1 332.793 1204.07 336.18 1204.02 339.547C1205.77 336.192 1207.55 332.818 1209.3 329.463L1209.4 328.157L1210.16 319.194C1208.18 322.591 1206.19 325.989 1204.17 329.387ZM1204.39 317.416C1204.33 320.9 1204.28 324.403 1204.21 327.868C1206.26 324.431 1208.3 320.935 1210.34 317.479C1210.61 313.991 1210.92 310.503 1211.22 306.976C1208.94 310.456 1206.66 313.936 1204.39 317.416ZM1204.59 305.425C1204.51 309.007 1204.45 312.55 1204.39 316.092C1206.71 312.553 1209 309.035 1211.32 305.477C1211.62 301.911 1211.92 298.384 1212.25 294.798C1209.7 298.321 1207.16 301.863 1204.59 305.425ZM1204.87 293.336C1204.77 296.957 1204.7 300.559 1204.63 304.16C1207.23 300.578 1209.82 296.976 1212.38 293.395C1212.7 289.79 1213.02 286.166 1213.33 282.541C1210.53 286.146 1207.68 289.751 1204.87 293.336ZM1205.17 281.228C1205.05 284.888 1204.97 288.528 1204.88 292.169C1207.74 288.524 1210.61 284.88 1213.44 281.255C1213.77 277.592 1214.1 273.928 1214.46 270.244C1211.4 273.912 1208.29 277.579 1205.17 281.228ZM1205.61 269C1205.49 272.719 1205.32 276.438 1205.22 280.118C1208.36 276.43 1211.49 272.723 1214.63 269.035C1214.97 265.333 1215.34 261.649 1215.72 257.927C1212.33 261.637 1208.96 265.309 1205.61 269ZM1206.07 256.733C1205.92 260.472 1205.77 264.211 1205.62 267.949C1209 264.238 1212.41 260.508 1215.8 256.797C1216.17 253.055 1216.55 249.332 1216.94 245.57C1213.34 249.284 1209.71 253.019 1206.07 256.733ZM1206.63 244.426C1206.46 248.204 1206.28 251.963 1206.11 255.74C1209.77 251.986 1213.43 248.232 1217.09 244.478C1217.49 240.716 1217.92 236.934 1218.36 233.113C1214.46 236.891 1210.55 240.668 1206.63 244.426ZM1207.32 232.039C1207.09 235.857 1206.86 239.675 1206.69 243.452C1210.63 239.655 1214.56 235.858 1218.47 232.08C1218.91 228.259 1219.37 224.457 1219.84 220.617C1215.69 224.417 1211.5 228.219 1207.32 232.039ZM1208.16 219.553C1207.9 223.39 1207.62 227.267 1207.39 231.085C1211.57 227.264 1215.79 223.443 1219.97 219.622C1220.45 215.781 1220.92 211.94 1221.44 208.099C1216.99 211.904 1212.58 215.709 1208.16 219.553ZM1209.05 207.026C1208.73 210.904 1208.45 214.78 1208.19 218.618C1212.66 214.773 1217.09 210.929 1221.56 207.085C1222.07 203.224 1222.57 199.363 1223.14 195.463L1209.05 207.026ZM1202.94 399.694L1202.93 399.753L1202.93 399.617L1202.94 399.694ZM1203.24 388.111C1203.19 390.097 1203.14 392.063 1203.11 394.009C1203.44 392.117 1203.8 390.223 1204.12 388.331C1204.32 386.323 1204.49 384.336 1204.7 382.328C1204.2 384.282 1203.72 386.196 1203.24 388.111ZM1203.44 376.451C1203.4 379.099 1203.35 381.727 1203.29 384.354C1203.93 381.815 1204.58 379.236 1205.2 376.677C1205.46 374.027 1205.7 371.357 1205.95 368.687C1205.14 371.288 1204.31 373.869 1203.44 376.451ZM1203.67 364.753C1203.63 367.731 1203.57 370.689 1203.52 373.648C1204.47 370.734 1205.37 367.801 1206.31 364.867C1206.56 361.945 1206.83 358.982 1207.07 356.04C1205.95 358.957 1204.81 361.855 1203.67 364.753ZM1203.84 353.035C1203.79 356.208 1203.73 359.361 1203.71 362.495C1204.92 359.382 1206.14 356.269 1207.32 353.176C1207.59 350.019 1207.87 346.863 1208.13 343.687C1206.7 346.803 1205.27 349.919 1203.84 353.035ZM1203.94 345.522L1203.86 351.089C1205.35 347.855 1206.86 344.601 1208.33 341.348L1209.17 331.391C1207.46 334.668 1205.74 337.944 1204.03 341.22L1203.94 345.522ZM227.745 932.087C223.609 932.404 219.517 932.72 215.381 933.037C213.405 934.197 211.447 935.317 209.472 936.476C213.582 936.12 217.625 935.727 221.692 935.372C223.718 934.29 225.732 933.188 227.745 932.087ZM241.509 931.017C237.502 931.332 233.409 931.648 229.359 931.964C227.346 933.066 225.362 934.147 223.367 935.21C227.348 934.856 231.317 934.483 235.286 934.11C237.35 933.086 239.457 932.061 241.509 931.017ZM255.161 929.91C251.197 930.224 247.246 930.558 243.251 930.892C241.2 931.936 239.123 932.941 237.089 933.946C240.985 933.594 244.911 933.221 248.763 932.87C250.908 931.902 253.041 930.916 255.161 929.91ZM268.757 928.784C264.892 929.117 261.014 929.43 257.093 929.744C254.991 930.71 252.859 931.697 250.726 932.683C254.609 932.312 258.436 931.922 262.307 931.531C264.49 930.621 266.63 929.712 268.757 928.784ZM282.194 927.68C278.458 928.011 274.653 928.303 270.861 928.615C268.764 929.523 266.667 930.432 264.528 931.341C268.281 930.971 272.048 930.621 275.789 930.232C277.924 929.381 280.059 928.531 282.194 927.68ZM295.684 926.459C291.948 926.79 288.255 927.119 284.531 927.469C282.427 928.3 280.335 929.149 278.2 930C281.868 929.632 285.535 929.263 289.16 928.896C291.364 928.083 293.493 927.291 295.684 926.459ZM308.954 925.3C305.42 925.608 301.813 925.936 298.249 926.264C296.119 927.056 294.032 927.847 291.89 928.62C295.472 928.253 299.01 927.887 302.58 927.5C304.735 926.747 306.817 926.014 308.954 925.3ZM322.1 924.084C318.665 924.41 315.26 924.715 311.782 925.042C309.718 925.735 307.679 926.468 305.615 927.161C308.994 926.817 312.404 926.453 315.771 926.089C317.904 925.433 319.98 924.759 322.1 924.084ZM335.19 922.849C331.915 923.153 328.652 923.476 325.376 923.78C323.317 924.415 321.283 925.089 319.194 925.744C322.474 925.382 325.712 925.02 328.95 924.659C331.065 924.042 333.106 923.446 335.19 922.849ZM347.937 921.62C344.949 921.9 341.889 922.201 338.858 922.481C336.921 923.037 335.008 923.631 333.071 924.186C336.106 923.847 339.111 923.528 342.134 923.17C344.067 922.673 345.987 922.156 347.937 921.62ZM360.615 920.353C357.769 920.65 354.967 920.947 352.138 921.205C350.365 921.68 348.605 922.174 346.831 922.649C349.548 922.354 352.295 922.039 354.969 921.745C356.841 921.287 358.713 920.83 360.615 920.353ZM372.919 919.111C370.478 919.363 368.037 919.615 365.583 919.848C363.944 920.263 362.378 920.657 360.726 921.052C363.185 920.761 365.674 920.45 368.145 920.178C369.78 919.822 371.328 919.467 372.919 919.111ZM384.56 917.919C382.652 918.124 380.689 918.31 378.77 918.495C377.515 918.768 376.316 919.059 375.061 919.331C377.042 919.106 379.053 918.86 380.991 918.636C382.184 918.403 383.335 918.171 384.56 917.919ZM395.917 916.692C394.587 916.849 393.274 916.966 391.943 917.123C391.142 917.291 390.34 917.459 389.538 917.627C391.015 917.429 392.419 917.252 393.879 917.093C394.564 916.946 395.219 916.819 395.917 916.692ZM1197.69 353.072L1198.25 363.183C1199.8 359.851 1201.36 356.538 1202.89 353.186L1203.02 345.829L1203.06 343.045C1201.26 346.401 1199.49 349.717 1197.69 353.072ZM1197.06 341.251C1197.24 344.712 1197.43 348.172 1197.61 351.614C1199.42 348.22 1201.26 344.805 1203.06 341.391L1203.21 330.978C1201.17 334.415 1199.11 337.833 1197.06 341.251ZM1196.44 329.39C1196.62 332.909 1196.8 336.429 1196.98 339.948C1199.09 336.471 1201.15 332.995 1203.24 329.498C1203.3 325.956 1203.37 322.413 1203.42 318.851C1201.11 322.351 1198.77 325.87 1196.44 329.39ZM1195.84 317.431C1196.02 321.009 1196.19 324.587 1196.37 328.165C1198.74 324.625 1201.09 321.067 1203.45 317.508C1203.52 313.907 1203.6 310.325 1203.65 306.705C1201.05 310.287 1198.45 313.869 1195.84 317.431ZM1195.32 305.394C1195.49 309.03 1195.62 312.667 1195.78 316.284C1198.41 312.682 1201.04 309.08 1203.66 305.459C1203.75 301.819 1203.8 298.198 1203.89 294.558C1201.05 298.183 1198.18 301.808 1195.32 305.394ZM1194.83 293.337C1194.95 297.032 1195.1 300.688 1195.28 304.344C1198.19 300.699 1201.05 297.054 1203.94 293.39C1204.05 289.71 1204.12 286.051 1204.24 282.332C1201.1 286.02 1197.98 289.668 1194.83 293.337ZM1194.42 281.2C1194.53 284.935 1194.68 288.61 1194.81 292.306C1197.96 288.637 1201.13 284.93 1204.27 281.242C1204.39 277.523 1204.5 273.785 1204.65 270.047C1201.23 273.777 1197.83 277.469 1194.42 281.2ZM1194.12 268.965C1194.19 272.719 1194.28 276.493 1194.39 280.227C1197.8 276.497 1201.25 272.746 1204.66 269.015C1204.8 265.257 1204.94 261.499 1205.11 257.721C1201.45 261.476 1197.79 265.23 1194.12 268.965ZM1193.91 256.669C1193.97 260.463 1194.02 264.257 1194.11 268.031C1197.8 264.256 1201.49 260.482 1205.15 256.728C1205.32 252.95 1205.49 249.173 1205.65 245.376C1201.76 249.114 1197.83 252.911 1193.91 256.669ZM1193.79 244.314C1193.82 248.128 1193.84 251.942 1193.9 255.735C1197.85 251.957 1201.79 248.16 1205.72 244.363C1205.91 240.546 1206.14 236.728 1206.36 232.891C1202.18 236.711 1197.98 240.513 1193.79 244.314ZM1193.8 231.899C1193.77 235.752 1193.77 239.586 1193.78 243.439C1198 239.617 1202.18 235.797 1206.41 231.976C1206.63 228.139 1206.9 224.262 1207.15 220.405C1202.71 224.23 1198.27 228.054 1193.8 231.899ZM1194.01 219.383C1193.92 223.276 1193.87 227.169 1193.84 231.022C1198.31 227.178 1202.76 223.314 1207.26 219.45C1207.54 215.573 1207.82 211.696 1208.13 207.799L1194.01 219.383ZM1200.77 411.209C1200.87 413.153 1200.93 415.099 1201.04 417.043C1201.25 415.191 1201.47 413.339 1201.68 411.467C1201.73 409.501 1201.82 407.515 1201.86 405.529C1201.51 407.442 1201.14 409.335 1200.77 411.209ZM1200.22 399.717C1200.36 402.322 1200.47 404.928 1200.59 407.495C1201.06 404.977 1201.54 402.46 1202 399.923C1202.07 397.314 1202.14 394.705 1202.19 392.078C1201.57 394.636 1200.89 397.177 1200.22 399.717ZM1199.63 388.167C1199.77 391.103 1199.92 394.039 1200.08 396.936C1200.82 394.084 1201.55 391.231 1202.28 388.379C1202.34 385.42 1202.4 382.461 1202.47 379.463C1201.55 382.358 1200.59 385.272 1199.63 388.167ZM1199 376.501C1199.19 379.631 1199.33 382.762 1199.51 385.873C1200.53 382.802 1201.51 379.731 1202.53 376.641C1202.6 373.507 1202.62 370.373 1202.68 367.22C1201.46 370.314 1200.24 373.426 1199 376.501ZM1198.37 364.815L1198.91 374.634C1200.19 371.423 1201.45 368.193 1202.74 364.923C1202.81 361.653 1202.83 358.383 1202.89 355.093C1201.37 358.347 1199.85 361.582 1198.37 364.815ZM235.435 927.92C231.231 928.199 227.014 928.459 222.754 928.72C220.779 929.879 218.834 931.018 216.858 932.178C221.037 931.86 225.173 931.543 229.339 931.206C231.395 930.103 233.421 929.021 235.435 927.92ZM249.545 926.981C245.384 927.259 241.223 927.538 237.018 927.817C235.005 928.919 232.991 930.02 230.996 931.083C235.131 930.765 239.267 930.448 243.317 930.132C245.369 929.089 247.45 928.025 249.545 926.981ZM263.599 926.023C259.481 926.301 255.375 926.598 251.214 926.877C249.163 927.921 247.111 928.964 245.03 930.028C249.079 929.712 253.061 929.359 257.111 929.043C259.291 927.997 261.467 927.01 263.599 926.023ZM277.395 925.07C273.449 925.345 269.417 925.621 265.428 925.897C263.308 926.903 261.163 927.871 259.031 928.857C262.982 928.523 266.946 928.209 270.854 927.876C273.054 926.927 275.237 926.018 277.395 925.07ZM291.239 924.057C287.293 924.332 283.415 924.645 279.426 924.921C277.299 925.849 275.129 926.778 272.989 927.687C276.867 927.374 280.732 927.042 284.554 926.71C286.793 925.819 289.031 924.928 291.239 924.057ZM304.942 923.027C301.138 923.319 297.32 923.593 293.473 923.886C291.308 924.756 289.099 925.627 286.904 926.518C290.726 926.186 294.492 925.836 298.272 925.504C300.518 924.691 302.739 923.839 304.942 923.027ZM318.516 921.999C314.84 922.289 311.109 922.561 307.391 922.853C305.23 923.665 303.058 924.457 300.897 925.269C304.56 924.959 308.253 924.63 311.86 924.301C314.089 923.527 316.287 922.773 318.516 921.999ZM332.051 920.913C328.462 921.202 324.872 921.492 321.24 921.782C319.042 922.536 316.887 923.289 314.688 924.043C318.296 923.715 321.817 923.388 325.411 923.04C327.635 922.324 329.828 921.629 332.051 920.913ZM345.341 919.851C341.967 920.137 338.537 920.404 335.107 920.671C332.957 921.366 330.837 922.041 328.674 922.717C332.079 922.411 335.502 922.066 338.894 921.741C341.051 921.124 343.196 920.487 345.341 919.851ZM358.594 918.73C355.305 919.015 352.06 919.299 348.759 919.564C346.687 920.18 344.646 920.776 342.574 921.392C345.807 921.089 348.997 920.786 352.174 920.465C354.326 919.906 356.454 919.309 358.594 918.73ZM371.601 917.633C368.601 917.894 365.558 918.155 362.515 918.417C360.491 918.973 358.498 919.51 356.461 920.048L365.588 919.128C367.637 918.61 369.613 918.112 371.601 917.633ZM384.251 916.522C381.582 916.759 378.828 916.996 376.116 917.233C374.287 917.689 372.458 918.146 370.586 918.603C373.316 918.327 376.045 918.051 378.732 917.776C380.586 917.358 382.397 916.94 384.251 916.522ZM396.79 915.374C394.41 915.586 391.999 915.818 389.619 916.031C387.924 916.427 386.26 916.803 384.552 917.179C387.023 916.908 389.409 916.637 391.85 916.385C393.54 916.048 395.143 915.711 396.79 915.374ZM408.623 914.276C406.82 914.44 404.973 914.605 403.139 914.789L399.246 915.609C401.141 915.385 403.018 915.2 404.925 914.995C406.162 914.762 407.386 914.509 408.623 914.276ZM419.996 913.205C418.739 913.341 417.555 913.456 416.285 913.573L414.044 913.997C415.301 913.861 416.546 913.706 417.773 913.589L419.996 913.205ZM1191.32 364.866C1191.75 368.304 1192.17 371.723 1192.61 375.16C1194.21 371.788 1195.81 368.397 1197.39 364.986L1197.33 363.703L1196.84 354.681C1195.03 358.076 1193.17 361.471 1191.32 364.866ZM1189.89 353.096C1190.32 356.592 1190.76 360.108 1191.17 363.584C1193.04 360.15 1194.9 356.696 1196.78 353.203C1196.58 349.723 1196.4 346.204 1196.22 342.684C1194.08 346.181 1192.01 349.638 1189.89 353.096ZM1188.44 341.287C1188.86 344.842 1189.28 348.396 1189.73 351.931C1191.87 348.434 1193.99 344.918 1196.14 341.382C1195.95 337.843 1195.74 334.285 1195.56 330.707C1193.2 334.247 1190.82 337.767 1188.44 341.287ZM1187.06 329.399C1187.48 333.012 1187.91 336.586 1188.32 340.18C1190.71 336.62 1193.11 333.061 1195.5 329.482C1195.31 325.885 1195.15 322.268 1194.98 318.632C1192.35 322.234 1189.7 325.816 1187.06 329.399ZM1185.72 317.433C1186.12 321.085 1186.55 324.717 1186.93 328.35C1189.6 324.728 1192.27 321.126 1194.9 317.524C1194.73 313.888 1194.57 310.212 1194.42 306.537C1191.51 310.182 1188.64 313.807 1185.72 317.433ZM1184.45 305.387C1184.84 309.079 1185.22 312.77 1185.6 316.462C1188.54 312.797 1191.47 309.131 1194.37 305.467C1194.21 301.792 1194.05 298.097 1193.91 294.382C1190.77 298.07 1187.62 301.738 1184.45 305.387ZM1183.25 293.302C1183.62 297.033 1183.97 300.744 1184.36 304.455C1187.55 300.766 1190.73 297.078 1193.93 293.351C1193.79 289.636 1193.65 285.921 1193.53 282.167C1190.11 285.879 1186.69 289.61 1183.25 293.302ZM1182.14 281.157C1182.48 284.908 1182.84 288.638 1183.17 292.389C1186.63 288.657 1190.05 284.926 1193.5 281.195C1193.39 277.441 1193.3 273.667 1193.24 269.873C1189.52 273.667 1185.81 277.422 1182.14 281.157ZM1181.14 268.913C1181.43 272.723 1181.74 276.512 1182.05 280.283C1185.75 276.528 1189.47 272.734 1193.16 268.96C1193.07 265.186 1193 261.373 1192.97 257.559C1189.04 261.357 1185.09 265.135 1181.14 268.913ZM1180.29 256.569C1180.54 260.399 1180.8 264.228 1181.09 268.038C1185.07 264.24 1189.03 260.423 1192.97 256.626C1192.94 252.812 1192.87 248.999 1192.86 245.146C1188.68 248.967 1184.48 252.768 1180.29 256.569ZM1179.51 244.205C1179.74 248.054 1179.96 251.904 1180.22 255.734C1184.44 251.912 1188.64 248.111 1192.85 244.27C1192.84 240.418 1192.84 236.584 1192.86 232.711C1188.42 236.536 1183.95 240.38 1179.51 244.205ZM1178.9 231.76C1179.06 235.65 1179.26 239.519 1179.45 243.389C1183.92 239.544 1188.39 235.699 1192.86 231.855C1192.88 227.982 1192.96 224.069 1193.03 220.196L1178.9 231.76ZM1199.81 434.031C1200.03 435.954 1200.24 437.858 1200.44 439.762C1200.55 437.931 1200.63 436.139 1200.73 434.308C1200.67 432.363 1200.6 430.399 1200.54 428.454C1200.32 430.306 1200.07 432.178 1199.81 434.031ZM1198.52 422.667C1198.82 425.25 1199.12 427.814 1199.4 430.359C1199.73 427.883 1200.01 425.407 1200.34 422.93C1200.25 420.344 1200.11 417.758 1200.01 415.152C1199.54 417.669 1199.02 420.188 1198.52 422.667ZM1197.14 411.246C1197.49 414.159 1197.86 417.034 1198.2 419.928C1198.75 417.137 1199.33 414.306 1199.86 411.476C1199.72 408.559 1199.59 405.643 1199.45 402.726C1198.68 405.579 1197.9 408.432 1197.14 411.246ZM1195.71 399.729C1196.11 402.855 1196.5 405.963 1196.84 409.071C1197.68 406.042 1198.47 403.013 1199.26 399.985C1199.12 396.854 1198.94 393.743 1198.79 390.593C1197.79 393.644 1196.75 396.696 1195.71 399.729ZM1194.27 388.211C1194.69 391.435 1195.07 394.659 1195.48 397.864C1196.54 394.714 1197.64 391.564 1198.69 388.396C1198.51 385.149 1198.35 381.862 1198.16 378.596C1196.87 381.788 1195.59 384.999 1194.27 388.211ZM1193.42 381.355L1194.07 386.58C1195.42 383.29 1196.74 380 1198.08 376.69C1197.89 373.346 1197.72 369.982 1197.54 366.599C1195.98 369.912 1194.42 373.225 1192.83 376.558L1193.42 381.355ZM1200.14 445.643C1199.86 443.098 1199.6 440.534 1199.31 437.969C1192.67 486.605 1182.72 532.587 1164.59 575.621C1101.91 724.488 941.614 838.285 483.242 905.723C942.722 846.986 1107.34 743.552 1167.3 605.294C1188.54 556.335 1196.67 502.947 1200.14 445.643ZM1201.25 456.873C1201.08 454.95 1200.87 453.046 1200.69 451.122C1197.05 506.308 1188.74 557.83 1168.16 605.281C1109.21 741.227 949.529 843.591 509.56 902.999C953.41 851.354 1116.95 757.783 1173.54 630.67C1196.9 578.253 1202.08 520.124 1201.25 456.873ZM243.142 923.713C238.857 923.936 234.486 924.159 230.115 924.383C228.14 925.542 226.177 926.721 224.231 927.86C228.522 927.579 232.824 927.318 237.028 927.039C239.055 925.956 241.098 924.835 243.142 923.713ZM257.525 922.926C253.24 923.148 248.981 923.409 244.695 923.631C242.682 924.733 240.625 925.835 238.582 926.956C242.829 926.676 247.033 926.397 251.267 926.098C253.319 925.054 255.401 923.99 257.525 922.926ZM271.81 922.12C267.623 922.361 263.381 922.582 259.152 922.823C257.07 923.887 255.019 924.93 252.937 925.994C257.141 925.715 261.332 925.416 265.494 925.137C267.613 924.132 269.69 923.126 271.81 922.12ZM286.082 921.296C281.908 921.555 277.764 921.795 273.578 922.035C271.489 923.021 269.412 924.026 267.292 925.032C271.367 924.754 275.455 924.496 279.474 924.2C281.693 923.213 283.893 922.264 286.082 921.296ZM300.285 920.433C296.197 920.691 292.14 920.929 288.009 921.188C285.851 922.136 283.694 923.084 281.536 924.032C285.555 923.736 289.532 923.441 293.551 923.145C295.777 922.235 298.046 921.324 300.285 920.433ZM314.2 919.594C310.315 919.83 306.313 920.087 302.372 920.303C300.176 921.194 297.938 922.085 295.742 922.975C299.645 922.7 303.566 922.387 307.426 922.113C309.69 921.26 311.966 920.427 314.2 919.594ZM328.194 918.677C324.321 918.931 320.491 919.186 316.575 919.441C314.354 920.293 312.095 921.087 309.875 921.938C313.722 921.645 317.483 921.353 321.288 921.061C323.608 920.227 325.922 919.452 328.194 918.677ZM342.002 917.742C338.302 917.994 334.558 918.247 330.845 918.48C328.616 919.254 326.344 920.029 324.086 920.823C327.804 920.531 331.48 920.241 335.185 919.93C337.439 919.195 339.718 918.498 342.002 917.742ZM355.682 916.81C352.067 917.061 348.496 917.311 344.881 917.562C342.688 918.257 340.421 918.974 338.198 919.689C341.744 919.401 345.303 919.131 348.764 918.844C351.099 918.166 353.39 917.488 355.682 916.81ZM369.294 915.84C365.851 916.088 362.408 916.336 358.966 916.584C356.747 917.241 354.486 917.899 352.267 918.556C355.715 918.25 359.133 917.963 362.55 917.677C364.794 917.058 367.05 916.459 369.294 915.84ZM382.574 914.894C379.42 915.119 376.179 915.344 372.951 915.589C370.824 916.186 368.641 916.765 366.501 917.343C369.716 917.079 372.919 916.796 376.091 916.532C378.274 915.954 380.439 915.414 382.574 914.894ZM395.92 913.851C392.894 914.073 389.851 914.334 386.826 914.556C384.777 915.074 382.673 915.574 380.593 916.112C383.636 915.851 386.624 915.571 389.611 915.291C391.728 914.811 393.846 914.33 395.92 913.851ZM408.818 912.853C406.167 913.049 403.486 913.266 400.792 913.464C398.907 913.901 396.937 914.341 395.052 914.779C397.751 914.523 400.463 914.286 403.119 914.031C404.998 913.651 406.921 913.271 408.818 912.853ZM421.372 911.86C419.053 912.032 416.758 912.243 414.408 912.435C412.774 912.791 411.085 913.129 409.407 913.486C411.659 913.275 413.923 913.085 416.161 912.855C417.937 912.516 419.682 912.197 421.372 911.86ZM434.189 910.805C432.257 910.971 430.312 911.118 428.379 911.284C427.069 911.538 425.703 911.773 424.362 912.047C426.355 911.841 428.318 911.655 430.324 911.468C431.574 911.254 432.897 911.019 434.189 910.805ZM445.018 909.897C443.994 909.991 442.914 910.066 441.889 910.16C441.234 910.287 440.609 910.394 439.942 910.501C440.996 910.388 442.064 910.293 443.119 910.18L445.018 909.897ZM536.98 900.433C966.556 855.1 1128.36 770.197 1181.88 652.9C1206.88 598.083 1208.25 536.141 1202.3 467.852C1202.36 526.833 1196.44 581.257 1174.44 630.656C1118.82 755.478 960.685 848.011 536.98 900.433ZM465.52 907.38C466.631 907.285 467.784 907.189 468.925 907.074C937.713 840.019 1100.54 725.716 1163.71 575.674C1182.27 531.563 1192.25 484.374 1198.89 434.356C1198.57 431.481 1198.23 428.587 1197.9 425.693C1189.68 465.44 1179.42 503.546 1164.62 539.873C1097.99 703.376 939.704 830.414 465.52 907.38ZM449.539 908.776C451.643 908.607 453.692 908.42 455.815 908.212C937.113 831.563 1096.82 704.173 1163.76 539.887C1178.89 502.737 1189.28 463.714 1197.58 422.954C1197.21 419.885 1196.83 416.797 1196.46 413.709C1188.82 441.382 1180.24 468.331 1169.99 494.468C1098.5 676.553 944.714 820.314 449.539 908.776ZM435.017 910.014C437.323 909.822 439.63 909.631 441.894 909.44C942.617 821.223 1097.4 677.193 1169.11 494.521C1179.64 467.678 1188.39 439.988 1196.19 411.514C1195.81 408.289 1195.39 405.065 1194.99 401.822C1118.52 623.623 986.879 801.699 435.017 910.014ZM420.224 911.236C422.905 911.019 425.574 910.783 428.255 910.566C986.692 802.208 1118.19 623.181 1194.77 399.957C1194.34 396.656 1193.94 393.334 1193.54 390.013C1101.43 613.205 957.715 795.788 420.224 911.236ZM405.638 912.376C408.578 912.156 411.517 911.935 414.401 911.696C957.31 796.164 1101.02 612.783 1193.32 388.421L1192.48 381.72L1192.05 378.146C1084.33 602.709 928.63 789.798 405.638 912.376ZM391.096 913.517L400.766 912.763C928.076 790.079 1083.91 602.268 1191.84 376.768C1191.39 373.311 1190.96 369.815 1190.54 366.319C1067.26 592.194 899.575 783.789 391.096 913.517ZM376.632 914.578C380.075 914.33 383.462 914.063 386.831 913.836C898.94 784.012 1066.81 591.772 1190.35 365.037C1189.91 361.522 1189.48 357.967 1189.03 354.433C1050.22 581.658 870.581 777.739 376.632 914.578ZM362.272 915.599C365.843 915.349 369.415 915.099 372.974 914.829C869.926 777.866 1049.78 581.198 1188.9 353.248C1188.47 349.674 1188.03 346.1 1187.62 342.487C1033.27 571.062 841.691 771.649 362.272 915.599ZM347.825 916.621C351.599 916.348 355.288 916.077 359.031 915.824C841.01 771.737 1032.81 570.622 1187.51 341.399C1187.09 337.786 1186.63 334.173 1186.23 330.521C1016.32 560.467 812.813 765.578 347.825 916.621ZM333.47 917.583C337.3 917.329 341.13 917.075 344.916 916.822C812.095 765.609 1015.86 560.027 1186.09 329.512C1185.69 325.859 1185.25 322.208 1184.87 318.516C999.45 549.792 784.087 759.407 333.47 917.583ZM318.973 918.528C322.932 918.272 326.891 918.016 330.85 917.76C783.313 759.419 998.97 549.391 1184.74 317.526C1184.35 313.834 1183.96 310.124 1183.56 306.413C982.654 539.097 755.361 753.237 318.973 918.528ZM304.494 919.434C308.552 919.196 312.639 918.938 316.641 918.681C754.605 753.21 982.191 538.657 1183.47 305.48C1183.11 301.75 1182.71 298.039 1182.37 294.269C965.918 528.362 726.696 747.027 304.494 919.434ZM289.959 920.321C294.133 920.062 298.276 919.822 302.45 919.563C725.97 746.979 965.485 527.902 1182.33 293.355C1181.99 289.586 1181.62 285.855 1181.27 282.085C949.242 517.587 698.091 740.776 289.959 920.321ZM275.356 921.17C279.616 920.91 283.802 920.669 288.032 920.429C697.279 740.731 948.767 517.128 1181.17 281.192C1180.85 277.402 1180.55 273.573 1180.26 269.763C932.676 506.713 669.517 734.506 275.356 921.17ZM260.814 921.98C265.086 921.738 269.371 921.516 273.601 921.275C668.723 734.421 932.243 506.253 1180.21 268.888C1179.93 265.079 1179.66 261.23 1179.4 257.4C916.226 495.818 641.077 728.176 260.814 921.98ZM246.198 922.81C250.556 922.567 254.829 922.326 259.144 922.084C640.227 728.072 915.737 495.339 1179.29 256.565C1179.03 252.736 1178.79 248.867 1178.57 245.017C899.836 484.883 612.667 721.825 246.198 922.81ZM231.501 923.583C235.915 923.359 240.329 923.134 244.688 922.892C611.817 721.721 899.391 484.404 1178.57 244.161C1178.36 240.272 1178.17 236.403 1177.99 232.494C883.568 473.869 584.232 715.436 231.501 923.583ZM1193.34 207.581L1178.48 219.215C1178.59 223.144 1178.72 227.054 1178.88 230.943L1193.09 219.3C1193.14 215.407 1193.22 211.494 1193.34 207.581ZM1209.15 195.193C1204.22 199.064 1199.24 202.936 1194.31 206.807C1194.19 210.721 1194.1 214.614 1194.05 218.507L1208.19 206.903C1208.47 203.026 1208.78 199.13 1209.15 195.193ZM1225.02 182.784C1220.06 186.676 1215.09 190.547 1210.13 194.438C1209.78 198.336 1209.47 202.233 1209.15 206.11L1223.2 194.566L1223.26 194.526C1223.83 190.626 1224.42 186.705 1225.02 182.784ZM1240.87 170.396C1235.92 174.248 1230.96 178.139 1226.02 181.991C1225.41 185.892 1224.84 189.793 1224.28 193.693L1238.42 182.09C1239.22 178.205 1240.04 174.3 1240.87 170.396ZM1256.72 158.026C1251.78 161.878 1246.84 165.73 1241.94 169.581C1241.1 173.467 1240.31 177.351 1239.5 181.217L1253.61 169.633C1254.61 165.785 1255.66 161.896 1256.72 158.026ZM1272.61 145.637C1267.7 149.469 1262.76 153.321 1257.84 157.153C1256.78 161.022 1255.74 164.872 1254.72 168.741L1268.79 157.216C1270.03 153.344 1271.32 149.49 1272.61 145.637ZM1288.56 133.207C1283.65 137.039 1278.7 140.891 1273.79 144.723C1272.5 148.577 1271.24 152.411 1269.98 156.244L1283.98 144.76C1285.46 140.923 1287.01 137.065 1288.56 133.207ZM1304.48 120.798C1299.6 124.61 1294.67 128.423 1289.79 132.235C1288.26 136.053 1286.74 139.891 1285.22 143.729C1289.88 139.92 1294.54 136.092 1299.2 132.283C1300.95 128.462 1302.7 124.64 1304.48 120.798ZM1320.42 108.427C1315.56 112.2 1310.69 115.973 1305.81 119.785C1304.05 123.588 1302.29 127.39 1300.56 131.173C1305.2 127.384 1309.83 123.595 1314.46 119.787C1316.44 116 1318.43 112.214 1320.42 108.427ZM1336.35 96.0372C1331.52 99.7901 1326.68 103.543 1321.85 107.296C1319.88 111.043 1317.89 114.83 1315.95 118.557C1320.56 114.788 1325.16 111.02 1329.77 107.251C1331.97 103.519 1334.17 99.7879 1336.35 96.0372ZM1352.31 83.6856C1347.52 87.3794 1342.72 91.1124 1337.94 94.8254C1335.73 98.5376 1333.57 102.249 1331.4 105.961C1335.96 102.251 1340.53 98.502 1345.09 94.7923C1347.5 91.0575 1349.91 87.3812 1352.31 83.6856ZM1368.28 71.3534C1363.55 75.0073 1358.83 78.6613 1354.1 82.3152C1351.72 85.9716 1349.33 89.6087 1346.95 93.2651C1351.45 89.5953 1355.98 85.9054 1360.48 82.2356C1363.05 78.615 1365.66 74.9746 1368.28 71.3534ZM1384.24 59.0211C1379.57 62.6159 1374.93 66.21 1370.27 69.8241C1367.7 73.3862 1365.14 76.9675 1362.58 80.5489C1367.03 76.9382 1371.47 73.3081 1375.92 69.6974C1378.66 66.1326 1381.45 62.5673 1384.24 59.0211ZM1400.13 46.7678C1395.58 50.2829 1391.04 53.7588 1386.49 57.2739C1383.77 60.741 1381.02 64.228 1378.31 67.7143C1382.64 64.1834 1386.98 60.6716 1391.35 57.14C1394.25 53.6894 1397.2 50.2383 1400.13 46.7678ZM1415.96 34.613C1411.57 37.9892 1407.14 41.366 1402.76 44.7422C1399.92 48.0944 1397.07 51.4274 1394.23 54.7796C1398.42 51.3675 1402.62 47.9746 1406.82 44.5818C1409.86 41.2655 1412.92 37.9293 1415.96 34.613ZM1431.64 22.5769C1427.46 25.7943 1423.27 29.0118 1419.07 32.2099C1416.16 35.3881 1413.24 38.547 1410.33 41.7252C1414.37 38.4712 1418.35 35.2179 1422.39 31.964C1425.51 28.8409 1428.57 25.6993 1431.64 22.5769ZM1447 10.8378C1443.16 13.7776 1439.28 16.7373 1435.43 19.677C1432.59 22.5622 1429.75 25.4474 1426.95 28.332C1430.65 25.3557 1434.34 22.3794 1438.03 19.4031C1441.01 16.5352 1444.01 13.6865 1447 10.8378ZM1461.64 -0.34504C1458.39 2.11837 1455.16 4.60097 1451.89 7.10357C1449.32 9.53704 1446.76 11.9898 1444.22 14.4033C1447.34 11.8835 1450.5 9.34363 1453.63 6.84303C1456.3 4.4275 1458.99 2.0313 1461.64 -0.34504ZM86.2395 1004.77L85.7109 1005.09L86.9959 1004.46L87.2817 1004.3C86.9529 1004.46 86.581 1004.62 86.2395 1004.77ZM93.4537 1000.47L90.9621 1001.97C92.2117 1001.42 93.479 1000.84 94.7286 1000.29L97.1923 998.952C95.9478 999.439 94.7159 999.944 93.4537 1000.47ZM100.837 996.035C99.6282 996.774 98.4368 997.474 97.215 998.193C99.0085 997.484 100.746 996.757 102.54 996.048C103.726 995.407 104.869 994.766 106.056 994.125C104.31 994.775 102.565 995.425 100.837 996.035ZM108.087 991.661C106.683 992.5 105.261 993.378 103.857 994.217C105.957 993.445 107.983 992.694 110.083 991.922C111.494 991.161 112.893 990.38 114.292 989.599C112.228 990.293 110.151 990.967 108.087 991.661ZM115.367 987.267C113.811 988.206 112.225 989.164 110.669 990.103C113.027 989.327 115.329 988.532 117.674 987.737C119.237 986.876 120.8 986.015 122.394 985.134C120.054 985.871 117.719 986.549 115.367 987.267ZM122.664 982.834C121.018 983.832 119.371 984.831 117.724 985.829C120.297 985.05 122.839 984.29 125.399 983.492C127.053 982.571 128.707 981.65 130.331 980.749C127.794 981.45 125.214 982.152 122.664 982.834ZM129.858 978.441C128.151 979.479 126.486 980.517 124.779 981.555C127.506 980.813 130.233 980.07 132.947 979.308C134.662 978.347 136.407 977.366 138.135 976.425C135.37 977.11 132.593 977.776 129.858 978.441ZM137.082 974.028C135.345 975.086 133.577 976.165 131.839 977.223C134.75 976.497 137.631 975.79 140.53 975.045C142.336 974.024 144.125 973.043 145.931 972.023C143.007 972.73 140.002 973.38 137.082 974.028ZM144.276 969.635C142.478 970.734 140.71 971.812 138.924 972.929C141.99 972.24 145.086 971.53 148.121 970.86C149.958 969.82 151.764 968.799 153.582 967.798C150.527 968.371 147.38 969.003 144.276 969.635ZM151.445 965.204C149.646 966.302 147.83 967.44 146.032 968.538C149.252 967.885 152.472 967.231 155.649 966.579C157.516 965.518 159.352 964.478 161.219 963.418C158.004 964.013 154.703 964.609 151.445 965.204ZM158.613 960.773C156.785 961.891 154.938 963.048 153.109 964.166C156.484 963.55 159.858 962.933 163.19 962.317C165.087 961.237 166.996 960.176 168.894 959.095C165.494 959.674 162.038 960.233 158.613 960.773ZM165.782 956.341C163.936 957.499 162.076 958.637 160.26 959.774C163.789 959.194 167.275 958.615 170.76 958.035C172.657 956.955 174.585 955.855 176.482 954.774C172.928 955.316 169.361 955.838 165.782 956.341ZM172.908 951.911C171.061 953.068 169.202 954.206 167.325 955.383C170.978 954.86 174.618 954.317 178.245 953.755C180.173 952.654 182.1 951.554 184.015 950.435C180.319 950.959 176.629 951.425 172.908 951.911ZM180.064 947.46C178.187 948.638 176.267 949.815 174.39 950.993C178.197 950.505 181.948 950 185.7 949.494C187.627 948.394 189.555 947.294 191.469 946.174C187.71 946.602 183.853 947.012 180.064 947.46ZM187.146 943.03C185.269 944.208 183.392 945.385 181.516 946.562C185.36 946.133 189.279 945.683 193.111 945.234C195.099 944.094 197.044 942.955 199.033 941.814C195.076 942.207 191.133 942.618 187.146 943.03ZM194.277 938.541C192.37 939.738 190.462 940.936 188.585 942.113C192.615 941.7 196.602 941.288 200.601 940.895C202.546 939.756 204.504 938.635 206.449 937.496C202.394 937.87 198.314 938.206 194.277 938.541ZM201.347 934.092C199.44 935.289 197.532 936.486 195.625 937.684C199.736 937.328 203.846 936.972 207.914 936.617C209.889 935.458 211.877 934.318 213.853 933.158C209.76 933.475 205.538 933.793 201.347 934.092ZM208.417 929.643C206.509 930.84 204.615 932.056 202.708 933.254C206.942 932.954 211.194 932.616 215.373 932.298C217.349 931.139 219.355 929.959 221.33 928.8C217.01 929.101 212.75 929.361 208.417 929.643ZM215.492 925.135C213.554 926.352 211.66 927.569 209.722 928.786C214.111 928.523 218.401 928.242 222.734 927.961C224.71 926.802 226.685 925.642 228.648 924.464C224.29 924.707 219.918 924.93 215.492 925.135ZM1139.14 250.008C841.676 483.042 541.908 717.864 216.779 924.317C221.236 924.092 225.65 923.868 230.095 923.624C583.4 715.293 883.141 473.35 1177.96 231.658C1177.8 227.769 1177.68 223.82 1177.55 219.911C1164.74 229.976 1151.93 239.982 1139.14 250.008ZM-12.4312 1061.5C11.4296 1047.96 35.1639 1034.22 58.7236 1020.35C34.5542 1033.16 10.1419 1045.8 -14.5562 1058.27L-14.923 1057.71C14.2068 1042.99 43.0002 1028.03 71.4141 1012.82L71.9428 1012.5C42.7092 1026.59 12.9799 1040.46 -17.3009 1054.09L-17.6804 1053.51C15.1046 1038.74 47.2826 1023.7 78.8534 1008.4L81.3576 1006.92C48.2665 1021.43 14.3836 1035.65 -20.2911 1049.6L-20.6705 1049.02C15.7672 1034.39 51.2892 1019.42 86.0068 1004.15C87.2286 1003.43 88.4376 1002.69 89.6594 1001.97C53.0244 1016.57 15.3446 1030.83 -23.4532 1044.78L-23.8327 1044.21C16.3817 1029.77 55.3667 1014.97 93.2513 999.831C94.7159 998.952 96.1804 998.073 97.645 997.194C57.5369 1011.73 16.1007 1025.9 -26.8051 1039.68L-27.1972 1039.08C16.9001 1024.93 59.5023 1010.36 100.635 995.396C102.191 994.457 103.746 993.519 105.302 992.58C61.8648 1006.88 16.7127 1020.81 -30.3037 1034.28L-30.6958 1033.69C17.3779 1019.9 63.5444 1005.66 107.945 990.982C109.592 989.984 111.239 988.985 112.885 987.987C66.0333 1002.04 17.1324 1015.63 -33.9718 1028.7L-34.3766 1028.08C17.7243 1014.74 67.5358 1000.89 115.243 986.549C116.95 985.51 118.701 984.471 120.408 983.433C70.1512 997.134 17.4939 1010.29 -37.7664 1022.92L-38.1838 1022.28C18.0377 1009.46 71.5323 996.062 122.523 982.155C124.26 981.096 125.998 980.038 127.766 978.96C74.1578 992.188 17.7618 1004.87 -41.6874 1016.95L-42.1048 1016.31C18.2626 1004.05 75.4605 991.194 129.76 977.761C131.558 976.663 133.326 975.585 135.125 974.487C78.1392 987.202 17.9842 999.325 -45.7224 1010.8L-46.1524 1010.15C18.4116 998.521 79.3685 986.23 136.971 973.329C138.8 972.211 140.629 971.093 142.427 969.995C82.0952 982.179 18.1129 993.699 -49.8762 1004.54L-50.3188 1003.87C18.4797 992.935 83.1904 981.267 144.165 968.937C145.994 967.818 147.81 966.681 149.669 965.543C86.0132 977.097 18.2088 987.957 -54.0704 998.089L-54.5131 997.415C18.5756 987.193 87.0655 976.186 151.364 964.485C153.223 963.347 155.07 962.19 156.929 961.052C89.8757 971.997 18.2668 982.157 -58.371 991.539L-58.8263 990.846C18.5779 981.374 90.8976 971.106 158.563 960.034C160.452 958.876 162.299 957.719 164.188 956.561C93.7432 966.839 18.2741 976.281 -62.7474 984.874L-63.2027 984.181C18.5549 975.517 94.7347 965.967 165.701 955.623C167.578 954.445 169.468 953.287 171.314 952.13C97.555 961.662 18.2005 970.346 -67.187 978.113L-67.655 977.4C18.5116 969.563 98.5035 960.791 172.857 951.172C174.764 949.975 176.654 948.817 178.561 947.62C101.372 956.426 18.1497 964.315 -71.69 971.255L-72.158 970.542C18.4304 963.551 102.272 955.615 180.026 946.741C181.903 945.564 183.81 944.366 185.687 943.189C105.146 951.192 18.0305 958.245 -76.2561 964.301L-76.7367 963.569C18.2683 957.483 106.034 950.36 187.126 942.272C189.033 941.074 190.94 939.877 192.878 938.66C108.882 945.899 17.8734 952.118 -80.8728 957.27L-81.3535 956.538C18.1542 951.355 109.752 945.107 194.239 937.822C196.146 936.625 198.053 935.427 199.991 934.21C112.618 940.606 17.7214 945.932 -85.5402 950.162L-86.0335 949.41C17.9591 945.169 113.488 939.814 201.339 933.353C203.246 932.155 205.141 930.939 207.079 929.722C116.341 935.294 17.5011 939.708 -90.2581 942.976L-90.7514 942.225C17.7085 938.966 117.168 934.503 208.366 928.904C210.304 927.687 212.229 926.451 214.166 925.233C120.057 929.905 17.2858 933.426 -95.014 935.733L-95.5199 934.963C17.4805 932.664 120.853 929.133 215.441 924.396C540.85 717.841 840.91 482.801 1138.64 249.568C1151.6 239.403 1164.54 229.278 1177.52 219.133C1174.54 117.288 1188.21 6.7782 1250.2 -110.923L1251.66 -111.879C1189.34 5.92388 1175.54 116.494 1178.47 218.398L1193.39 206.724C1196.68 100.384 1217.4 -14.8663 1290.45 -137.351L1292.03 -138.387C1218.61 -15.7997 1197.69 99.5512 1194.36 205.95C1199.32 202.059 1204.29 198.187 1209.25 194.296C1219.41 82.8096 1248.09 -37.9159 1333.88 -165.872L1335.58 -166.988C1249.35 -38.9084 1220.49 81.9367 1210.19 193.542C1215.18 189.631 1220.15 185.759 1225.15 181.848C1241.5 74.644 1274.26 -40.5404 1356.33 -161.861L1356.78 -161.167C1275.19 -40.3797 1242.51 74.3171 1226.16 181.074C1231.12 177.183 1236.09 173.311 1241.08 169.4C1262.13 70.9185 1296.45 -33.8599 1368.44 -143.407L1368.91 -142.694C1297.39 -33.6992 1263.19 70.5517 1242.15 168.585C1247.13 164.714 1252.09 160.823 1257.03 156.971C1281.74 67.2476 1316.9 -27.269 1380.25 -125.434L1380.71 -124.721C1317.83 -27.1083 1282.8 66.8808 1258.15 156.097C1263.09 152.245 1268.07 148.373 1273.01 144.521C1300.33 63.6119 1335.78 -20.8679 1391.64 -108.077L1392.1 -107.384C1336.69 -20.7458 1301.38 63.2259 1274.16 143.628C1279.1 139.776 1284.07 135.904 1289.02 132.052C1317.91 59.8755 1352.98 -14.9271 1402.39 -91.6451L1402.83 -90.9709C1353.83 -14.8235 1318.99 59.411 1290.25 131.08C1295.19 127.228 1300.13 123.376 1305.06 119.563C1334.56 55.8613 1368.55 -9.60329 1412.41 -76.447L1412.85 -75.7727C1369.45 -9.55885 1335.69 55.3378 1306.41 118.452C1311.32 114.62 1316.25 110.808 1321.14 107.015C1350.33 51.6273 1382.72 -4.95829 1421.61 -62.4425L1422.04 -61.7875C1383.59 -4.8939 1351.5 51.1031 1322.62 105.883C1327.51 102.09 1332.39 98.2781 1337.29 94.4853C1365.31 47.0553 1395.53 -1.12895 1429.88 -49.9027L1430.31 -49.2477C1396.45 -1.1237 1366.56 46.452 1338.87 93.2543C1343.73 89.4815 1348.57 85.7287 1353.44 81.9751C1379.55 42.1446 1407.11 1.82431 1437.16 -38.8262L1437.57 -38.1905C1408.04 1.7711 1380.93 41.4031 1355.22 80.5852C1360.04 76.8715 1364.84 73.1385 1369.66 69.4248C1393.17 36.7568 1417.6 3.84103 1443.47 -29.2722L1443.89 -28.6365C1418.63 3.74729 1394.72 35.9351 1371.65 67.8955C1376.41 64.2217 1381.16 60.5478 1385.92 56.874C1406.27 30.9687 1427.14 4.93843 1448.77 -21.2008L1449.16 -20.6036C1428.19 4.74704 1407.93 29.9894 1388.16 55.1268C1392.84 51.532 1397.53 47.898 1402.21 44.3032C1418.89 24.7208 1435.8 5.09591 1453.11 -14.5935L1453.5 -13.9963C1436.99 4.7856 1420.78 23.5628 1404.86 42.2576C1409.42 38.7426 1413.99 35.2468 1418.55 31.751C1431.12 18.0705 1443.77 4.38853 1456.58 -9.31529L1456.96 -8.73739C1445.09 3.95931 1433.32 16.6547 1421.67 29.348C1426.08 25.9519 1430.51 22.5751 1434.93 19.1789C1442.98 10.9976 1451.08 2.81565 1459.18 -5.34702L1459.56 -4.76912C1452.6 2.22765 1445.65 9.24364 1438.78 16.2391C1442.99 13.0017 1447.22 9.78368 1451.41 6.56624C1454.59 3.53952 1457.8 0.492824 1461.02 -2.55382L1461.38 -1.9952C1459.7 -0.392815 1457.98 1.22946 1456.3 2.83184C1458.12 1.44136 1459.95 0.0509246 1461.8 -1.35949L1462.96 0.412736C1455.29 6.91466 1447.61 13.4166 1439.95 19.9378C1430.63 28.3137 1421.36 36.6891 1412.1 45.0837C1403.34 53.5095 1394.62 61.9153 1385.9 70.3404C1377.77 78.7369 1369.68 87.1135 1361.58 95.4901C1354.01 103.878 1346.52 112.245 1338.99 120.632C1332.02 129.011 1325.12 137.349 1318.18 145.708C1311.84 154.038 1305.52 162.348 1299.19 170.639C1295.55 175.871 1291.95 181.104 1288.3 186.336L1281.94 195.503L1279.45 199.453C1275.1 206.39 1270.78 213.307 1266.45 220.205C1261.84 228.41 1257.27 236.596 1252.7 244.723C1248.68 252.881 1244.67 260.999 1240.64 269.099C1237.16 277.229 1233.71 285.338 1230.26 293.371C1227.36 301.394 1224.46 309.359 1221.56 317.305C1219.21 325.3 1216.83 333.257 1214.44 341.137C1212.64 349.046 1210.8 356.897 1208.94 364.71C1207.66 372.552 1206.34 380.337 1204.98 388.045C1204.2 395.802 1203.43 403.481 1202.54 411.123C1202.27 418.795 1201.97 426.408 1201.59 433.964C1201.84 441.55 1202.02 449.039 1202.12 456.471C1209.17 529.199 1209.05 594.916 1182.65 652.81C1127.35 774.221 956.686 860.975 495.678 905.277C487.105 906.247 478.403 907.219 469.621 908.134C461.111 909.2 452.534 910.228 443.797 911.278C435.308 912.441 426.763 913.586 418.076 914.713C409.724 915.952 401.341 917.211 392.821 918.394C384.691 919.707 376.561 921.02 368.29 922.316C361.167 923.575 354.031 924.814 346.809 926.055C339.4 927.474 331.837 928.856 324.243 930.258C316.095 931.941 307.819 933.627 299.486 935.293C292.13 936.925 284.8 938.596 277.333 940.191C271.001 941.729 264.601 943.229 258.202 944.73C250.717 946.695 243.065 948.604 235.395 950.552C228.029 952.632 220.694 954.691 213.216 956.734C206.984 958.621 200.751 960.508 194.462 962.376C188.422 964.358 182.326 966.32 176.23 968.283C169.643 970.623 162.927 972.965 156.229 975.268C149.877 977.702 143.568 980.135 137.161 982.55C131.369 984.975 125.563 987.381 119.715 989.788C114.261 992.266 108.795 994.725 103.316 997.164C97.9335 999.817 92.5507 1002.47 87.1553 1005.1C81.99 1007.89 76.8551 1010.65 71.6772 1013.42C43.9742 1029.84 16.0459 1046.06 -12.0897 1062.02L-12.4312 1061.5Z" fill="url(#paint0_linear_323_879)"/>
<defs>
<linearGradient id="paint0_linear_323_879" x1="1614.2" y1="-12.7349" x2="-20.7241" y2="1060.78" gradientUnits="userSpaceOnUse">
<stop stop-color="#95C22B"/>
<stop offset="0.453125" stop-color="#95C22B" stop-opacity="0"/>
<stop offset="1" stop-color="#95C22B"/>
</linearGradient>
</defs>
</svg>
