<?xml version="1.0" encoding="UTF-8"?>
<svg id="Layer_1" data-name="Layer 1" xmlns="http://www.w3.org/2000/svg" viewBox="0 0 34.5 42.07">
  <defs>
    <style>
      .cls-1, .cls-2 {
        fill: none;
        stroke: #95c22b;
      }

      .cls-2 {
        stroke-linecap: round;
        stroke-linejoin: round;
        stroke-width: 2px;
      }

      .cls-3, .cls-4 {
        fill: #95c22b;
      }

      .cls-4 {
        fill-rule: evenodd;
      }
    </style>
  </defs>
  <path class="cls-2" d="M32.54,24.5c-3.28,8.85-11.65,16.57-15.09,16.57-4.33,0-16.44-12.2-16.44-23.52,0-2.3.48-4.58,1.4-6.69.92-2.11,2.27-4,3.97-5.55,1.69-1.55,3.68-2.73,5.85-3.46,2.17-.73,4.47-1,6.74-.79"/>
  <path class="cls-1" d="M17.27,25.82c.8,0,1.56.32,2.12.88.56.56.88,1.33.88,2.12s-.32,1.56-.88,2.12c-.56.56-1.33.88-2.12.88s-1.56-.32-2.12-.88c-.56-.56-.88-1.33-.88-2.12s.32-1.56.88-2.12c.56-.56,1.33-.88,2.12-.88Z"/>
  <path class="cls-2" d="M12.27,14.08c0,1.33.53,2.6,1.46,3.54.94.94,2.21,1.46,3.54,1.46s2.6-.53,3.54-1.46,1.46-2.21,1.46-3.54-.53-2.6-1.46-3.54c-.94-.94-2.21-1.46-3.54-1.46s-2.6.53-3.54,1.46c-.94.94-1.46,2.21-1.46,3.54Z"/>
  <path class="cls-4" d="M30.9,6.58v3.09c0,.34-.11.6-.29.78-.18.17-.4.24-.62.23-.25-.01-.51-.14-.69-.37-.05.42.09.71.14.78l.14.17-.29.31-.14-.17c-.16-.2-.34-.68-.23-1.31-.17.04-.35.04-.52,0-.18-.04-.36-.14-.49-.3-.14-.16-.22-.38-.22-.65,0-.38.12-.66.33-.86.19-.19.46-.3.72-.4.06-.02.13-.05.19-.07.51-.18,1.08-.39,1.63-.93l.33-.32ZM29.49,9.66c.08-.18.2-.37.36-.57l.13-.17-.3-.31-.13.17c-.2.25-.34.5-.44.74-.15.13-.39.18-.61.13-.12-.03-.22-.09-.29-.17-.06-.08-.11-.18-.11-.32,0-.25.07-.39.18-.5.13-.12.32-.21.59-.31.06-.02.12-.04.19-.07.42-.15.93-.34,1.44-.73v2.13c0,.21-.07.34-.15.42-.09.09-.21.13-.34.12-.27-.01-.5-.21-.52-.56Z"/>
  <path class="cls-4" d="M29.5,12.89l-.11.2h0s0,0,0,0h-.01s-.04-.02-.04-.02c-.04-.02-.09-.04-.16-.07-.79-.36-1.53-.79-2.21-1.29-1.2-.88-2.46-2.18-2.46-3.79,0-.73.28-1.43.77-1.95.49-.53,1.19-.88,2.01-.88.98,0,1.72.47,2.22,1.13.5-.66,1.24-1.13,2.22-1.13.82,0,1.52.36,2.01.88.49.53.77,1.23.77,1.95,0,1.55-1.26,2.85-2.46,3.74-.73.54-1.52,1.01-2.36,1.4l-.04.02h-.01s0,0,0,0h0s-.12-.2-.12-.2ZM25.68,6.24c-.41.44-.66,1.05-.66,1.68,0,1.41,1.11,2.6,2.28,3.45.67.49,1.41.91,2.19,1.27l.08-.04c.75-.36,1.47-.79,2.12-1.27,1.17-.87,2.28-2.06,2.28-3.41,0-.63-.25-1.24-.66-1.68-.41-.44-.97-.71-1.6-.71-.87,0-1.55.48-1.98,1.24l-.24.41-.24-.41c-.44-.76-1.11-1.24-1.98-1.24-.63,0-1.19.27-1.6.71Z"/>
  <path class="cls-3" d="M29.5,12.63l.21.37-.2.1-.2-.09.2-.38Z"/>
</svg>