<?xml version="1.0" encoding="UTF-8"?>
<svg id="Lag_1" xmlns="http://www.w3.org/2000/svg" version="1.1" xmlns:xlink="http://www.w3.org/1999/xlink" viewBox="0 0 52 52">
  <!-- Generator: Adobe Illustrator 29.8.5, SVG Export Plug-In . SVG Version: 2.1.1 Build 2)  -->
  <defs>
    <style>
      .st0 {
        mask: url(#mask-1);
      }

      .st1 {
        fill: #fff;
      }

      .st2 {
        mask: url(#mask);
      }

      .st3 {
        mask: url(#mask-2);
      }

      .st4 {
        fill: #95c22b;
      }

      .st5 {
        fill: none;
        stroke: #95c22b;
        stroke-linecap: round;
        stroke-width: 1.5px;
      }
    </style>
    <mask id="mask" x="21.79" y="17.16" width="8.43" height="17.69" maskUnits="userSpaceOnUse">
      <g id="path-1-inside-1_609_564">
        <path class="st1" d="M24.58,33.84s-.09,0-.14-.02c-.11-.04-.2-.11-.26-.21-.06-.1-.08-.22-.06-.33l1.2-6.1-2.19-.61c-.07-.02-.13-.05-.19-.1s-.1-.11-.12-.17c-.03-.07-.04-.14-.04-.21,0-.07.02-.14.06-.2l4.12-7.47c.06-.1.15-.17.25-.21.11-.04.22-.04.33,0,.11.04.19.12.25.21.05.1.07.21.05.33l-1.07,5.31,2.08.49c.14.04.26.13.32.26.03.07.05.14.05.21,0,.07-.02.14-.05.21l-4.15,8.38c-.04.08-.1.15-.18.19-.08.05-.16.07-.25.07ZM27.32,18.79l-4.04,7.33,2.39.64c.13.03.2.16.18.29l-1.21,6.14,4.07-8.21-2.29-.51c-.06-.01-.12-.05-.15-.11-.03-.05-.05-.12-.03-.18l1.09-5.38Z"/>
      </g>
    </mask>
    <mask id="mask-1" x="15.42" y="14.5" width="22" height="22" maskUnits="userSpaceOnUse">
      <g id="path-1-inside-1_609_562">
        <path class="st1" d="M26.42,35.5s0,0,0,0c-2.68,0-5.19-1.04-7.08-2.92-1.89-1.89-2.92-4.4-2.92-7.08s1.04-5.19,2.92-7.07c1.89-1.89,4.4-2.93,7.08-2.93s5.19,1.04,7.07,2.93c3.9,3.9,3.9,10.25,0,14.15-1.89,1.88-4.4,2.92-7.07,2.92ZM26.42,16.01c-2.54,0-4.92.99-6.72,2.78-1.79,1.79-2.78,4.17-2.78,6.71s.99,4.93,2.78,6.72c1.79,1.79,4.17,2.77,6.72,2.77s4.93-.99,6.72-2.77c3.7-3.7,3.7-9.73,0-13.43-1.79-1.79-4.18-2.78-6.71-2.78Z"/>
      </g>
    </mask>
    <mask id="mask-2" x="12.81" y="12.1" width="27" height="27" maskUnits="userSpaceOnUse">
      <g id="path-1-inside-1_609_5621" data-name="path-1-inside-1_609_562">
        <path class="st1" d="M26.31,37.87s0,0,0,0c-3.29,0-6.37-1.27-8.68-3.59-2.31-2.31-3.59-5.4-3.59-8.68s1.27-6.37,3.59-8.68c2.32-2.32,5.4-3.59,8.68-3.59s6.37,1.28,8.68,3.59c4.79,4.79,4.79,12.58,0,17.37-2.32,2.31-5.4,3.59-8.68,3.59ZM26.31,13.95c-3.12,0-6.04,1.21-8.24,3.41-2.2,2.2-3.41,5.12-3.41,8.24s1.21,6.05,3.41,8.24c2.2,2.2,5.12,3.41,8.24,3.41s6.04-1.21,8.24-3.41c4.54-4.54,4.54-11.94,0-16.48-2.2-2.2-5.12-3.41-8.24-3.41Z"/>
      </g>
    </mask>
  </defs>
  <path class="st5" d="M6,22c1.56-7.63,7.34-13.74,14.81-15.82.63-.17.94-.26,1.11-.08.17.19.04.5-.2,1.12l-1.72,3.78M30,6c7.63,1.56,13.74,7.34,15.82,14.81.17.63.26.94.08,1.11-.19.17-.5.04-1.12-.2l-3.78-1.72M46,30c-1.56,7.63-7.34,13.74-14.81,15.82-.63.17-.94.26-1.11.08-.17-.19-.04-.5.2-1.12l1.72-3.78M22,46c-7.63-1.56-13.74-7.34-15.82-14.81-.17-.63-.26-.94-.08-1.11.19-.17.5-.04,1.12.2l3.78,1.72"/>
  <g class="st2">
    <path class="st4" d="M24.58,33.84v1h0v-1ZM24.44,33.82l-.31.95h.02s.02.01.02.01l.28-.96ZM24.12,33.28l-.98-.19h0s.98.19.98.19ZM25.32,27.17l.98.19.18-.91-.89-.25-.27.96ZM23.13,26.56l-.27.96h0s.27-.96.27-.96ZM22.85,25.87l.87.49h0s-.88-.49-.88-.49ZM26.97,18.4l-.87-.5h0s0,.01,0,.01l.88.48ZM27.55,18.18l.34-.94h0s-.34.94-.34.94ZM27.85,18.72l-.98-.21h0s0,.02,0,.02l.98.2ZM26.77,24.03l-.98-.2-.19.95.94.22.23-.97ZM28.85,24.52l.26-.96h-.02s-.02,0-.02,0l-.23.97ZM29.17,24.78l.9-.43h0s-.9.43-.9.43ZM29.16,25.2l-.89-.45h0s.9.45.9.45ZM25.01,33.58l.9.44h0s-.9-.44-.9-.44ZM27.32,18.79l.98.2-1.86-.68.88.48ZM23.28,26.12l-.88-.48-.62,1.12,1.23.33.26-.97ZM25.67,26.75l.27-.96h-.01s-.26.96-.26.96ZM25.85,27.04l-.98-.2h0s.98.2.98.2ZM24.64,33.19l-.98-.19,1.88.64-.9-.44ZM28.71,24.98l.9.44.57-1.14-1.24-.28-.22.98ZM26.42,24.46l-.23.97h.01s.22-.97.22-.97ZM26.23,24.17l.98.2h0s-.98-.2-.98-.2ZM24.58,33.84v-1c.06,0,.11,0,.14.02l-.28.96-.28.96c.13.04.27.06.42.06v-1ZM24.44,33.82l.31-.95c.12.04.22.12.28.23l-.86.51-.86.51c.18.31.47.54.81.65l.31-.95ZM24.18,33.61l.86-.51c.06.11.09.23.06.36l-.98-.18-.98-.18c-.06.35,0,.72.18,1.02l.86-.51ZM24.12,33.28l.98.19,1.2-6.1-.98-.19-.98-.19-1.2,6.1.98.19ZM25.32,27.17l.27-.96-2.19-.61-.27.96-.27.96,2.19.61.27-.96ZM23.13,26.56l.27-.96c.08.02.15.06.21.11l-.66.75-.66.75c.17.15.36.26.58.32l.27-.96ZM22.95,26.46l.66-.75c.06.05.11.12.14.19l-.92.38-.92.38c.09.21.22.39.38.54l.66-.75ZM22.82,26.29l.92-.38c.03.07.04.15.04.23l-1-.06-1-.06c-.01.22.02.44.11.65l.92-.38ZM22.79,26.08l1,.06c0,.08-.03.16-.07.23l-.87-.49-.87-.49c-.11.19-.17.41-.18.63l1,.06ZM22.85,25.87l.88.48,4.12-7.47-.88-.48-.88-.48-4.12,7.47.88.48ZM26.97,18.4l.87.5c-.06.11-.16.19-.27.23l-.34-.94-.34-.94c-.33.12-.6.35-.78.66l.87.5ZM27.22,18.18l.34.94c-.11.04-.24.04-.36,0l.34-.94.34-.94c-.33-.12-.69-.12-1.02,0l.34.94ZM27.55,18.18l-.34.94c-.12-.04-.22-.13-.28-.24l.88-.48.88-.48c-.17-.31-.45-.55-.78-.67l-.34.94ZM27.8,18.4l-.88.48c-.06-.11-.08-.24-.05-.37l.98.21.98.21c.08-.35.02-.71-.15-1.02l-.88.48ZM27.85,18.72l-.98-.2-1.07,5.31.98.2.98.2,1.07-5.3-.98-.2ZM26.77,24.03l-.23.97,2.08.49.23-.97.23-.97-2.08-.49-.23.97ZM28.85,24.52l-.26.96c-.12-.03-.25-.12-.32-.28l.9-.43.9-.43c-.19-.4-.55-.68-.96-.79l-.26.96ZM29.17,24.78l-.9.43c-.03-.07-.05-.15-.05-.23h1s1,.03,1,.03c0-.22-.05-.45-.14-.65l-.9.43ZM29.21,24.99h-1c0-.09.02-.17.06-.24l.89.45.89.45c.1-.2.16-.42.16-.65h-1ZM29.16,25.2l-.9-.44-4.15,8.38.9.44.9.44,4.15-8.38-.9-.44ZM25.01,33.58l-.9-.44c.04-.09.11-.16.19-.21l.53.85.53.85c.23-.14.42-.35.54-.6l-.9-.44ZM24.83,33.77l-.53-.85c.08-.05.18-.08.28-.08v1s0,1,0,1c.27,0,.54-.08.78-.22l-.53-.85ZM27.32,18.79l-.88-.48-4.04,7.33.88.48.88.48,4.04-7.33-.88-.48ZM23.28,26.12l-.26.97,2.39.64.26-.97.26-.97-2.39-.64-.26.97ZM25.67,26.75l-.27.96c-.38-.11-.61-.48-.53-.87l.98.2.98.2c.13-.64-.26-1.27-.89-1.45l-.27.96ZM25.85,27.04l-.98-.19-1.21,6.14.98.19.98.19,1.21-6.14-.98-.19ZM24.64,33.19l.9.44,4.07-8.21-.9-.44-.9-.44-4.07,8.21.9.44ZM28.71,24.98l.22-.98-2.29-.51-.22.98-.22.98,2.29.51.22-.98ZM26.42,24.46l.23-.97c.19.04.35.16.46.33l-.84.54-.84.54c.17.27.45.47.77.54l.23-.97ZM26.27,24.35l.84-.54c.1.16.14.36.1.55l-.98-.2-.98-.2c-.06.32,0,.65.17.92l.84-.54ZM26.23,24.17l.98.2,1.09-5.38-.98-.2-.98-.2-1.09,5.38.98.2Z"/>
  </g>
  <g class="st0">
    <path class="st4" d="M19.35,18.42l.71.71h0s-.71-.71-.71-.71ZM33.5,18.42l.71-.71h0s-.71.71-.71.71ZM33.5,32.57l.71.71h0s-.71-.71-.71-.71ZM19.71,18.78l-.71-.71h0s.71.71.71.71ZM33.14,32.21l.71.71h0s-.71-.71-.71-.71ZM33.14,18.78l.71-.71h0s-.71.71-.71.71ZM26.42,35.5v-1h0v2h0v-2h0v2h0v-1ZM26.42,35.5v-1c-2.41,0-4.67-.93-6.37-2.63l-.71.71-.71.71c2.07,2.07,4.84,3.22,7.78,3.22v-1ZM19.35,32.57l.71-.71c-1.7-1.7-2.63-3.96-2.63-6.37h-2c0,2.94,1.14,5.71,3.22,7.78l.71-.71ZM16.42,25.5h1c0-2.41.93-4.67,2.63-6.37l-.71-.71-.71-.71c-2.07,2.07-3.22,4.84-3.22,7.78h1ZM19.35,18.42l.71.71c1.7-1.7,3.96-2.63,6.37-2.63v-2c-2.94,0-5.71,1.14-7.78,3.22l.71.71ZM26.42,15.5v1c2.41,0,4.67.93,6.37,2.63l.71-.71.71-.71c-2.08-2.08-4.84-3.22-7.78-3.22v1ZM33.5,18.42l-.71.71c3.51,3.51,3.51,9.22,0,12.74l.71.71.71.71c4.29-4.29,4.29-11.27,0-15.56l-.71.71ZM33.5,32.57l-.71-.71c-1.7,1.7-3.96,2.63-6.37,2.63v2c2.94,0,5.71-1.14,7.78-3.22l-.71-.71ZM26.42,16.01v-1c-2.8,0-5.44,1.09-7.42,3.07l.71.71.71.71c1.6-1.6,3.73-2.48,6.01-2.48v-1ZM19.71,18.78l-.71-.71c-1.98,1.98-3.07,4.62-3.07,7.42h2c0-2.28.88-4.41,2.48-6.01l-.71-.71ZM16.93,25.5h-1c0,2.8,1.09,5.44,3.07,7.42l.71-.71.71-.71c-1.6-1.6-2.48-3.73-2.48-6.01h-1ZM19.71,32.21l-.71.71c1.98,1.98,4.62,3.07,7.42,3.07v-2c-2.28,0-4.41-.88-6.01-2.48l-.71.71ZM26.42,34.99v1c2.8,0,5.44-1.09,7.42-3.07l-.71-.71-.71-.71c-1.6,1.6-3.73,2.48-6.01,2.48v1ZM33.14,32.21l.71.71c4.09-4.09,4.09-10.75,0-14.84l-.71.71-.71.71c3.31,3.31,3.31,8.7,0,12.02l.71.71ZM33.14,18.78l.71-.71c-1.98-1.98-4.62-3.07-7.42-3.07v2c2.27,0,4.4.88,6.01,2.48l.71-.71Z"/>
  </g>
  <g class="st3">
    <path class="st4" d="M17.62,16.92l.87.87h0s-.87-.87-.87-.87ZM34.99,16.92l.87-.87h0s-.87.87-.87.87ZM34.99,34.28l.87.87h0s-.87-.87-.87-.87ZM18.06,17.36l-.87-.87h0s.87.87.87.87ZM34.55,33.84l.87.87h0s-.87-.87-.87-.87ZM34.55,17.36l.87-.87h0s-.87.87-.87.87ZM26.31,37.87v-1.23h0v2.45h0v-2.45h0v2.45h0v-1.23ZM26.31,37.87v-1.23c-2.96,0-5.73-1.15-7.82-3.23l-.87.87-.87.87c2.54,2.54,5.94,3.95,9.55,3.95v-1.23ZM17.62,34.28l.87-.87c-2.08-2.08-3.23-4.85-3.23-7.82h-2.45c0,3.61,1.4,7.01,3.95,9.55l.87-.87ZM14.03,25.6h1.23c0-2.96,1.15-5.73,3.23-7.81l-.87-.87-.87-.87c-2.55,2.54-3.95,5.94-3.95,9.55h1.23ZM17.62,16.92l.87.87c2.08-2.09,4.86-3.23,7.82-3.23v-2.45c-3.61,0-7.01,1.4-9.55,3.95l.87.87ZM26.31,13.32v1.23c2.96,0,5.73,1.15,7.81,3.23l.87-.87.87-.87c-2.55-2.55-5.94-3.95-9.55-3.95v1.23ZM34.99,16.92l-.87.87c4.31,4.31,4.31,11.32,0,15.63l.87.87.87.87c5.27-5.27,5.27-13.83,0-19.1l-.87.87ZM34.99,34.28l-.87-.87c-2.08,2.08-4.86,3.23-7.82,3.23v2.45c3.61,0,7-1.4,9.55-3.95l-.87-.87ZM26.31,13.95v-1.23c-3.44,0-6.68,1.34-9.11,3.77l.87.87.87.87c1.97-1.97,4.58-3.05,7.37-3.05v-1.23ZM18.06,17.36l-.87-.87c-2.43,2.43-3.77,5.67-3.77,9.11h2.45c0-2.79,1.08-5.41,3.05-7.37l-.87-.87ZM14.66,25.6h-1.23c0,3.44,1.34,6.68,3.77,9.11l.87-.87.87-.87c-1.97-1.97-3.05-4.58-3.05-7.37h-1.23ZM18.06,33.84l-.87.87c2.43,2.43,5.67,3.76,9.11,3.76v-2.45c-2.79,0-5.41-1.08-7.37-3.05l-.87.87ZM26.31,37.25v1.23c3.44,0,6.68-1.34,9.11-3.76l-.87-.87-.87-.87c-1.97,1.96-4.58,3.05-7.37,3.05v1.23ZM34.55,33.84l.87.87c5.02-5.02,5.02-13.19,0-18.22l-.87.87-.87.87c4.06,4.07,4.06,10.68,0,14.75l.87.87ZM34.55,17.36l.87-.87c-2.43-2.43-5.67-3.77-9.11-3.77v2.45c2.79,0,5.4,1.08,7.37,3.05l.87-.87Z"/>
  </g>
  <path class="st4" d="M23.14,49.21c-.12,0-.23.05-.31.13-.08.09-.13.2-.13.32s.05.24.13.32c.08.09.19.13.31.13h6.12c.12,0,.23-.05.31-.13.08-.09.13-.2.13-.32s-.05-.24-.13-.32c-.08-.09-.19-.13-.31-.13h-6.12ZM28.37,45.68s-.09-.08-.14-.1c-.05-.02-.11-.03-.17-.03s-.11.01-.17.03c-.05.02-.1.06-.14.1l-1.11,1.16v-4.51c0-.12-.05-.24-.13-.32-.08-.09-.19-.13-.31-.13s-.23.05-.31.13c-.08.09-.13.2-.13.32v4.51l-1.11-1.16c-.08-.09-.19-.13-.31-.13-.12,0-.23.05-.31.13-.08.09-.13.2-.13.32,0,.12.05.24.13.32l1.86,1.94c.08.09.19.13.31.13s.23-.05.31-.13l1.86-1.94s.07-.09.09-.15c.02-.06.03-.12.03-.18s-.01-.12-.03-.18c-.02-.06-.05-.11-.09-.15Z"/>
  <path class="st4" d="M3.74,22.94c0-.12-.05-.23-.13-.31-.09-.08-.2-.13-.32-.13s-.24.05-.32.13c-.09.08-.13.19-.13.31v6.12c0,.12.05.23.13.31.09.08.2.13.32.13s.24-.05.32-.13c.09-.08.13-.19.13-.31v-6.12ZM7.27,28.17s.08-.09.1-.14c.02-.05.03-.11.03-.17s-.01-.11-.03-.17c-.02-.05-.06-.1-.1-.14l-1.16-1.11h4.51c.12,0,.24-.05.32-.13.09-.08.13-.19.13-.31s-.05-.23-.13-.31c-.09-.08-.2-.13-.32-.13h-4.51s1.16-1.11,1.16-1.11c.09-.08.13-.19.13-.31,0-.12-.05-.23-.13-.31-.09-.08-.2-.13-.32-.13-.12,0-.24.05-.32.13l-1.94,1.86c-.09.08-.13.19-.13.31s.05.23.13.31l1.94,1.86s.09.07.15.09c.06.02.12.03.18.03s.12-.01.18-.03c.06-.02.11-.05.15-.09Z"/>
  <path class="st4" d="M29.25,4.4c.12,0,.23-.05.31-.13.08-.09.13-.2.13-.32s-.05-.24-.13-.32c-.08-.09-.19-.13-.31-.13h-6.12c-.12,0-.23.05-.31.13-.08.09-.13.2-.13.32s.05.24.13.32c.08.09.19.13.31.13h6.12ZM24.02,7.93s.09.08.14.1c.05.02.11.03.17.03s.11-.01.17-.03c.05-.02.1-.06.14-.1l1.11-1.16v4.51c0,.12.05.24.13.32.08.09.19.13.31.13s.23-.05.31-.13c.08-.09.13-.2.13-.32v-4.51s1.11,1.16,1.11,1.16c.08.09.19.13.31.13.12,0,.23-.05.31-.13.08-.09.13-.2.13-.32,0-.12-.05-.24-.13-.32l-1.86-1.94c-.08-.09-.19-.13-.31-.13s-.23.05-.31.13l-1.86,1.94s-.07.09-.09.15c-.02.06-.03.12-.03.18s.01.12.03.18c.02.06.05.11.09.15Z"/>
  <path class="st4" d="M47.69,22.94c0-.12.05-.23.13-.31.09-.08.2-.13.32-.13s.24.05.32.13c.09.08.13.19.13.31v6.12c0,.12-.05.23-.13.31-.09.08-.2.13-.32.13s-.24-.05-.32-.13c-.09-.08-.13-.19-.13-.31v-6.12ZM44.16,28.17s-.08-.09-.1-.14c-.02-.05-.03-.11-.03-.17s.01-.11.03-.17c.02-.05.06-.1.1-.14l1.16-1.11h-4.51c-.12,0-.24-.05-.32-.13-.09-.08-.13-.19-.13-.31s.05-.23.13-.31c.09-.08.2-.13.32-.13h4.51s-1.16-1.11-1.16-1.11c-.09-.08-.13-.19-.13-.31,0-.12.05-.23.13-.31.09-.08.2-.13.32-.13.12,0,.24.05.32.13l1.94,1.86c.09.08.13.19.13.31s-.05.23-.13.31l-1.94,1.86s-.09.07-.15.09c-.06.02-.12.03-.18.03s-.12-.01-.18-.03c-.06-.02-.11-.05-.15-.09Z"/>
</svg>