<svg width="40" height="35" viewBox="0 0 40 35" fill="none" xmlns="http://www.w3.org/2000/svg">
<path fill-rule="evenodd" clip-rule="evenodd" d="M38.2189 9.49836C37.8346 9.62198 37.4191 9.64522 37.0207 9.56538C36.6223 9.48553 36.2574 9.30589 35.9684 9.04735L34.3818 7.62214L22.3188 18.4388C22.1186 18.6184 21.8809 18.7609 21.6193 18.8581C21.3577 18.9553 21.0772 19.0053 20.794 19.0053C20.5108 19.0053 20.2304 18.9553 19.9688 18.8581C19.7072 18.7609 19.4695 18.6184 19.2693 18.4388L14.6677 14.3126L3.70547 24.1421C3.50652 24.3267 3.26858 24.4738 3.00553 24.575C2.74248 24.6762 2.45958 24.7294 2.17336 24.7315C1.88713 24.7336 1.6033 24.6846 1.33844 24.5873C1.07357 24.49 0.83296 24.3464 0.630657 24.1648C0.428353 23.9832 0.268404 23.7673 0.16014 23.5298C0.0518774 23.2922 -0.00253085 23.0376 9.03988e-05 22.781C0.00271165 22.5243 0.0623099 22.2707 0.175408 22.0349C0.288505 21.7992 0.452838 21.5859 0.658816 21.4077L13.1386 10.2097C13.3388 10.0301 13.5765 9.88757 13.8381 9.79035C14.0997 9.69314 14.3802 9.6431 14.6634 9.6431C14.9466 9.6431 15.227 9.69314 15.4886 9.79035C15.7502 9.88757 15.9879 10.0301 16.1881 10.2097L20.7926 14.3384L31.3323 4.88771L29.7457 3.46508C29.4568 3.20634 29.2558 2.87934 29.1661 2.52214C29.0764 2.16495 29.1016 1.79225 29.239 1.44743C29.3763 1.10261 29.62 0.799856 29.9417 0.574408C30.2635 0.348959 30.65 0.210089 31.0564 0.173963C33.6805 -0.0579876 35.1895 -0.0579876 37.7159 0.173963C38.2089 0.219675 38.6694 0.416354 39.0196 0.730872C39.3698 1.04539 39.5885 1.45853 39.6387 1.9007C39.9003 4.16351 39.8974 5.51913 39.6387 7.86955C39.5983 8.23373 39.4434 8.58013 39.1921 8.86847C38.9407 9.15681 38.6032 9.37524 38.2189 9.49836ZM33.554 13.3848C33.8797 13.1016 34.2967 12.9178 34.7457 12.8595C35.1947 12.8012 35.6527 12.8714 36.0546 13.0601L38.8483 14.3745C39.2098 14.5451 39.5098 14.8042 39.7133 15.1218C39.9169 15.4394 40.0156 15.8023 39.998 16.1682L39.2047 33.147C39.1817 33.6456 38.9445 34.117 38.5427 34.4624C38.1409 34.8078 37.6057 35.0004 37.0491 35H31.3811C31.1906 35 31.0078 34.9321 30.8731 34.8113C30.7383 34.6905 30.6626 34.5266 30.6626 34.3557V16.1708C30.6624 16.0843 30.6817 15.9986 30.7192 15.9189C30.7567 15.8392 30.8118 15.7671 30.881 15.7069L33.554 13.3848ZM27.0698 34.3557C27.0698 34.5266 26.9941 34.6905 26.8594 34.8113C26.7246 34.9321 26.5419 35 26.3513 35H15.573C15.3825 35 15.1997 34.9321 15.065 34.8113C14.9302 34.6905 14.8545 34.5266 14.8545 34.3557V19.3717C14.8545 19.3202 14.8976 19.2789 14.9551 19.2841C15.4236 19.3047 15.8835 19.4645 16.2628 19.7609L20.9909 23.4824C21.1265 23.5894 21.302 23.6467 21.4826 23.6428C21.6631 23.639 21.8355 23.5744 21.9653 23.4618L25.8512 20.0804C25.9526 19.9923 26.0808 19.9329 26.2197 19.9097C26.3586 19.8865 26.502 19.9005 26.6321 19.95C26.7621 19.9995 26.873 20.0823 26.9509 20.188C27.0287 20.2937 27.0701 20.4177 27.0698 20.5443V34.3557ZM10.0287 22.8535L1.08995 31.0388C0.694334 31.3999 0.472459 31.8857 0.471993 32.3918V33.0671C0.471993 34.134 1.43772 35 2.62764 35H10.5432C10.7338 35 10.9165 34.9321 11.0513 34.8113C11.186 34.6905 11.2617 34.5266 11.2617 34.3557V23.3046C11.262 23.1763 11.2196 23.0509 11.14 22.9444C11.0603 22.8379 10.947 22.7552 10.8146 22.7067C10.6822 22.6583 10.5367 22.6464 10.3967 22.6726C10.2567 22.6987 10.1285 22.7617 10.0287 22.8535Z" fill="#95C22B"/>
</svg>
