<svg width="80" height="80" viewBox="0 0 80 80" fill="none" xmlns="http://www.w3.org/2000/svg">
<path fill-rule="evenodd" clip-rule="evenodd" d="M55.9015 29.6769C56.3227 29.9991 56.5987 30.4753 56.6689 31.001C56.739 31.5266 56.5975 32.0586 56.2755 32.4799L52.3755 37.5759C52.8738 38.4743 53.0833 39.5043 52.9755 40.5259L62.8985 46.1709C63.3596 46.4332 63.6976 46.8679 63.8381 47.3794C63.9787 47.8909 63.9103 48.4373 63.648 48.8984C63.3857 49.3595 62.951 49.6975 62.4395 49.838C61.928 49.9786 61.3816 49.9102 60.9205 49.6479L50.9985 44.0029C50.3234 44.5078 49.5316 44.8338 48.6967 44.9506C47.8618 45.0674 47.0109 44.9712 46.2231 44.671C45.4354 44.3707 44.7363 43.8762 44.191 43.2333C43.6456 42.5904 43.2717 41.8201 43.1039 40.9939C42.9361 40.1677 42.98 39.3125 43.2314 38.5079C43.4828 37.7032 43.9335 36.9751 44.5418 36.3914C45.15 35.8077 45.896 35.3872 46.7103 35.1691C47.5247 34.951 48.3809 34.9423 49.1995 35.1439L53.0985 30.0499C53.2581 29.8413 53.4572 29.6661 53.6845 29.5345C53.9118 29.4028 54.1629 29.3172 54.4232 29.2826C54.6836 29.248 54.9483 29.265 55.2021 29.3326C55.4559 29.4003 55.6929 29.5173 55.9015 29.6769ZM48.0015 38.9999C47.7363 38.9999 47.4819 39.1053 47.2944 39.2928C47.1069 39.4803 47.0015 39.7347 47.0015 39.9999C47.0015 40.2651 47.1069 40.5195 47.2944 40.707C47.4819 40.8946 47.7363 40.9999 48.0015 40.9999C48.2667 40.9999 48.5211 40.8946 48.7086 40.707C48.8961 40.5195 49.0015 40.2651 49.0015 39.9999C49.0015 39.7347 48.8961 39.4803 48.7086 39.2928C48.5211 39.1053 48.2667 38.9999 48.0015 38.9999Z" fill="#95C22B"/>
<path fill-rule="evenodd" clip-rule="evenodd" d="M38.7514 17.6669C44.6746 15.2137 51.3298 15.2139 57.2528 17.6675C60.1856 18.8824 62.8504 20.6631 65.0951 22.9079C67.3397 25.1527 69.1202 27.8176 70.3349 30.7504C71.5496 33.6833 72.1748 36.8267 72.1747 40.0012C72.1746 43.1757 71.5492 46.3191 70.3343 49.2519C69.1194 52.1847 67.3387 54.8495 65.094 57.0941C62.8492 59.3387 60.1843 61.1192 57.2514 62.3339C51.3282 64.7872 44.673 64.787 38.75 62.3333C32.8269 59.8797 28.1212 55.1736 25.6679 49.2504C23.2147 43.3272 23.2149 36.6721 25.6685 30.749C28.1221 24.8259 32.8282 20.1202 38.7514 17.6669ZM55.7214 21.3629C50.7783 19.3155 45.2243 19.3155 40.2812 21.363C35.3381 23.4105 31.4109 27.3378 29.3634 32.2809C27.3159 37.224 27.316 42.778 29.3635 47.7211C31.411 52.6642 35.3383 56.5915 40.2814 58.6389C45.2245 60.6864 50.7785 60.6864 55.7216 58.6389C58.1692 57.625 60.3931 56.139 62.2664 54.2657C64.1396 52.3924 65.6256 50.1685 66.6394 47.7209C67.6532 45.2734 68.175 42.6501 68.175 40.0008C68.175 37.3516 67.6532 34.7283 66.6393 32.2807C65.6255 29.8332 64.1395 27.6093 62.2662 25.736C60.3929 23.8627 58.169 22.3767 55.7214 21.3629Z" fill="#95C22B"/>
<path d="M13 54C12.4696 54 11.9609 54.2107 11.5858 54.5858C11.2107 54.9609 11 55.4696 11 56C11 56.5304 11.2107 57.0391 11.5858 57.4142C11.9609 57.7893 12.4696 58 13 58H23C23.5304 58 24.0391 57.7893 24.4142 57.4142C24.7893 57.0391 25 56.5304 25 56C25 55.4696 24.7893 54.9609 24.4142 54.5858C24.0391 54.2107 23.5304 54 23 54H13ZM20 40C20 40.5304 19.7893 41.0391 19.4142 41.4142C19.0391 41.7893 18.5304 42 18 42H8C7.46957 42 6.96086 41.7893 6.58579 41.4142C6.21071 41.0391 6 40.5304 6 40C6 39.4696 6.21071 38.9609 6.58579 38.5858C6.96086 38.2107 7.46957 38 8 38H18C18.5304 38 19.0391 38.2107 19.4142 38.5858C19.7893 38.9609 20 39.4696 20 40ZM10 46C9.46957 46 8.96086 46.2107 8.58579 46.5858C8.21071 46.9609 8 47.4696 8 48C8 48.5304 8.21071 49.0391 8.58579 49.4142C8.96086 49.7893 9.46957 50 10 50H20C20.5304 50 21.0391 49.7893 21.4142 49.4142C21.7893 49.0391 22 48.5304 22 48C22 47.4696 21.7893 46.9609 21.4142 46.5858C21.0391 46.2107 20.5304 46 20 46H10Z" fill="#95C22B"/>
<path d="M55.9015 29.6769C56.3227 29.9991 56.5987 30.4753 56.6689 31.001C56.739 31.5266 56.5975 32.0586 56.2755 32.4799L52.3755 37.5759C52.8738 38.4743 53.0833 39.5043 52.9755 40.5259L62.8985 46.1709C63.3596 46.4332 63.6976 46.8679 63.8381 47.3794C63.9787 47.8909 63.9103 48.4373 63.648 48.8984C63.3857 49.3595 62.951 49.6975 62.4395 49.838C61.928 49.9786 61.3816 49.9102 60.9205 49.6479L50.9985 44.0029C50.3234 44.5078 49.5316 44.8338 48.6967 44.9506C47.8618 45.0674 47.0109 44.9712 46.2231 44.671C45.4354 44.3707 44.7363 43.8762 44.191 43.2333C43.6456 42.5904 43.2717 41.8201 43.1039 40.9939C42.9361 40.1677 42.98 39.3125 43.2314 38.5079C43.4828 37.7032 43.9335 36.9751 44.5418 36.3914C45.15 35.8077 45.896 35.3872 46.7103 35.1691C47.5247 34.951 48.3809 34.9423 49.1995 35.1439L53.0985 30.0499C53.2581 29.8413 53.4572 29.6661 53.6845 29.5345C53.9118 29.4028 54.1629 29.3172 54.4232 29.2826C54.6836 29.248 54.9483 29.265 55.2021 29.3326C55.4559 29.4003 55.6929 29.5173 55.9015 29.6769ZM48.0015 38.9999C47.7363 38.9999 47.4819 39.1053 47.2944 39.2928C47.1069 39.4803 47.0015 39.7347 47.0015 39.9999C47.0015 40.2651 47.1069 40.5195 47.2944 40.707C47.4819 40.8946 47.7363 40.9999 48.0015 40.9999C48.2667 40.9999 48.5211 40.8946 48.7086 40.707C48.8961 40.5195 49.0015 40.2651 49.0015 39.9999C49.0015 39.7347 48.8961 39.4803 48.7086 39.2928C48.5211 39.1053 48.2667 38.9999 48.0015 38.9999Z" stroke="#95C22B" stroke-width="0.25" stroke-linecap="round" stroke-linejoin="round"/>
<path d="M38.7514 17.6669C44.6746 15.2137 51.3298 15.2139 57.2528 17.6675C60.1856 18.8824 62.8504 20.6631 65.0951 22.9079C67.3397 25.1527 69.1202 27.8176 70.3349 30.7504C71.5496 33.6833 72.1748 36.8267 72.1747 40.0012C72.1746 43.1757 71.5492 46.3191 70.3343 49.2519C69.1194 52.1847 67.3387 54.8495 65.094 57.0941C62.8492 59.3387 60.1843 61.1192 57.2514 62.3339C51.3282 64.7872 44.673 64.787 38.75 62.3333C32.8269 59.8797 28.1212 55.1736 25.6679 49.2504C23.2147 43.3272 23.2149 36.6721 25.6685 30.749C28.1221 24.8259 32.8282 20.1202 38.7514 17.6669ZM55.7214 21.3629C50.7783 19.3155 45.2243 19.3155 40.2812 21.363C35.3381 23.4105 31.4109 27.3378 29.3634 32.2809C27.3159 37.224 27.316 42.778 29.3635 47.7211C31.411 52.6642 35.3383 56.5915 40.2814 58.6389C45.2245 60.6864 50.7785 60.6864 55.7216 58.6389C58.1692 57.625 60.3931 56.139 62.2664 54.2657C64.1396 52.3924 65.6256 50.1685 66.6394 47.7209C67.6532 45.2734 68.175 42.6501 68.175 40.0008C68.175 37.3516 67.6532 34.7283 66.6393 32.2807C65.6255 29.8332 64.1395 27.6093 62.2662 25.736C60.3929 23.8627 58.169 22.3767 55.7214 21.3629Z" stroke="#95C22B" stroke-width="0.25" stroke-linecap="round" stroke-linejoin="round"/>
<path d="M13 54C12.4696 54 11.9609 54.2107 11.5858 54.5858C11.2107 54.9609 11 55.4696 11 56C11 56.5304 11.2107 57.0391 11.5858 57.4142C11.9609 57.7893 12.4696 58 13 58H23C23.5304 58 24.0391 57.7893 24.4142 57.4142C24.7893 57.0391 25 56.5304 25 56C25 55.4696 24.7893 54.9609 24.4142 54.5858C24.0391 54.2107 23.5304 54 23 54H13ZM20 40C20 40.5304 19.7893 41.0391 19.4142 41.4142C19.0391 41.7893 18.5304 42 18 42H8C7.46957 42 6.96086 41.7893 6.58579 41.4142C6.21071 41.0391 6 40.5304 6 40C6 39.4696 6.21071 38.9609 6.58579 38.5858C6.96086 38.2107 7.46957 38 8 38H18C18.5304 38 19.0391 38.2107 19.4142 38.5858C19.7893 38.9609 20 39.4696 20 40ZM10 46C9.46957 46 8.96086 46.2107 8.58579 46.5858C8.21071 46.9609 8 47.4696 8 48C8 48.5304 8.21071 49.0391 8.58579 49.4142C8.96086 49.7893 9.46957 50 10 50H20C20.5304 50 21.0391 49.7893 21.4142 49.4142C21.7893 49.0391 22 48.5304 22 48C22 47.4696 21.7893 46.9609 21.4142 46.5858C21.0391 46.2107 20.5304 46 20 46H10Z" stroke="#95C22B" stroke-width="0.25" stroke-linecap="round" stroke-linejoin="round"/>
</svg>
