<?xml version="1.0" encoding="UTF-8"?>
<svg id="Layer_1" data-name="Layer 1" xmlns="http://www.w3.org/2000/svg" viewBox="0 0 36.54 51.5">
  <defs>
    <style>
      .cls-1 {
        fill: #95c22b;
      }
    </style>
  </defs>
  <path class="cls-1" d="M9.14,40.46h18.25v3.68H9.14v-3.68ZM12.79,47.82h10.95v3.68h-10.95v-3.68ZM18.27,0c-4.84,0-9.48,1.94-12.91,5.39C1.94,8.84.02,13.51.02,18.39c-.12,2.67.38,5.34,1.48,7.77,1.1,2.44,2.75,4.58,4.83,6.24,1.83,1.71,2.81,2.69,2.81,4.38h3.65c0-3.38-2.03-5.28-4-7.1-1.71-1.32-3.07-3.03-3.96-5-.89-1.97-1.3-4.13-1.17-6.29,0-3.9,1.54-7.65,4.28-10.4,2.74-2.76,6.45-4.31,10.32-4.31s7.59,1.55,10.32,4.31c2.74,2.76,4.28,6.5,4.28,10.4.12,2.16-.28,4.32-1.18,6.29-.9,1.97-2.26,3.69-3.97,5-1.95,1.84-3.98,3.68-3.98,7.1h3.65c0-1.69.97-2.67,2.81-4.4,2.08-1.66,3.73-3.8,4.83-6.23,1.1-2.43,1.61-5.09,1.48-7.76,0-2.42-.47-4.81-1.39-7.04-.92-2.23-2.26-4.26-3.96-5.97-1.69-1.71-3.71-3.06-5.92-3.99-2.21-.92-4.59-1.4-6.98-1.4Z"/>
  <path class="cls-1" d="M12.53,25c-.71-.71-1.26-1.52-1.66-2.45-.4-.93-.6-1.88-.6-2.87,0-.99.19-1.96.56-2.93.38-.96.99-1.87,1.84-2.72.55-.55,1.23-1.02,2.04-1.41.81-.39,1.76-.7,2.87-.93,1.11-.23,2.37-.36,3.79-.41,1.42-.05,3.01,0,4.76.16.13,1.66.16,3.19.12,4.59-.05,1.4-.18,2.65-.39,3.78-.21,1.12-.51,2.1-.89,2.94-.38.84-.86,1.54-1.42,2.11-.83.83-1.71,1.44-2.65,1.82-.93.38-1.89.58-2.86.58-1.02,0-2.02-.2-2.99-.6-.97-.4-1.81-.95-2.52-1.66ZM15.16,24.62c.45.27.92.46,1.4.58.48.12.97.18,1.47.18.72,0,1.44-.14,2.14-.43.71-.29,1.38-.76,2.02-1.4.28-.28.57-.68.86-1.19.29-.51.54-1.18.75-2,.21-.82.37-1.82.48-2.99.11-1.17.13-2.56.05-4.18-.77-.03-1.64-.04-2.6-.03-.96,0-1.93.08-2.88.22-.96.14-1.87.37-2.73.68-.86.31-1.57.75-2.12,1.29-.71.71-1.19,1.4-1.46,2.09-.27.69-.4,1.36-.4,2,0,.93.18,1.74.53,2.44.35.7.66,1.19.93,1.47.66-1.25,1.53-2.46,2.61-3.61,1.08-1.15,2.35-2.1,3.79-2.83-1.13.99-2.11,2.11-2.95,3.35-.84,1.25-1.47,2.7-1.89,4.36Z"/>
</svg>